G75*
%MOIN*%
%OFA0B0*%
%FSLAX25Y25*%
%IPPOS*%
%LPD*%
%AMOC8*
5,1,8,0,0,1.08239X$1,22.5*
%
%ADD10C,0.01486*%
%ADD11R,0.05131X0.04737*%
%ADD12C,0.13800*%
%ADD13C,0.08200*%
%ADD14R,0.05524X0.08674*%
%ADD15R,0.03162X0.06115*%
D10*
X0198566Y0181784D02*
X0201226Y0181784D01*
X0198566Y0181784D02*
X0198566Y0182278D01*
X0201226Y0182278D01*
X0201226Y0181784D01*
X0201226Y0183753D02*
X0198566Y0183753D01*
X0198566Y0184247D01*
X0201226Y0184247D01*
X0201226Y0183753D01*
X0201226Y0185722D02*
X0198566Y0185722D01*
X0198566Y0186216D01*
X0201226Y0186216D01*
X0201226Y0185722D01*
X0201226Y0187690D02*
X0198566Y0187690D01*
X0198566Y0188184D01*
X0201226Y0188184D01*
X0201226Y0187690D01*
X0203143Y0189568D02*
X0203143Y0192228D01*
X0203143Y0189568D02*
X0202649Y0189568D01*
X0202649Y0192228D01*
X0203143Y0192228D01*
X0203143Y0191053D02*
X0202649Y0191053D01*
X0205112Y0192228D02*
X0205112Y0189568D01*
X0204618Y0189568D01*
X0204618Y0192228D01*
X0205112Y0192228D01*
X0205112Y0191053D02*
X0204618Y0191053D01*
X0207080Y0192228D02*
X0207080Y0189568D01*
X0206586Y0189568D01*
X0206586Y0192228D01*
X0207080Y0192228D01*
X0207080Y0191053D02*
X0206586Y0191053D01*
X0209049Y0192228D02*
X0209049Y0189568D01*
X0208555Y0189568D01*
X0208555Y0192228D01*
X0209049Y0192228D01*
X0209049Y0191053D02*
X0208555Y0191053D01*
X0210393Y0188145D02*
X0213053Y0188145D01*
X0213053Y0187651D01*
X0210393Y0187651D01*
X0210393Y0188145D01*
X0210393Y0186176D02*
X0213053Y0186176D01*
X0213053Y0185682D01*
X0210393Y0185682D01*
X0210393Y0186176D01*
X0210393Y0184208D02*
X0213053Y0184208D01*
X0213053Y0183714D01*
X0210393Y0183714D01*
X0210393Y0184208D01*
X0210393Y0182239D02*
X0213053Y0182239D01*
X0213053Y0181745D01*
X0210393Y0181745D01*
X0210393Y0182239D01*
X0208555Y0180401D02*
X0208555Y0177741D01*
X0208555Y0180401D02*
X0209049Y0180401D01*
X0209049Y0177741D01*
X0208555Y0177741D01*
X0208555Y0179226D02*
X0209049Y0179226D01*
X0206586Y0180401D02*
X0206586Y0177741D01*
X0206586Y0180401D02*
X0207080Y0180401D01*
X0207080Y0177741D01*
X0206586Y0177741D01*
X0206586Y0179226D02*
X0207080Y0179226D01*
X0204618Y0180401D02*
X0204618Y0177741D01*
X0204618Y0180401D02*
X0205112Y0180401D01*
X0205112Y0177741D01*
X0204618Y0177741D01*
X0204618Y0179226D02*
X0205112Y0179226D01*
X0202649Y0180401D02*
X0202649Y0177741D01*
X0202649Y0180401D02*
X0203143Y0180401D01*
X0203143Y0177741D01*
X0202649Y0177741D01*
X0202649Y0179226D02*
X0203143Y0179226D01*
X0300566Y0181784D02*
X0303226Y0181784D01*
X0300566Y0181784D02*
X0300566Y0182278D01*
X0303226Y0182278D01*
X0303226Y0181784D01*
X0303226Y0183753D02*
X0300566Y0183753D01*
X0300566Y0184247D01*
X0303226Y0184247D01*
X0303226Y0183753D01*
X0303226Y0185722D02*
X0300566Y0185722D01*
X0300566Y0186216D01*
X0303226Y0186216D01*
X0303226Y0185722D01*
X0303226Y0187690D02*
X0300566Y0187690D01*
X0300566Y0188184D01*
X0303226Y0188184D01*
X0303226Y0187690D01*
X0305143Y0189568D02*
X0305143Y0192228D01*
X0305143Y0189568D02*
X0304649Y0189568D01*
X0304649Y0192228D01*
X0305143Y0192228D01*
X0305143Y0191053D02*
X0304649Y0191053D01*
X0307112Y0192228D02*
X0307112Y0189568D01*
X0306618Y0189568D01*
X0306618Y0192228D01*
X0307112Y0192228D01*
X0307112Y0191053D02*
X0306618Y0191053D01*
X0309080Y0192228D02*
X0309080Y0189568D01*
X0308586Y0189568D01*
X0308586Y0192228D01*
X0309080Y0192228D01*
X0309080Y0191053D02*
X0308586Y0191053D01*
X0311049Y0192228D02*
X0311049Y0189568D01*
X0310555Y0189568D01*
X0310555Y0192228D01*
X0311049Y0192228D01*
X0311049Y0191053D02*
X0310555Y0191053D01*
X0312393Y0188145D02*
X0315053Y0188145D01*
X0315053Y0187651D01*
X0312393Y0187651D01*
X0312393Y0188145D01*
X0312393Y0186176D02*
X0315053Y0186176D01*
X0315053Y0185682D01*
X0312393Y0185682D01*
X0312393Y0186176D01*
X0312393Y0184208D02*
X0315053Y0184208D01*
X0315053Y0183714D01*
X0312393Y0183714D01*
X0312393Y0184208D01*
X0312393Y0182239D02*
X0315053Y0182239D01*
X0315053Y0181745D01*
X0312393Y0181745D01*
X0312393Y0182239D01*
X0310555Y0180401D02*
X0310555Y0177741D01*
X0310555Y0180401D02*
X0311049Y0180401D01*
X0311049Y0177741D01*
X0310555Y0177741D01*
X0310555Y0179226D02*
X0311049Y0179226D01*
X0308586Y0180401D02*
X0308586Y0177741D01*
X0308586Y0180401D02*
X0309080Y0180401D01*
X0309080Y0177741D01*
X0308586Y0177741D01*
X0308586Y0179226D02*
X0309080Y0179226D01*
X0306618Y0180401D02*
X0306618Y0177741D01*
X0306618Y0180401D02*
X0307112Y0180401D01*
X0307112Y0177741D01*
X0306618Y0177741D01*
X0306618Y0179226D02*
X0307112Y0179226D01*
X0304649Y0180401D02*
X0304649Y0177741D01*
X0304649Y0180401D02*
X0305143Y0180401D01*
X0305143Y0177741D01*
X0304649Y0177741D01*
X0304649Y0179226D02*
X0305143Y0179226D01*
X0402566Y0181784D02*
X0405226Y0181784D01*
X0402566Y0181784D02*
X0402566Y0182278D01*
X0405226Y0182278D01*
X0405226Y0181784D01*
X0405226Y0183753D02*
X0402566Y0183753D01*
X0402566Y0184247D01*
X0405226Y0184247D01*
X0405226Y0183753D01*
X0405226Y0185722D02*
X0402566Y0185722D01*
X0402566Y0186216D01*
X0405226Y0186216D01*
X0405226Y0185722D01*
X0405226Y0187690D02*
X0402566Y0187690D01*
X0402566Y0188184D01*
X0405226Y0188184D01*
X0405226Y0187690D01*
X0407143Y0189568D02*
X0407143Y0192228D01*
X0407143Y0189568D02*
X0406649Y0189568D01*
X0406649Y0192228D01*
X0407143Y0192228D01*
X0407143Y0191053D02*
X0406649Y0191053D01*
X0409112Y0192228D02*
X0409112Y0189568D01*
X0408618Y0189568D01*
X0408618Y0192228D01*
X0409112Y0192228D01*
X0409112Y0191053D02*
X0408618Y0191053D01*
X0411080Y0192228D02*
X0411080Y0189568D01*
X0410586Y0189568D01*
X0410586Y0192228D01*
X0411080Y0192228D01*
X0411080Y0191053D02*
X0410586Y0191053D01*
X0413049Y0192228D02*
X0413049Y0189568D01*
X0412555Y0189568D01*
X0412555Y0192228D01*
X0413049Y0192228D01*
X0413049Y0191053D02*
X0412555Y0191053D01*
X0414393Y0188145D02*
X0417053Y0188145D01*
X0417053Y0187651D01*
X0414393Y0187651D01*
X0414393Y0188145D01*
X0414393Y0186176D02*
X0417053Y0186176D01*
X0417053Y0185682D01*
X0414393Y0185682D01*
X0414393Y0186176D01*
X0414393Y0184208D02*
X0417053Y0184208D01*
X0417053Y0183714D01*
X0414393Y0183714D01*
X0414393Y0184208D01*
X0414393Y0182239D02*
X0417053Y0182239D01*
X0417053Y0181745D01*
X0414393Y0181745D01*
X0414393Y0182239D01*
X0412555Y0180401D02*
X0412555Y0177741D01*
X0412555Y0180401D02*
X0413049Y0180401D01*
X0413049Y0177741D01*
X0412555Y0177741D01*
X0412555Y0179226D02*
X0413049Y0179226D01*
X0410586Y0180401D02*
X0410586Y0177741D01*
X0410586Y0180401D02*
X0411080Y0180401D01*
X0411080Y0177741D01*
X0410586Y0177741D01*
X0410586Y0179226D02*
X0411080Y0179226D01*
X0408618Y0180401D02*
X0408618Y0177741D01*
X0408618Y0180401D02*
X0409112Y0180401D01*
X0409112Y0177741D01*
X0408618Y0177741D01*
X0408618Y0179226D02*
X0409112Y0179226D01*
X0406649Y0180401D02*
X0406649Y0177741D01*
X0406649Y0180401D02*
X0407143Y0180401D01*
X0407143Y0177741D01*
X0406649Y0177741D01*
X0406649Y0179226D02*
X0407143Y0179226D01*
X0406649Y0279741D02*
X0406649Y0282401D01*
X0407143Y0282401D01*
X0407143Y0279741D01*
X0406649Y0279741D01*
X0406649Y0281226D02*
X0407143Y0281226D01*
X0408618Y0282401D02*
X0408618Y0279741D01*
X0408618Y0282401D02*
X0409112Y0282401D01*
X0409112Y0279741D01*
X0408618Y0279741D01*
X0408618Y0281226D02*
X0409112Y0281226D01*
X0410586Y0282401D02*
X0410586Y0279741D01*
X0410586Y0282401D02*
X0411080Y0282401D01*
X0411080Y0279741D01*
X0410586Y0279741D01*
X0410586Y0281226D02*
X0411080Y0281226D01*
X0412555Y0282401D02*
X0412555Y0279741D01*
X0412555Y0282401D02*
X0413049Y0282401D01*
X0413049Y0279741D01*
X0412555Y0279741D01*
X0412555Y0281226D02*
X0413049Y0281226D01*
X0414393Y0284239D02*
X0417053Y0284239D01*
X0417053Y0283745D01*
X0414393Y0283745D01*
X0414393Y0284239D01*
X0414393Y0286208D02*
X0417053Y0286208D01*
X0417053Y0285714D01*
X0414393Y0285714D01*
X0414393Y0286208D01*
X0414393Y0288176D02*
X0417053Y0288176D01*
X0417053Y0287682D01*
X0414393Y0287682D01*
X0414393Y0288176D01*
X0414393Y0290145D02*
X0417053Y0290145D01*
X0417053Y0289651D01*
X0414393Y0289651D01*
X0414393Y0290145D01*
X0413049Y0291568D02*
X0413049Y0294228D01*
X0413049Y0291568D02*
X0412555Y0291568D01*
X0412555Y0294228D01*
X0413049Y0294228D01*
X0413049Y0293053D02*
X0412555Y0293053D01*
X0411080Y0294228D02*
X0411080Y0291568D01*
X0410586Y0291568D01*
X0410586Y0294228D01*
X0411080Y0294228D01*
X0411080Y0293053D02*
X0410586Y0293053D01*
X0409112Y0294228D02*
X0409112Y0291568D01*
X0408618Y0291568D01*
X0408618Y0294228D01*
X0409112Y0294228D01*
X0409112Y0293053D02*
X0408618Y0293053D01*
X0407143Y0294228D02*
X0407143Y0291568D01*
X0406649Y0291568D01*
X0406649Y0294228D01*
X0407143Y0294228D01*
X0407143Y0293053D02*
X0406649Y0293053D01*
X0405226Y0289690D02*
X0402566Y0289690D01*
X0402566Y0290184D01*
X0405226Y0290184D01*
X0405226Y0289690D01*
X0405226Y0287722D02*
X0402566Y0287722D01*
X0402566Y0288216D01*
X0405226Y0288216D01*
X0405226Y0287722D01*
X0405226Y0285753D02*
X0402566Y0285753D01*
X0402566Y0286247D01*
X0405226Y0286247D01*
X0405226Y0285753D01*
X0405226Y0283784D02*
X0402566Y0283784D01*
X0402566Y0284278D01*
X0405226Y0284278D01*
X0405226Y0283784D01*
X0315053Y0284239D02*
X0312393Y0284239D01*
X0315053Y0284239D02*
X0315053Y0283745D01*
X0312393Y0283745D01*
X0312393Y0284239D01*
X0312393Y0286208D02*
X0315053Y0286208D01*
X0315053Y0285714D01*
X0312393Y0285714D01*
X0312393Y0286208D01*
X0312393Y0288176D02*
X0315053Y0288176D01*
X0315053Y0287682D01*
X0312393Y0287682D01*
X0312393Y0288176D01*
X0312393Y0290145D02*
X0315053Y0290145D01*
X0315053Y0289651D01*
X0312393Y0289651D01*
X0312393Y0290145D01*
X0311049Y0291568D02*
X0311049Y0294228D01*
X0311049Y0291568D02*
X0310555Y0291568D01*
X0310555Y0294228D01*
X0311049Y0294228D01*
X0311049Y0293053D02*
X0310555Y0293053D01*
X0309080Y0294228D02*
X0309080Y0291568D01*
X0308586Y0291568D01*
X0308586Y0294228D01*
X0309080Y0294228D01*
X0309080Y0293053D02*
X0308586Y0293053D01*
X0307112Y0294228D02*
X0307112Y0291568D01*
X0306618Y0291568D01*
X0306618Y0294228D01*
X0307112Y0294228D01*
X0307112Y0293053D02*
X0306618Y0293053D01*
X0305143Y0294228D02*
X0305143Y0291568D01*
X0304649Y0291568D01*
X0304649Y0294228D01*
X0305143Y0294228D01*
X0305143Y0293053D02*
X0304649Y0293053D01*
X0303226Y0289690D02*
X0300566Y0289690D01*
X0300566Y0290184D01*
X0303226Y0290184D01*
X0303226Y0289690D01*
X0303226Y0287722D02*
X0300566Y0287722D01*
X0300566Y0288216D01*
X0303226Y0288216D01*
X0303226Y0287722D01*
X0303226Y0285753D02*
X0300566Y0285753D01*
X0300566Y0286247D01*
X0303226Y0286247D01*
X0303226Y0285753D01*
X0303226Y0283784D02*
X0300566Y0283784D01*
X0300566Y0284278D01*
X0303226Y0284278D01*
X0303226Y0283784D01*
X0304649Y0282401D02*
X0304649Y0279741D01*
X0304649Y0282401D02*
X0305143Y0282401D01*
X0305143Y0279741D01*
X0304649Y0279741D01*
X0304649Y0281226D02*
X0305143Y0281226D01*
X0306618Y0282401D02*
X0306618Y0279741D01*
X0306618Y0282401D02*
X0307112Y0282401D01*
X0307112Y0279741D01*
X0306618Y0279741D01*
X0306618Y0281226D02*
X0307112Y0281226D01*
X0308586Y0282401D02*
X0308586Y0279741D01*
X0308586Y0282401D02*
X0309080Y0282401D01*
X0309080Y0279741D01*
X0308586Y0279741D01*
X0308586Y0281226D02*
X0309080Y0281226D01*
X0310555Y0282401D02*
X0310555Y0279741D01*
X0310555Y0282401D02*
X0311049Y0282401D01*
X0311049Y0279741D01*
X0310555Y0279741D01*
X0310555Y0281226D02*
X0311049Y0281226D01*
X0213053Y0284239D02*
X0210393Y0284239D01*
X0213053Y0284239D02*
X0213053Y0283745D01*
X0210393Y0283745D01*
X0210393Y0284239D01*
X0210393Y0286208D02*
X0213053Y0286208D01*
X0213053Y0285714D01*
X0210393Y0285714D01*
X0210393Y0286208D01*
X0210393Y0288176D02*
X0213053Y0288176D01*
X0213053Y0287682D01*
X0210393Y0287682D01*
X0210393Y0288176D01*
X0210393Y0290145D02*
X0213053Y0290145D01*
X0213053Y0289651D01*
X0210393Y0289651D01*
X0210393Y0290145D01*
X0209049Y0291568D02*
X0209049Y0294228D01*
X0209049Y0291568D02*
X0208555Y0291568D01*
X0208555Y0294228D01*
X0209049Y0294228D01*
X0209049Y0293053D02*
X0208555Y0293053D01*
X0207080Y0294228D02*
X0207080Y0291568D01*
X0206586Y0291568D01*
X0206586Y0294228D01*
X0207080Y0294228D01*
X0207080Y0293053D02*
X0206586Y0293053D01*
X0205112Y0294228D02*
X0205112Y0291568D01*
X0204618Y0291568D01*
X0204618Y0294228D01*
X0205112Y0294228D01*
X0205112Y0293053D02*
X0204618Y0293053D01*
X0203143Y0294228D02*
X0203143Y0291568D01*
X0202649Y0291568D01*
X0202649Y0294228D01*
X0203143Y0294228D01*
X0203143Y0293053D02*
X0202649Y0293053D01*
X0201226Y0289690D02*
X0198566Y0289690D01*
X0198566Y0290184D01*
X0201226Y0290184D01*
X0201226Y0289690D01*
X0201226Y0287722D02*
X0198566Y0287722D01*
X0198566Y0288216D01*
X0201226Y0288216D01*
X0201226Y0287722D01*
X0201226Y0285753D02*
X0198566Y0285753D01*
X0198566Y0286247D01*
X0201226Y0286247D01*
X0201226Y0285753D01*
X0201226Y0283784D02*
X0198566Y0283784D01*
X0198566Y0284278D01*
X0201226Y0284278D01*
X0201226Y0283784D01*
X0202649Y0282401D02*
X0202649Y0279741D01*
X0202649Y0282401D02*
X0203143Y0282401D01*
X0203143Y0279741D01*
X0202649Y0279741D01*
X0202649Y0281226D02*
X0203143Y0281226D01*
X0204618Y0282401D02*
X0204618Y0279741D01*
X0204618Y0282401D02*
X0205112Y0282401D01*
X0205112Y0279741D01*
X0204618Y0279741D01*
X0204618Y0281226D02*
X0205112Y0281226D01*
X0206586Y0282401D02*
X0206586Y0279741D01*
X0206586Y0282401D02*
X0207080Y0282401D01*
X0207080Y0279741D01*
X0206586Y0279741D01*
X0206586Y0281226D02*
X0207080Y0281226D01*
X0208555Y0282401D02*
X0208555Y0279741D01*
X0208555Y0282401D02*
X0209049Y0282401D01*
X0209049Y0279741D01*
X0208555Y0279741D01*
X0208555Y0281226D02*
X0209049Y0281226D01*
X0208555Y0381741D02*
X0208555Y0384401D01*
X0209049Y0384401D01*
X0209049Y0381741D01*
X0208555Y0381741D01*
X0208555Y0383226D02*
X0209049Y0383226D01*
X0206586Y0384401D02*
X0206586Y0381741D01*
X0206586Y0384401D02*
X0207080Y0384401D01*
X0207080Y0381741D01*
X0206586Y0381741D01*
X0206586Y0383226D02*
X0207080Y0383226D01*
X0204618Y0384401D02*
X0204618Y0381741D01*
X0204618Y0384401D02*
X0205112Y0384401D01*
X0205112Y0381741D01*
X0204618Y0381741D01*
X0204618Y0383226D02*
X0205112Y0383226D01*
X0202649Y0384401D02*
X0202649Y0381741D01*
X0202649Y0384401D02*
X0203143Y0384401D01*
X0203143Y0381741D01*
X0202649Y0381741D01*
X0202649Y0383226D02*
X0203143Y0383226D01*
X0201226Y0385784D02*
X0198566Y0385784D01*
X0198566Y0386278D01*
X0201226Y0386278D01*
X0201226Y0385784D01*
X0201226Y0387753D02*
X0198566Y0387753D01*
X0198566Y0388247D01*
X0201226Y0388247D01*
X0201226Y0387753D01*
X0201226Y0389722D02*
X0198566Y0389722D01*
X0198566Y0390216D01*
X0201226Y0390216D01*
X0201226Y0389722D01*
X0201226Y0391690D02*
X0198566Y0391690D01*
X0198566Y0392184D01*
X0201226Y0392184D01*
X0201226Y0391690D01*
X0203143Y0393568D02*
X0203143Y0396228D01*
X0203143Y0393568D02*
X0202649Y0393568D01*
X0202649Y0396228D01*
X0203143Y0396228D01*
X0203143Y0395053D02*
X0202649Y0395053D01*
X0205112Y0396228D02*
X0205112Y0393568D01*
X0204618Y0393568D01*
X0204618Y0396228D01*
X0205112Y0396228D01*
X0205112Y0395053D02*
X0204618Y0395053D01*
X0207080Y0396228D02*
X0207080Y0393568D01*
X0206586Y0393568D01*
X0206586Y0396228D01*
X0207080Y0396228D01*
X0207080Y0395053D02*
X0206586Y0395053D01*
X0209049Y0396228D02*
X0209049Y0393568D01*
X0208555Y0393568D01*
X0208555Y0396228D01*
X0209049Y0396228D01*
X0209049Y0395053D02*
X0208555Y0395053D01*
X0210393Y0392145D02*
X0213053Y0392145D01*
X0213053Y0391651D01*
X0210393Y0391651D01*
X0210393Y0392145D01*
X0210393Y0390176D02*
X0213053Y0390176D01*
X0213053Y0389682D01*
X0210393Y0389682D01*
X0210393Y0390176D01*
X0210393Y0388208D02*
X0213053Y0388208D01*
X0213053Y0387714D01*
X0210393Y0387714D01*
X0210393Y0388208D01*
X0210393Y0386239D02*
X0213053Y0386239D01*
X0213053Y0385745D01*
X0210393Y0385745D01*
X0210393Y0386239D01*
X0300566Y0385784D02*
X0303226Y0385784D01*
X0300566Y0385784D02*
X0300566Y0386278D01*
X0303226Y0386278D01*
X0303226Y0385784D01*
X0303226Y0387753D02*
X0300566Y0387753D01*
X0300566Y0388247D01*
X0303226Y0388247D01*
X0303226Y0387753D01*
X0303226Y0389722D02*
X0300566Y0389722D01*
X0300566Y0390216D01*
X0303226Y0390216D01*
X0303226Y0389722D01*
X0303226Y0391690D02*
X0300566Y0391690D01*
X0300566Y0392184D01*
X0303226Y0392184D01*
X0303226Y0391690D01*
X0305143Y0393568D02*
X0305143Y0396228D01*
X0305143Y0393568D02*
X0304649Y0393568D01*
X0304649Y0396228D01*
X0305143Y0396228D01*
X0305143Y0395053D02*
X0304649Y0395053D01*
X0307112Y0396228D02*
X0307112Y0393568D01*
X0306618Y0393568D01*
X0306618Y0396228D01*
X0307112Y0396228D01*
X0307112Y0395053D02*
X0306618Y0395053D01*
X0309080Y0396228D02*
X0309080Y0393568D01*
X0308586Y0393568D01*
X0308586Y0396228D01*
X0309080Y0396228D01*
X0309080Y0395053D02*
X0308586Y0395053D01*
X0311049Y0396228D02*
X0311049Y0393568D01*
X0310555Y0393568D01*
X0310555Y0396228D01*
X0311049Y0396228D01*
X0311049Y0395053D02*
X0310555Y0395053D01*
X0312393Y0392145D02*
X0315053Y0392145D01*
X0315053Y0391651D01*
X0312393Y0391651D01*
X0312393Y0392145D01*
X0312393Y0390176D02*
X0315053Y0390176D01*
X0315053Y0389682D01*
X0312393Y0389682D01*
X0312393Y0390176D01*
X0312393Y0388208D02*
X0315053Y0388208D01*
X0315053Y0387714D01*
X0312393Y0387714D01*
X0312393Y0388208D01*
X0312393Y0386239D02*
X0315053Y0386239D01*
X0315053Y0385745D01*
X0312393Y0385745D01*
X0312393Y0386239D01*
X0310555Y0384401D02*
X0310555Y0381741D01*
X0310555Y0384401D02*
X0311049Y0384401D01*
X0311049Y0381741D01*
X0310555Y0381741D01*
X0310555Y0383226D02*
X0311049Y0383226D01*
X0308586Y0384401D02*
X0308586Y0381741D01*
X0308586Y0384401D02*
X0309080Y0384401D01*
X0309080Y0381741D01*
X0308586Y0381741D01*
X0308586Y0383226D02*
X0309080Y0383226D01*
X0306618Y0384401D02*
X0306618Y0381741D01*
X0306618Y0384401D02*
X0307112Y0384401D01*
X0307112Y0381741D01*
X0306618Y0381741D01*
X0306618Y0383226D02*
X0307112Y0383226D01*
X0304649Y0384401D02*
X0304649Y0381741D01*
X0304649Y0384401D02*
X0305143Y0384401D01*
X0305143Y0381741D01*
X0304649Y0381741D01*
X0304649Y0383226D02*
X0305143Y0383226D01*
X0402566Y0385784D02*
X0405226Y0385784D01*
X0402566Y0385784D02*
X0402566Y0386278D01*
X0405226Y0386278D01*
X0405226Y0385784D01*
X0405226Y0387753D02*
X0402566Y0387753D01*
X0402566Y0388247D01*
X0405226Y0388247D01*
X0405226Y0387753D01*
X0405226Y0389722D02*
X0402566Y0389722D01*
X0402566Y0390216D01*
X0405226Y0390216D01*
X0405226Y0389722D01*
X0405226Y0391690D02*
X0402566Y0391690D01*
X0402566Y0392184D01*
X0405226Y0392184D01*
X0405226Y0391690D01*
X0407143Y0393568D02*
X0407143Y0396228D01*
X0407143Y0393568D02*
X0406649Y0393568D01*
X0406649Y0396228D01*
X0407143Y0396228D01*
X0407143Y0395053D02*
X0406649Y0395053D01*
X0409112Y0396228D02*
X0409112Y0393568D01*
X0408618Y0393568D01*
X0408618Y0396228D01*
X0409112Y0396228D01*
X0409112Y0395053D02*
X0408618Y0395053D01*
X0411080Y0396228D02*
X0411080Y0393568D01*
X0410586Y0393568D01*
X0410586Y0396228D01*
X0411080Y0396228D01*
X0411080Y0395053D02*
X0410586Y0395053D01*
X0413049Y0396228D02*
X0413049Y0393568D01*
X0412555Y0393568D01*
X0412555Y0396228D01*
X0413049Y0396228D01*
X0413049Y0395053D02*
X0412555Y0395053D01*
X0414393Y0392145D02*
X0417053Y0392145D01*
X0417053Y0391651D01*
X0414393Y0391651D01*
X0414393Y0392145D01*
X0414393Y0390176D02*
X0417053Y0390176D01*
X0417053Y0389682D01*
X0414393Y0389682D01*
X0414393Y0390176D01*
X0414393Y0388208D02*
X0417053Y0388208D01*
X0417053Y0387714D01*
X0414393Y0387714D01*
X0414393Y0388208D01*
X0414393Y0386239D02*
X0417053Y0386239D01*
X0417053Y0385745D01*
X0414393Y0385745D01*
X0414393Y0386239D01*
X0412555Y0384401D02*
X0412555Y0381741D01*
X0412555Y0384401D02*
X0413049Y0384401D01*
X0413049Y0381741D01*
X0412555Y0381741D01*
X0412555Y0383226D02*
X0413049Y0383226D01*
X0410586Y0384401D02*
X0410586Y0381741D01*
X0410586Y0384401D02*
X0411080Y0384401D01*
X0411080Y0381741D01*
X0410586Y0381741D01*
X0410586Y0383226D02*
X0411080Y0383226D01*
X0408618Y0384401D02*
X0408618Y0381741D01*
X0408618Y0384401D02*
X0409112Y0384401D01*
X0409112Y0381741D01*
X0408618Y0381741D01*
X0408618Y0383226D02*
X0409112Y0383226D01*
X0406649Y0384401D02*
X0406649Y0381741D01*
X0406649Y0384401D02*
X0407143Y0384401D01*
X0407143Y0381741D01*
X0406649Y0381741D01*
X0406649Y0383226D02*
X0407143Y0383226D01*
D11*
X0398180Y0373000D03*
X0391487Y0373000D03*
X0421487Y0373000D03*
X0428180Y0373000D03*
X0428180Y0404000D03*
X0421487Y0404000D03*
X0398180Y0404000D03*
X0391487Y0404000D03*
X0326180Y0404000D03*
X0319487Y0404000D03*
X0296180Y0404000D03*
X0289487Y0404000D03*
X0289487Y0373000D03*
X0296180Y0373000D03*
X0319487Y0373000D03*
X0326180Y0373000D03*
X0326180Y0302000D03*
X0319487Y0302000D03*
X0296180Y0302000D03*
X0289487Y0302000D03*
X0289487Y0271000D03*
X0296180Y0271000D03*
X0319487Y0271000D03*
X0326180Y0271000D03*
X0391487Y0271000D03*
X0398180Y0271000D03*
X0421487Y0271000D03*
X0428180Y0271000D03*
X0428180Y0302000D03*
X0421487Y0302000D03*
X0398180Y0302000D03*
X0391487Y0302000D03*
X0391487Y0200000D03*
X0398180Y0200000D03*
X0421487Y0200000D03*
X0428180Y0200000D03*
X0428180Y0169000D03*
X0421487Y0169000D03*
X0398180Y0169000D03*
X0391487Y0169000D03*
X0326180Y0169000D03*
X0319487Y0169000D03*
X0296180Y0169000D03*
X0289487Y0169000D03*
X0289487Y0200000D03*
X0296180Y0200000D03*
X0319487Y0200000D03*
X0326180Y0200000D03*
X0224180Y0200000D03*
X0217487Y0200000D03*
X0194180Y0200000D03*
X0187487Y0200000D03*
X0187487Y0169000D03*
X0194180Y0169000D03*
X0217487Y0169000D03*
X0224180Y0169000D03*
X0224180Y0271000D03*
X0217487Y0271000D03*
X0194180Y0271000D03*
X0187487Y0271000D03*
X0187487Y0302000D03*
X0194180Y0302000D03*
X0217487Y0302000D03*
X0224180Y0302000D03*
X0224180Y0373000D03*
X0217487Y0373000D03*
X0194180Y0373000D03*
X0187487Y0373000D03*
X0187487Y0404000D03*
X0194180Y0404000D03*
X0217487Y0404000D03*
X0224180Y0404000D03*
D12*
X0245833Y0429000D03*
X0267833Y0429000D03*
X0347833Y0429000D03*
X0369833Y0429000D03*
X0449833Y0429000D03*
X0449833Y0327000D03*
X0369833Y0327000D03*
X0347833Y0327000D03*
X0267833Y0327000D03*
X0245833Y0327000D03*
X0165833Y0327000D03*
X0165833Y0225000D03*
X0245833Y0225000D03*
X0267833Y0225000D03*
X0347833Y0225000D03*
X0369833Y0225000D03*
X0449833Y0225000D03*
X0165833Y0429000D03*
D13*
X0160833Y0155000D03*
X0160833Y0165000D03*
X0160833Y0175000D03*
X0160833Y0185000D03*
X0160833Y0195000D03*
X0160833Y0205000D03*
X0160833Y0257000D03*
X0160833Y0267000D03*
X0160833Y0277000D03*
X0160833Y0287000D03*
X0160833Y0297000D03*
X0160833Y0307000D03*
X0160833Y0359000D03*
X0160833Y0369000D03*
X0160833Y0379000D03*
X0160833Y0389000D03*
X0160833Y0399000D03*
X0160833Y0409000D03*
X0250833Y0409000D03*
X0250833Y0399000D03*
X0250833Y0389000D03*
X0250833Y0379000D03*
X0250833Y0369000D03*
X0250833Y0359000D03*
X0262833Y0359000D03*
X0262833Y0369000D03*
X0262833Y0379000D03*
X0262833Y0389000D03*
X0262833Y0399000D03*
X0262833Y0409000D03*
X0352833Y0409000D03*
X0352833Y0399000D03*
X0352833Y0389000D03*
X0352833Y0379000D03*
X0352833Y0369000D03*
X0352833Y0359000D03*
X0364833Y0359000D03*
X0364833Y0369000D03*
X0364833Y0379000D03*
X0364833Y0389000D03*
X0364833Y0399000D03*
X0364833Y0409000D03*
X0454833Y0409000D03*
X0454833Y0399000D03*
X0454833Y0389000D03*
X0454833Y0379000D03*
X0454833Y0369000D03*
X0454833Y0359000D03*
X0454833Y0307000D03*
X0454833Y0297000D03*
X0454833Y0287000D03*
X0454833Y0277000D03*
X0454833Y0267000D03*
X0454833Y0257000D03*
X0454833Y0205000D03*
X0454833Y0195000D03*
X0454833Y0185000D03*
X0454833Y0175000D03*
X0454833Y0165000D03*
X0454833Y0155000D03*
X0364833Y0155000D03*
X0364833Y0165000D03*
X0364833Y0175000D03*
X0364833Y0185000D03*
X0364833Y0195000D03*
X0364833Y0205000D03*
X0352833Y0205000D03*
X0352833Y0195000D03*
X0352833Y0185000D03*
X0352833Y0175000D03*
X0352833Y0165000D03*
X0352833Y0155000D03*
X0262833Y0155000D03*
X0262833Y0165000D03*
X0262833Y0175000D03*
X0262833Y0185000D03*
X0262833Y0195000D03*
X0250833Y0195000D03*
X0250833Y0185000D03*
X0250833Y0175000D03*
X0250833Y0165000D03*
X0250833Y0155000D03*
X0250833Y0205000D03*
X0262833Y0205000D03*
X0262833Y0257000D03*
X0262833Y0267000D03*
X0262833Y0277000D03*
X0262833Y0287000D03*
X0262833Y0297000D03*
X0262833Y0307000D03*
X0250833Y0307000D03*
X0250833Y0297000D03*
X0250833Y0287000D03*
X0250833Y0277000D03*
X0250833Y0267000D03*
X0250833Y0257000D03*
X0352833Y0257000D03*
X0352833Y0267000D03*
X0352833Y0277000D03*
X0352833Y0287000D03*
X0352833Y0297000D03*
X0352833Y0307000D03*
X0364833Y0307000D03*
X0364833Y0297000D03*
X0364833Y0287000D03*
X0364833Y0277000D03*
X0364833Y0267000D03*
X0364833Y0257000D03*
D14*
X0398810Y0242531D03*
X0398810Y0229469D03*
X0420857Y0229469D03*
X0420857Y0242531D03*
X0420857Y0331469D03*
X0420857Y0344531D03*
X0398810Y0344531D03*
X0398810Y0331469D03*
X0318857Y0331469D03*
X0318857Y0344531D03*
X0296810Y0344531D03*
X0296810Y0331469D03*
X0216857Y0331469D03*
X0216857Y0344531D03*
X0194810Y0344531D03*
X0194810Y0331469D03*
X0194810Y0242531D03*
X0194810Y0229469D03*
X0216857Y0229469D03*
X0216857Y0242531D03*
X0296810Y0242531D03*
X0296810Y0229469D03*
X0318857Y0229469D03*
X0318857Y0242531D03*
X0318857Y0140531D03*
X0296810Y0140531D03*
X0216857Y0140531D03*
X0194810Y0140531D03*
X0398810Y0140531D03*
X0420857Y0140531D03*
X0420857Y0433469D03*
X0398810Y0433469D03*
X0318857Y0433469D03*
X0296810Y0433469D03*
X0216857Y0433469D03*
X0194810Y0433469D03*
D15*
X0199928Y0419000D03*
X0203865Y0419000D03*
X0207802Y0419000D03*
X0211739Y0419000D03*
X0211739Y0359000D03*
X0207802Y0359000D03*
X0203865Y0359000D03*
X0199928Y0359000D03*
X0199928Y0317000D03*
X0203865Y0317000D03*
X0207802Y0317000D03*
X0211739Y0317000D03*
X0211739Y0257000D03*
X0207802Y0257000D03*
X0203865Y0257000D03*
X0199928Y0257000D03*
X0199928Y0215000D03*
X0203865Y0215000D03*
X0207802Y0215000D03*
X0211739Y0215000D03*
X0211739Y0155000D03*
X0207802Y0155000D03*
X0203865Y0155000D03*
X0199928Y0155000D03*
X0301928Y0155000D03*
X0305865Y0155000D03*
X0309802Y0155000D03*
X0313739Y0155000D03*
X0313739Y0215000D03*
X0309802Y0215000D03*
X0305865Y0215000D03*
X0301928Y0215000D03*
X0301928Y0257000D03*
X0305865Y0257000D03*
X0309802Y0257000D03*
X0313739Y0257000D03*
X0313739Y0317000D03*
X0309802Y0317000D03*
X0305865Y0317000D03*
X0301928Y0317000D03*
X0301928Y0359000D03*
X0305865Y0359000D03*
X0309802Y0359000D03*
X0313739Y0359000D03*
X0313739Y0419000D03*
X0309802Y0419000D03*
X0305865Y0419000D03*
X0301928Y0419000D03*
X0403928Y0419000D03*
X0407865Y0419000D03*
X0411802Y0419000D03*
X0415739Y0419000D03*
X0415739Y0359000D03*
X0411802Y0359000D03*
X0407865Y0359000D03*
X0403928Y0359000D03*
X0403928Y0317000D03*
X0407865Y0317000D03*
X0411802Y0317000D03*
X0415739Y0317000D03*
X0415739Y0257000D03*
X0411802Y0257000D03*
X0407865Y0257000D03*
X0403928Y0257000D03*
X0403928Y0215000D03*
X0407865Y0215000D03*
X0411802Y0215000D03*
X0415739Y0215000D03*
X0415739Y0155000D03*
X0411802Y0155000D03*
X0407865Y0155000D03*
X0403928Y0155000D03*
M02*
