G75*
%MOIN*%
%OFA0B0*%
%FSLAX25Y25*%
%IPPOS*%
%LPD*%
%AMOC8*
5,1,8,0,0,1.08239X$1,22.5*
%
%ADD10C,0.00886*%
%ADD11R,0.04331X0.03937*%
%ADD12R,0.04724X0.07874*%
%ADD13R,0.02362X0.05315*%
D10*
X0198666Y0181884D02*
X0201126Y0181884D01*
X0198666Y0181884D02*
X0198666Y0182178D01*
X0201126Y0182178D01*
X0201126Y0181884D01*
X0201126Y0183853D02*
X0198666Y0183853D01*
X0198666Y0184147D01*
X0201126Y0184147D01*
X0201126Y0183853D01*
X0201126Y0185822D02*
X0198666Y0185822D01*
X0198666Y0186116D01*
X0201126Y0186116D01*
X0201126Y0185822D01*
X0201126Y0187790D02*
X0198666Y0187790D01*
X0198666Y0188084D01*
X0201126Y0188084D01*
X0201126Y0187790D01*
X0203043Y0189668D02*
X0203043Y0192128D01*
X0203043Y0189668D02*
X0202749Y0189668D01*
X0202749Y0192128D01*
X0203043Y0192128D01*
X0203043Y0190553D02*
X0202749Y0190553D01*
X0202749Y0191438D02*
X0203043Y0191438D01*
X0205012Y0192128D02*
X0205012Y0189668D01*
X0204718Y0189668D01*
X0204718Y0192128D01*
X0205012Y0192128D01*
X0205012Y0190553D02*
X0204718Y0190553D01*
X0204718Y0191438D02*
X0205012Y0191438D01*
X0206980Y0192128D02*
X0206980Y0189668D01*
X0206686Y0189668D01*
X0206686Y0192128D01*
X0206980Y0192128D01*
X0206980Y0190553D02*
X0206686Y0190553D01*
X0206686Y0191438D02*
X0206980Y0191438D01*
X0208949Y0192128D02*
X0208949Y0189668D01*
X0208655Y0189668D01*
X0208655Y0192128D01*
X0208949Y0192128D01*
X0208949Y0190553D02*
X0208655Y0190553D01*
X0208655Y0191438D02*
X0208949Y0191438D01*
X0210493Y0188045D02*
X0212953Y0188045D01*
X0212953Y0187751D01*
X0210493Y0187751D01*
X0210493Y0188045D01*
X0210493Y0186076D02*
X0212953Y0186076D01*
X0212953Y0185782D01*
X0210493Y0185782D01*
X0210493Y0186076D01*
X0210493Y0184108D02*
X0212953Y0184108D01*
X0212953Y0183814D01*
X0210493Y0183814D01*
X0210493Y0184108D01*
X0210493Y0182139D02*
X0212953Y0182139D01*
X0212953Y0181845D01*
X0210493Y0181845D01*
X0210493Y0182139D01*
X0208655Y0180301D02*
X0208655Y0177841D01*
X0208655Y0180301D02*
X0208949Y0180301D01*
X0208949Y0177841D01*
X0208655Y0177841D01*
X0208655Y0178726D02*
X0208949Y0178726D01*
X0208949Y0179611D02*
X0208655Y0179611D01*
X0206686Y0180301D02*
X0206686Y0177841D01*
X0206686Y0180301D02*
X0206980Y0180301D01*
X0206980Y0177841D01*
X0206686Y0177841D01*
X0206686Y0178726D02*
X0206980Y0178726D01*
X0206980Y0179611D02*
X0206686Y0179611D01*
X0204718Y0180301D02*
X0204718Y0177841D01*
X0204718Y0180301D02*
X0205012Y0180301D01*
X0205012Y0177841D01*
X0204718Y0177841D01*
X0204718Y0178726D02*
X0205012Y0178726D01*
X0205012Y0179611D02*
X0204718Y0179611D01*
X0202749Y0180301D02*
X0202749Y0177841D01*
X0202749Y0180301D02*
X0203043Y0180301D01*
X0203043Y0177841D01*
X0202749Y0177841D01*
X0202749Y0178726D02*
X0203043Y0178726D01*
X0203043Y0179611D02*
X0202749Y0179611D01*
X0300666Y0181884D02*
X0303126Y0181884D01*
X0300666Y0181884D02*
X0300666Y0182178D01*
X0303126Y0182178D01*
X0303126Y0181884D01*
X0303126Y0183853D02*
X0300666Y0183853D01*
X0300666Y0184147D01*
X0303126Y0184147D01*
X0303126Y0183853D01*
X0303126Y0185822D02*
X0300666Y0185822D01*
X0300666Y0186116D01*
X0303126Y0186116D01*
X0303126Y0185822D01*
X0303126Y0187790D02*
X0300666Y0187790D01*
X0300666Y0188084D01*
X0303126Y0188084D01*
X0303126Y0187790D01*
X0305043Y0189668D02*
X0305043Y0192128D01*
X0305043Y0189668D02*
X0304749Y0189668D01*
X0304749Y0192128D01*
X0305043Y0192128D01*
X0305043Y0190553D02*
X0304749Y0190553D01*
X0304749Y0191438D02*
X0305043Y0191438D01*
X0307012Y0192128D02*
X0307012Y0189668D01*
X0306718Y0189668D01*
X0306718Y0192128D01*
X0307012Y0192128D01*
X0307012Y0190553D02*
X0306718Y0190553D01*
X0306718Y0191438D02*
X0307012Y0191438D01*
X0308980Y0192128D02*
X0308980Y0189668D01*
X0308686Y0189668D01*
X0308686Y0192128D01*
X0308980Y0192128D01*
X0308980Y0190553D02*
X0308686Y0190553D01*
X0308686Y0191438D02*
X0308980Y0191438D01*
X0310949Y0192128D02*
X0310949Y0189668D01*
X0310655Y0189668D01*
X0310655Y0192128D01*
X0310949Y0192128D01*
X0310949Y0190553D02*
X0310655Y0190553D01*
X0310655Y0191438D02*
X0310949Y0191438D01*
X0312493Y0188045D02*
X0314953Y0188045D01*
X0314953Y0187751D01*
X0312493Y0187751D01*
X0312493Y0188045D01*
X0312493Y0186076D02*
X0314953Y0186076D01*
X0314953Y0185782D01*
X0312493Y0185782D01*
X0312493Y0186076D01*
X0312493Y0184108D02*
X0314953Y0184108D01*
X0314953Y0183814D01*
X0312493Y0183814D01*
X0312493Y0184108D01*
X0312493Y0182139D02*
X0314953Y0182139D01*
X0314953Y0181845D01*
X0312493Y0181845D01*
X0312493Y0182139D01*
X0310655Y0180301D02*
X0310655Y0177841D01*
X0310655Y0180301D02*
X0310949Y0180301D01*
X0310949Y0177841D01*
X0310655Y0177841D01*
X0310655Y0178726D02*
X0310949Y0178726D01*
X0310949Y0179611D02*
X0310655Y0179611D01*
X0308686Y0180301D02*
X0308686Y0177841D01*
X0308686Y0180301D02*
X0308980Y0180301D01*
X0308980Y0177841D01*
X0308686Y0177841D01*
X0308686Y0178726D02*
X0308980Y0178726D01*
X0308980Y0179611D02*
X0308686Y0179611D01*
X0306718Y0180301D02*
X0306718Y0177841D01*
X0306718Y0180301D02*
X0307012Y0180301D01*
X0307012Y0177841D01*
X0306718Y0177841D01*
X0306718Y0178726D02*
X0307012Y0178726D01*
X0307012Y0179611D02*
X0306718Y0179611D01*
X0304749Y0180301D02*
X0304749Y0177841D01*
X0304749Y0180301D02*
X0305043Y0180301D01*
X0305043Y0177841D01*
X0304749Y0177841D01*
X0304749Y0178726D02*
X0305043Y0178726D01*
X0305043Y0179611D02*
X0304749Y0179611D01*
X0402666Y0181884D02*
X0405126Y0181884D01*
X0402666Y0181884D02*
X0402666Y0182178D01*
X0405126Y0182178D01*
X0405126Y0181884D01*
X0405126Y0183853D02*
X0402666Y0183853D01*
X0402666Y0184147D01*
X0405126Y0184147D01*
X0405126Y0183853D01*
X0405126Y0185822D02*
X0402666Y0185822D01*
X0402666Y0186116D01*
X0405126Y0186116D01*
X0405126Y0185822D01*
X0405126Y0187790D02*
X0402666Y0187790D01*
X0402666Y0188084D01*
X0405126Y0188084D01*
X0405126Y0187790D01*
X0407043Y0189668D02*
X0407043Y0192128D01*
X0407043Y0189668D02*
X0406749Y0189668D01*
X0406749Y0192128D01*
X0407043Y0192128D01*
X0407043Y0190553D02*
X0406749Y0190553D01*
X0406749Y0191438D02*
X0407043Y0191438D01*
X0409012Y0192128D02*
X0409012Y0189668D01*
X0408718Y0189668D01*
X0408718Y0192128D01*
X0409012Y0192128D01*
X0409012Y0190553D02*
X0408718Y0190553D01*
X0408718Y0191438D02*
X0409012Y0191438D01*
X0410980Y0192128D02*
X0410980Y0189668D01*
X0410686Y0189668D01*
X0410686Y0192128D01*
X0410980Y0192128D01*
X0410980Y0190553D02*
X0410686Y0190553D01*
X0410686Y0191438D02*
X0410980Y0191438D01*
X0412949Y0192128D02*
X0412949Y0189668D01*
X0412655Y0189668D01*
X0412655Y0192128D01*
X0412949Y0192128D01*
X0412949Y0190553D02*
X0412655Y0190553D01*
X0412655Y0191438D02*
X0412949Y0191438D01*
X0414493Y0188045D02*
X0416953Y0188045D01*
X0416953Y0187751D01*
X0414493Y0187751D01*
X0414493Y0188045D01*
X0414493Y0186076D02*
X0416953Y0186076D01*
X0416953Y0185782D01*
X0414493Y0185782D01*
X0414493Y0186076D01*
X0414493Y0184108D02*
X0416953Y0184108D01*
X0416953Y0183814D01*
X0414493Y0183814D01*
X0414493Y0184108D01*
X0414493Y0182139D02*
X0416953Y0182139D01*
X0416953Y0181845D01*
X0414493Y0181845D01*
X0414493Y0182139D01*
X0412655Y0180301D02*
X0412655Y0177841D01*
X0412655Y0180301D02*
X0412949Y0180301D01*
X0412949Y0177841D01*
X0412655Y0177841D01*
X0412655Y0178726D02*
X0412949Y0178726D01*
X0412949Y0179611D02*
X0412655Y0179611D01*
X0410686Y0180301D02*
X0410686Y0177841D01*
X0410686Y0180301D02*
X0410980Y0180301D01*
X0410980Y0177841D01*
X0410686Y0177841D01*
X0410686Y0178726D02*
X0410980Y0178726D01*
X0410980Y0179611D02*
X0410686Y0179611D01*
X0408718Y0180301D02*
X0408718Y0177841D01*
X0408718Y0180301D02*
X0409012Y0180301D01*
X0409012Y0177841D01*
X0408718Y0177841D01*
X0408718Y0178726D02*
X0409012Y0178726D01*
X0409012Y0179611D02*
X0408718Y0179611D01*
X0406749Y0180301D02*
X0406749Y0177841D01*
X0406749Y0180301D02*
X0407043Y0180301D01*
X0407043Y0177841D01*
X0406749Y0177841D01*
X0406749Y0178726D02*
X0407043Y0178726D01*
X0407043Y0179611D02*
X0406749Y0179611D01*
X0406749Y0279841D02*
X0406749Y0282301D01*
X0407043Y0282301D01*
X0407043Y0279841D01*
X0406749Y0279841D01*
X0406749Y0280726D02*
X0407043Y0280726D01*
X0407043Y0281611D02*
X0406749Y0281611D01*
X0408718Y0282301D02*
X0408718Y0279841D01*
X0408718Y0282301D02*
X0409012Y0282301D01*
X0409012Y0279841D01*
X0408718Y0279841D01*
X0408718Y0280726D02*
X0409012Y0280726D01*
X0409012Y0281611D02*
X0408718Y0281611D01*
X0410686Y0282301D02*
X0410686Y0279841D01*
X0410686Y0282301D02*
X0410980Y0282301D01*
X0410980Y0279841D01*
X0410686Y0279841D01*
X0410686Y0280726D02*
X0410980Y0280726D01*
X0410980Y0281611D02*
X0410686Y0281611D01*
X0412655Y0282301D02*
X0412655Y0279841D01*
X0412655Y0282301D02*
X0412949Y0282301D01*
X0412949Y0279841D01*
X0412655Y0279841D01*
X0412655Y0280726D02*
X0412949Y0280726D01*
X0412949Y0281611D02*
X0412655Y0281611D01*
X0414493Y0284139D02*
X0416953Y0284139D01*
X0416953Y0283845D01*
X0414493Y0283845D01*
X0414493Y0284139D01*
X0414493Y0286108D02*
X0416953Y0286108D01*
X0416953Y0285814D01*
X0414493Y0285814D01*
X0414493Y0286108D01*
X0414493Y0288076D02*
X0416953Y0288076D01*
X0416953Y0287782D01*
X0414493Y0287782D01*
X0414493Y0288076D01*
X0414493Y0290045D02*
X0416953Y0290045D01*
X0416953Y0289751D01*
X0414493Y0289751D01*
X0414493Y0290045D01*
X0412949Y0291668D02*
X0412949Y0294128D01*
X0412949Y0291668D02*
X0412655Y0291668D01*
X0412655Y0294128D01*
X0412949Y0294128D01*
X0412949Y0292553D02*
X0412655Y0292553D01*
X0412655Y0293438D02*
X0412949Y0293438D01*
X0410980Y0294128D02*
X0410980Y0291668D01*
X0410686Y0291668D01*
X0410686Y0294128D01*
X0410980Y0294128D01*
X0410980Y0292553D02*
X0410686Y0292553D01*
X0410686Y0293438D02*
X0410980Y0293438D01*
X0409012Y0294128D02*
X0409012Y0291668D01*
X0408718Y0291668D01*
X0408718Y0294128D01*
X0409012Y0294128D01*
X0409012Y0292553D02*
X0408718Y0292553D01*
X0408718Y0293438D02*
X0409012Y0293438D01*
X0407043Y0294128D02*
X0407043Y0291668D01*
X0406749Y0291668D01*
X0406749Y0294128D01*
X0407043Y0294128D01*
X0407043Y0292553D02*
X0406749Y0292553D01*
X0406749Y0293438D02*
X0407043Y0293438D01*
X0405126Y0289790D02*
X0402666Y0289790D01*
X0402666Y0290084D01*
X0405126Y0290084D01*
X0405126Y0289790D01*
X0405126Y0287822D02*
X0402666Y0287822D01*
X0402666Y0288116D01*
X0405126Y0288116D01*
X0405126Y0287822D01*
X0405126Y0285853D02*
X0402666Y0285853D01*
X0402666Y0286147D01*
X0405126Y0286147D01*
X0405126Y0285853D01*
X0405126Y0283884D02*
X0402666Y0283884D01*
X0402666Y0284178D01*
X0405126Y0284178D01*
X0405126Y0283884D01*
X0314953Y0284139D02*
X0312493Y0284139D01*
X0314953Y0284139D02*
X0314953Y0283845D01*
X0312493Y0283845D01*
X0312493Y0284139D01*
X0312493Y0286108D02*
X0314953Y0286108D01*
X0314953Y0285814D01*
X0312493Y0285814D01*
X0312493Y0286108D01*
X0312493Y0288076D02*
X0314953Y0288076D01*
X0314953Y0287782D01*
X0312493Y0287782D01*
X0312493Y0288076D01*
X0312493Y0290045D02*
X0314953Y0290045D01*
X0314953Y0289751D01*
X0312493Y0289751D01*
X0312493Y0290045D01*
X0310949Y0291668D02*
X0310949Y0294128D01*
X0310949Y0291668D02*
X0310655Y0291668D01*
X0310655Y0294128D01*
X0310949Y0294128D01*
X0310949Y0292553D02*
X0310655Y0292553D01*
X0310655Y0293438D02*
X0310949Y0293438D01*
X0308980Y0294128D02*
X0308980Y0291668D01*
X0308686Y0291668D01*
X0308686Y0294128D01*
X0308980Y0294128D01*
X0308980Y0292553D02*
X0308686Y0292553D01*
X0308686Y0293438D02*
X0308980Y0293438D01*
X0307012Y0294128D02*
X0307012Y0291668D01*
X0306718Y0291668D01*
X0306718Y0294128D01*
X0307012Y0294128D01*
X0307012Y0292553D02*
X0306718Y0292553D01*
X0306718Y0293438D02*
X0307012Y0293438D01*
X0305043Y0294128D02*
X0305043Y0291668D01*
X0304749Y0291668D01*
X0304749Y0294128D01*
X0305043Y0294128D01*
X0305043Y0292553D02*
X0304749Y0292553D01*
X0304749Y0293438D02*
X0305043Y0293438D01*
X0303126Y0289790D02*
X0300666Y0289790D01*
X0300666Y0290084D01*
X0303126Y0290084D01*
X0303126Y0289790D01*
X0303126Y0287822D02*
X0300666Y0287822D01*
X0300666Y0288116D01*
X0303126Y0288116D01*
X0303126Y0287822D01*
X0303126Y0285853D02*
X0300666Y0285853D01*
X0300666Y0286147D01*
X0303126Y0286147D01*
X0303126Y0285853D01*
X0303126Y0283884D02*
X0300666Y0283884D01*
X0300666Y0284178D01*
X0303126Y0284178D01*
X0303126Y0283884D01*
X0304749Y0282301D02*
X0304749Y0279841D01*
X0304749Y0282301D02*
X0305043Y0282301D01*
X0305043Y0279841D01*
X0304749Y0279841D01*
X0304749Y0280726D02*
X0305043Y0280726D01*
X0305043Y0281611D02*
X0304749Y0281611D01*
X0306718Y0282301D02*
X0306718Y0279841D01*
X0306718Y0282301D02*
X0307012Y0282301D01*
X0307012Y0279841D01*
X0306718Y0279841D01*
X0306718Y0280726D02*
X0307012Y0280726D01*
X0307012Y0281611D02*
X0306718Y0281611D01*
X0308686Y0282301D02*
X0308686Y0279841D01*
X0308686Y0282301D02*
X0308980Y0282301D01*
X0308980Y0279841D01*
X0308686Y0279841D01*
X0308686Y0280726D02*
X0308980Y0280726D01*
X0308980Y0281611D02*
X0308686Y0281611D01*
X0310655Y0282301D02*
X0310655Y0279841D01*
X0310655Y0282301D02*
X0310949Y0282301D01*
X0310949Y0279841D01*
X0310655Y0279841D01*
X0310655Y0280726D02*
X0310949Y0280726D01*
X0310949Y0281611D02*
X0310655Y0281611D01*
X0212953Y0284139D02*
X0210493Y0284139D01*
X0212953Y0284139D02*
X0212953Y0283845D01*
X0210493Y0283845D01*
X0210493Y0284139D01*
X0210493Y0286108D02*
X0212953Y0286108D01*
X0212953Y0285814D01*
X0210493Y0285814D01*
X0210493Y0286108D01*
X0210493Y0288076D02*
X0212953Y0288076D01*
X0212953Y0287782D01*
X0210493Y0287782D01*
X0210493Y0288076D01*
X0210493Y0290045D02*
X0212953Y0290045D01*
X0212953Y0289751D01*
X0210493Y0289751D01*
X0210493Y0290045D01*
X0208949Y0291668D02*
X0208949Y0294128D01*
X0208949Y0291668D02*
X0208655Y0291668D01*
X0208655Y0294128D01*
X0208949Y0294128D01*
X0208949Y0292553D02*
X0208655Y0292553D01*
X0208655Y0293438D02*
X0208949Y0293438D01*
X0206980Y0294128D02*
X0206980Y0291668D01*
X0206686Y0291668D01*
X0206686Y0294128D01*
X0206980Y0294128D01*
X0206980Y0292553D02*
X0206686Y0292553D01*
X0206686Y0293438D02*
X0206980Y0293438D01*
X0205012Y0294128D02*
X0205012Y0291668D01*
X0204718Y0291668D01*
X0204718Y0294128D01*
X0205012Y0294128D01*
X0205012Y0292553D02*
X0204718Y0292553D01*
X0204718Y0293438D02*
X0205012Y0293438D01*
X0203043Y0294128D02*
X0203043Y0291668D01*
X0202749Y0291668D01*
X0202749Y0294128D01*
X0203043Y0294128D01*
X0203043Y0292553D02*
X0202749Y0292553D01*
X0202749Y0293438D02*
X0203043Y0293438D01*
X0201126Y0289790D02*
X0198666Y0289790D01*
X0198666Y0290084D01*
X0201126Y0290084D01*
X0201126Y0289790D01*
X0201126Y0287822D02*
X0198666Y0287822D01*
X0198666Y0288116D01*
X0201126Y0288116D01*
X0201126Y0287822D01*
X0201126Y0285853D02*
X0198666Y0285853D01*
X0198666Y0286147D01*
X0201126Y0286147D01*
X0201126Y0285853D01*
X0201126Y0283884D02*
X0198666Y0283884D01*
X0198666Y0284178D01*
X0201126Y0284178D01*
X0201126Y0283884D01*
X0202749Y0282301D02*
X0202749Y0279841D01*
X0202749Y0282301D02*
X0203043Y0282301D01*
X0203043Y0279841D01*
X0202749Y0279841D01*
X0202749Y0280726D02*
X0203043Y0280726D01*
X0203043Y0281611D02*
X0202749Y0281611D01*
X0204718Y0282301D02*
X0204718Y0279841D01*
X0204718Y0282301D02*
X0205012Y0282301D01*
X0205012Y0279841D01*
X0204718Y0279841D01*
X0204718Y0280726D02*
X0205012Y0280726D01*
X0205012Y0281611D02*
X0204718Y0281611D01*
X0206686Y0282301D02*
X0206686Y0279841D01*
X0206686Y0282301D02*
X0206980Y0282301D01*
X0206980Y0279841D01*
X0206686Y0279841D01*
X0206686Y0280726D02*
X0206980Y0280726D01*
X0206980Y0281611D02*
X0206686Y0281611D01*
X0208655Y0282301D02*
X0208655Y0279841D01*
X0208655Y0282301D02*
X0208949Y0282301D01*
X0208949Y0279841D01*
X0208655Y0279841D01*
X0208655Y0280726D02*
X0208949Y0280726D01*
X0208949Y0281611D02*
X0208655Y0281611D01*
X0208655Y0381841D02*
X0208655Y0384301D01*
X0208949Y0384301D01*
X0208949Y0381841D01*
X0208655Y0381841D01*
X0208655Y0382726D02*
X0208949Y0382726D01*
X0208949Y0383611D02*
X0208655Y0383611D01*
X0206686Y0384301D02*
X0206686Y0381841D01*
X0206686Y0384301D02*
X0206980Y0384301D01*
X0206980Y0381841D01*
X0206686Y0381841D01*
X0206686Y0382726D02*
X0206980Y0382726D01*
X0206980Y0383611D02*
X0206686Y0383611D01*
X0204718Y0384301D02*
X0204718Y0381841D01*
X0204718Y0384301D02*
X0205012Y0384301D01*
X0205012Y0381841D01*
X0204718Y0381841D01*
X0204718Y0382726D02*
X0205012Y0382726D01*
X0205012Y0383611D02*
X0204718Y0383611D01*
X0202749Y0384301D02*
X0202749Y0381841D01*
X0202749Y0384301D02*
X0203043Y0384301D01*
X0203043Y0381841D01*
X0202749Y0381841D01*
X0202749Y0382726D02*
X0203043Y0382726D01*
X0203043Y0383611D02*
X0202749Y0383611D01*
X0201126Y0385884D02*
X0198666Y0385884D01*
X0198666Y0386178D01*
X0201126Y0386178D01*
X0201126Y0385884D01*
X0201126Y0387853D02*
X0198666Y0387853D01*
X0198666Y0388147D01*
X0201126Y0388147D01*
X0201126Y0387853D01*
X0201126Y0389822D02*
X0198666Y0389822D01*
X0198666Y0390116D01*
X0201126Y0390116D01*
X0201126Y0389822D01*
X0201126Y0391790D02*
X0198666Y0391790D01*
X0198666Y0392084D01*
X0201126Y0392084D01*
X0201126Y0391790D01*
X0203043Y0393668D02*
X0203043Y0396128D01*
X0203043Y0393668D02*
X0202749Y0393668D01*
X0202749Y0396128D01*
X0203043Y0396128D01*
X0203043Y0394553D02*
X0202749Y0394553D01*
X0202749Y0395438D02*
X0203043Y0395438D01*
X0205012Y0396128D02*
X0205012Y0393668D01*
X0204718Y0393668D01*
X0204718Y0396128D01*
X0205012Y0396128D01*
X0205012Y0394553D02*
X0204718Y0394553D01*
X0204718Y0395438D02*
X0205012Y0395438D01*
X0206980Y0396128D02*
X0206980Y0393668D01*
X0206686Y0393668D01*
X0206686Y0396128D01*
X0206980Y0396128D01*
X0206980Y0394553D02*
X0206686Y0394553D01*
X0206686Y0395438D02*
X0206980Y0395438D01*
X0208949Y0396128D02*
X0208949Y0393668D01*
X0208655Y0393668D01*
X0208655Y0396128D01*
X0208949Y0396128D01*
X0208949Y0394553D02*
X0208655Y0394553D01*
X0208655Y0395438D02*
X0208949Y0395438D01*
X0210493Y0392045D02*
X0212953Y0392045D01*
X0212953Y0391751D01*
X0210493Y0391751D01*
X0210493Y0392045D01*
X0210493Y0390076D02*
X0212953Y0390076D01*
X0212953Y0389782D01*
X0210493Y0389782D01*
X0210493Y0390076D01*
X0210493Y0388108D02*
X0212953Y0388108D01*
X0212953Y0387814D01*
X0210493Y0387814D01*
X0210493Y0388108D01*
X0210493Y0386139D02*
X0212953Y0386139D01*
X0212953Y0385845D01*
X0210493Y0385845D01*
X0210493Y0386139D01*
X0300666Y0385884D02*
X0303126Y0385884D01*
X0300666Y0385884D02*
X0300666Y0386178D01*
X0303126Y0386178D01*
X0303126Y0385884D01*
X0303126Y0387853D02*
X0300666Y0387853D01*
X0300666Y0388147D01*
X0303126Y0388147D01*
X0303126Y0387853D01*
X0303126Y0389822D02*
X0300666Y0389822D01*
X0300666Y0390116D01*
X0303126Y0390116D01*
X0303126Y0389822D01*
X0303126Y0391790D02*
X0300666Y0391790D01*
X0300666Y0392084D01*
X0303126Y0392084D01*
X0303126Y0391790D01*
X0305043Y0393668D02*
X0305043Y0396128D01*
X0305043Y0393668D02*
X0304749Y0393668D01*
X0304749Y0396128D01*
X0305043Y0396128D01*
X0305043Y0394553D02*
X0304749Y0394553D01*
X0304749Y0395438D02*
X0305043Y0395438D01*
X0307012Y0396128D02*
X0307012Y0393668D01*
X0306718Y0393668D01*
X0306718Y0396128D01*
X0307012Y0396128D01*
X0307012Y0394553D02*
X0306718Y0394553D01*
X0306718Y0395438D02*
X0307012Y0395438D01*
X0308980Y0396128D02*
X0308980Y0393668D01*
X0308686Y0393668D01*
X0308686Y0396128D01*
X0308980Y0396128D01*
X0308980Y0394553D02*
X0308686Y0394553D01*
X0308686Y0395438D02*
X0308980Y0395438D01*
X0310949Y0396128D02*
X0310949Y0393668D01*
X0310655Y0393668D01*
X0310655Y0396128D01*
X0310949Y0396128D01*
X0310949Y0394553D02*
X0310655Y0394553D01*
X0310655Y0395438D02*
X0310949Y0395438D01*
X0312493Y0392045D02*
X0314953Y0392045D01*
X0314953Y0391751D01*
X0312493Y0391751D01*
X0312493Y0392045D01*
X0312493Y0390076D02*
X0314953Y0390076D01*
X0314953Y0389782D01*
X0312493Y0389782D01*
X0312493Y0390076D01*
X0312493Y0388108D02*
X0314953Y0388108D01*
X0314953Y0387814D01*
X0312493Y0387814D01*
X0312493Y0388108D01*
X0312493Y0386139D02*
X0314953Y0386139D01*
X0314953Y0385845D01*
X0312493Y0385845D01*
X0312493Y0386139D01*
X0310655Y0384301D02*
X0310655Y0381841D01*
X0310655Y0384301D02*
X0310949Y0384301D01*
X0310949Y0381841D01*
X0310655Y0381841D01*
X0310655Y0382726D02*
X0310949Y0382726D01*
X0310949Y0383611D02*
X0310655Y0383611D01*
X0308686Y0384301D02*
X0308686Y0381841D01*
X0308686Y0384301D02*
X0308980Y0384301D01*
X0308980Y0381841D01*
X0308686Y0381841D01*
X0308686Y0382726D02*
X0308980Y0382726D01*
X0308980Y0383611D02*
X0308686Y0383611D01*
X0306718Y0384301D02*
X0306718Y0381841D01*
X0306718Y0384301D02*
X0307012Y0384301D01*
X0307012Y0381841D01*
X0306718Y0381841D01*
X0306718Y0382726D02*
X0307012Y0382726D01*
X0307012Y0383611D02*
X0306718Y0383611D01*
X0304749Y0384301D02*
X0304749Y0381841D01*
X0304749Y0384301D02*
X0305043Y0384301D01*
X0305043Y0381841D01*
X0304749Y0381841D01*
X0304749Y0382726D02*
X0305043Y0382726D01*
X0305043Y0383611D02*
X0304749Y0383611D01*
X0402666Y0385884D02*
X0405126Y0385884D01*
X0402666Y0385884D02*
X0402666Y0386178D01*
X0405126Y0386178D01*
X0405126Y0385884D01*
X0405126Y0387853D02*
X0402666Y0387853D01*
X0402666Y0388147D01*
X0405126Y0388147D01*
X0405126Y0387853D01*
X0405126Y0389822D02*
X0402666Y0389822D01*
X0402666Y0390116D01*
X0405126Y0390116D01*
X0405126Y0389822D01*
X0405126Y0391790D02*
X0402666Y0391790D01*
X0402666Y0392084D01*
X0405126Y0392084D01*
X0405126Y0391790D01*
X0407043Y0393668D02*
X0407043Y0396128D01*
X0407043Y0393668D02*
X0406749Y0393668D01*
X0406749Y0396128D01*
X0407043Y0396128D01*
X0407043Y0394553D02*
X0406749Y0394553D01*
X0406749Y0395438D02*
X0407043Y0395438D01*
X0409012Y0396128D02*
X0409012Y0393668D01*
X0408718Y0393668D01*
X0408718Y0396128D01*
X0409012Y0396128D01*
X0409012Y0394553D02*
X0408718Y0394553D01*
X0408718Y0395438D02*
X0409012Y0395438D01*
X0410980Y0396128D02*
X0410980Y0393668D01*
X0410686Y0393668D01*
X0410686Y0396128D01*
X0410980Y0396128D01*
X0410980Y0394553D02*
X0410686Y0394553D01*
X0410686Y0395438D02*
X0410980Y0395438D01*
X0412949Y0396128D02*
X0412949Y0393668D01*
X0412655Y0393668D01*
X0412655Y0396128D01*
X0412949Y0396128D01*
X0412949Y0394553D02*
X0412655Y0394553D01*
X0412655Y0395438D02*
X0412949Y0395438D01*
X0414493Y0392045D02*
X0416953Y0392045D01*
X0416953Y0391751D01*
X0414493Y0391751D01*
X0414493Y0392045D01*
X0414493Y0390076D02*
X0416953Y0390076D01*
X0416953Y0389782D01*
X0414493Y0389782D01*
X0414493Y0390076D01*
X0414493Y0388108D02*
X0416953Y0388108D01*
X0416953Y0387814D01*
X0414493Y0387814D01*
X0414493Y0388108D01*
X0414493Y0386139D02*
X0416953Y0386139D01*
X0416953Y0385845D01*
X0414493Y0385845D01*
X0414493Y0386139D01*
X0412655Y0384301D02*
X0412655Y0381841D01*
X0412655Y0384301D02*
X0412949Y0384301D01*
X0412949Y0381841D01*
X0412655Y0381841D01*
X0412655Y0382726D02*
X0412949Y0382726D01*
X0412949Y0383611D02*
X0412655Y0383611D01*
X0410686Y0384301D02*
X0410686Y0381841D01*
X0410686Y0384301D02*
X0410980Y0384301D01*
X0410980Y0381841D01*
X0410686Y0381841D01*
X0410686Y0382726D02*
X0410980Y0382726D01*
X0410980Y0383611D02*
X0410686Y0383611D01*
X0408718Y0384301D02*
X0408718Y0381841D01*
X0408718Y0384301D02*
X0409012Y0384301D01*
X0409012Y0381841D01*
X0408718Y0381841D01*
X0408718Y0382726D02*
X0409012Y0382726D01*
X0409012Y0383611D02*
X0408718Y0383611D01*
X0406749Y0384301D02*
X0406749Y0381841D01*
X0406749Y0384301D02*
X0407043Y0384301D01*
X0407043Y0381841D01*
X0406749Y0381841D01*
X0406749Y0382726D02*
X0407043Y0382726D01*
X0407043Y0383611D02*
X0406749Y0383611D01*
D11*
X0187487Y0169000D03*
X0194180Y0169000D03*
X0217487Y0169000D03*
X0224180Y0169000D03*
X0224180Y0200000D03*
X0217487Y0200000D03*
X0194180Y0200000D03*
X0187487Y0200000D03*
X0187487Y0271000D03*
X0194180Y0271000D03*
X0217487Y0271000D03*
X0224180Y0271000D03*
X0224180Y0302000D03*
X0217487Y0302000D03*
X0194180Y0302000D03*
X0187487Y0302000D03*
X0187487Y0373000D03*
X0194180Y0373000D03*
X0217487Y0373000D03*
X0224180Y0373000D03*
X0224180Y0404000D03*
X0217487Y0404000D03*
X0194180Y0404000D03*
X0187487Y0404000D03*
X0289487Y0404000D03*
X0296180Y0404000D03*
X0319487Y0404000D03*
X0326180Y0404000D03*
X0326180Y0373000D03*
X0319487Y0373000D03*
X0296180Y0373000D03*
X0289487Y0373000D03*
X0289487Y0302000D03*
X0296180Y0302000D03*
X0319487Y0302000D03*
X0326180Y0302000D03*
X0326180Y0271000D03*
X0319487Y0271000D03*
X0296180Y0271000D03*
X0289487Y0271000D03*
X0289487Y0200000D03*
X0296180Y0200000D03*
X0319487Y0200000D03*
X0326180Y0200000D03*
X0326180Y0169000D03*
X0319487Y0169000D03*
X0296180Y0169000D03*
X0289487Y0169000D03*
X0391487Y0169000D03*
X0398180Y0169000D03*
X0421487Y0169000D03*
X0428180Y0169000D03*
X0428180Y0200000D03*
X0421487Y0200000D03*
X0398180Y0200000D03*
X0391487Y0200000D03*
X0391487Y0271000D03*
X0398180Y0271000D03*
X0421487Y0271000D03*
X0428180Y0271000D03*
X0428180Y0302000D03*
X0421487Y0302000D03*
X0398180Y0302000D03*
X0391487Y0302000D03*
X0391487Y0373000D03*
X0398180Y0373000D03*
X0421487Y0373000D03*
X0428180Y0373000D03*
X0428180Y0404000D03*
X0421487Y0404000D03*
X0398180Y0404000D03*
X0391487Y0404000D03*
D12*
X0398810Y0433469D03*
X0420857Y0433469D03*
X0420857Y0344531D03*
X0420857Y0331469D03*
X0398810Y0331469D03*
X0398810Y0344531D03*
X0318857Y0344531D03*
X0318857Y0331469D03*
X0296810Y0331469D03*
X0296810Y0344531D03*
X0216857Y0344531D03*
X0216857Y0331469D03*
X0194810Y0331469D03*
X0194810Y0344531D03*
X0194810Y0433469D03*
X0216857Y0433469D03*
X0296810Y0433469D03*
X0318857Y0433469D03*
X0318857Y0242531D03*
X0318857Y0229469D03*
X0296810Y0229469D03*
X0296810Y0242531D03*
X0216857Y0242531D03*
X0216857Y0229469D03*
X0194810Y0229469D03*
X0194810Y0242531D03*
X0194810Y0140531D03*
X0216857Y0140531D03*
X0296810Y0140531D03*
X0318857Y0140531D03*
X0398810Y0140531D03*
X0420857Y0140531D03*
X0420857Y0229469D03*
X0420857Y0242531D03*
X0398810Y0242531D03*
X0398810Y0229469D03*
D13*
X0403928Y0215000D03*
X0407865Y0215000D03*
X0411802Y0215000D03*
X0415739Y0215000D03*
X0415739Y0257000D03*
X0411802Y0257000D03*
X0407865Y0257000D03*
X0403928Y0257000D03*
X0403928Y0317000D03*
X0407865Y0317000D03*
X0411802Y0317000D03*
X0415739Y0317000D03*
X0415739Y0359000D03*
X0411802Y0359000D03*
X0407865Y0359000D03*
X0403928Y0359000D03*
X0403928Y0419000D03*
X0407865Y0419000D03*
X0411802Y0419000D03*
X0415739Y0419000D03*
X0313739Y0419000D03*
X0309802Y0419000D03*
X0305865Y0419000D03*
X0301928Y0419000D03*
X0301928Y0359000D03*
X0305865Y0359000D03*
X0309802Y0359000D03*
X0313739Y0359000D03*
X0313739Y0317000D03*
X0309802Y0317000D03*
X0305865Y0317000D03*
X0301928Y0317000D03*
X0301928Y0257000D03*
X0305865Y0257000D03*
X0309802Y0257000D03*
X0313739Y0257000D03*
X0313739Y0215000D03*
X0309802Y0215000D03*
X0305865Y0215000D03*
X0301928Y0215000D03*
X0301928Y0155000D03*
X0305865Y0155000D03*
X0309802Y0155000D03*
X0313739Y0155000D03*
X0403928Y0155000D03*
X0407865Y0155000D03*
X0411802Y0155000D03*
X0415739Y0155000D03*
X0211739Y0155000D03*
X0207802Y0155000D03*
X0203865Y0155000D03*
X0199928Y0155000D03*
X0199928Y0215000D03*
X0203865Y0215000D03*
X0207802Y0215000D03*
X0211739Y0215000D03*
X0211739Y0257000D03*
X0207802Y0257000D03*
X0203865Y0257000D03*
X0199928Y0257000D03*
X0199928Y0317000D03*
X0203865Y0317000D03*
X0207802Y0317000D03*
X0211739Y0317000D03*
X0211739Y0359000D03*
X0207802Y0359000D03*
X0203865Y0359000D03*
X0199928Y0359000D03*
X0199928Y0419000D03*
X0203865Y0419000D03*
X0207802Y0419000D03*
X0211739Y0419000D03*
M02*
