%
M48
M72
T01C0.0150
T02C0.0200
T03C0.0400
T04C0.1300
%
T01
X18033Y16500
X19233Y16100
X20533Y16900
X21233Y17300
X21683Y18300
X22083Y18000
X21933Y19150
X20783Y19850
X21033Y20250
X20383Y20900
X19383Y21300
X18733Y20900
X19883Y19500
X19283Y18000
X19583Y17400
X18583Y18050
X20783Y16100
X23383Y16400
X23183Y19100
X23633Y19850
X21583Y22000
X20783Y26300
X20533Y27100
X21233Y27500
X21683Y28500
X22083Y28200
X23183Y29300
X23633Y30050
X21933Y29350
X20783Y30050
X21033Y30450
X20383Y31100
X19383Y31500
X18733Y31100
X19883Y29700
X19283Y28200
X19583Y27600
X18583Y28250
X18033Y26700
X19233Y26300
X23383Y26600
X28233Y26700
X29433Y26300
X30733Y27100
X31433Y27500
X32283Y28200
X31883Y28500
X32133Y29350
X30983Y30050
X31233Y30450
X30583Y31100
X29583Y31500
X28933Y31100
X30083Y29700
X29483Y28200
X29783Y27600
X28783Y28250
X30983Y26300
X33583Y26600
X33383Y29300
X33833Y30050
X31783Y32200
X30983Y36500
X30733Y37300
X31433Y37700
X32283Y38400
X31883Y38700
X32133Y39550
X30983Y40250
X31233Y40650
X30583Y41300
X29583Y41700
X28933Y41300
X30083Y39900
X29483Y38400
X29783Y37800
X28783Y38450
X28233Y36900
X29433Y36500
X33583Y36800
X33383Y39500
X33833Y40250
X31783Y42400
X38433Y36900
X39633Y36500
X39983Y37800
X39683Y38400
X38983Y38450
X40283Y39900
X41183Y40250
X41433Y40650
X40783Y41300
X39783Y41700
X39133Y41300
X41983Y42400
X44033Y40250
X43583Y39500
X42333Y39550
X42083Y38700
X42483Y38400
X41633Y37700
X40933Y37300
X41183Y36500
X43783Y36800
X41983Y32200
X40783Y31100
X41433Y30450
X41183Y30050
X40283Y29700
X39683Y28200
X39983Y27600
X40933Y27100
X41633Y27500
X42083Y28500
X42483Y28200
X43583Y29300
X44033Y30050
X42333Y29350
X39783Y31500
X39133Y31100
X38983Y28250
X38433Y26700
X39633Y26300
X41183Y26300
X43783Y26600
X41983Y22000
X40783Y20900
X41433Y20250
X41183Y19850
X40283Y19500
X39683Y18000
X39983Y17400
X40933Y16900
X41633Y17300
X42083Y18300
X42483Y18000
X42333Y19150
X43583Y19100
X44033Y19850
X43783Y16400
X41183Y16100
X39633Y16100
X38433Y16500
X38983Y18050
X39133Y20900
X39783Y21300
X33833Y19850
X33383Y19100
X32133Y19150
X31883Y18300
X32283Y18000
X31433Y17300
X30733Y16900
X30983Y16100
X29433Y16100
X28233Y16500
X28783Y18050
X29483Y18000
X29783Y17400
X30083Y19500
X30983Y19850
X31233Y20250
X30583Y20900
X29583Y21300
X28933Y20900
X31783Y22000
X33583Y16400
X21583Y32200
X20783Y36500
X20533Y37300
X21233Y37700
X22083Y38400
X21683Y38700
X21933Y39550
X20783Y40250
X21033Y40650
X20383Y41300
X19383Y41700
X18733Y41300
X19883Y39900
X19283Y38400
X19583Y37800
X18583Y38450
X18033Y36900
X19233Y36500
X23383Y36800
X23183Y39500
X23633Y40250
X21583Y42400
T02
X19283Y39600
X29483Y39600
X39683Y39600
X39683Y29400
X29483Y29400
X19283Y29400
X19283Y19200
X29483Y19200
X39683Y19200
T03
X16083Y15500
X16083Y16500
X16083Y17500
X16083Y18500
X16083Y19500
X16083Y20500
X16083Y25700
X16083Y26700
X16083Y27700
X16083Y28700
X16083Y29700
X16083Y30700
X16083Y35900
X16083Y36900
X16083Y37900
X16083Y38900
X16083Y39900
X16083Y40900
X25083Y40900
X25083Y39900
X25083Y38900
X25083Y37900
X25083Y36900
X25083Y35900
X26283Y35900
X26283Y36900
X26283Y37900
X26283Y38900
X26283Y39900
X26283Y40900
X35283Y40900
X35283Y39900
X35283Y38900
X35283Y37900
X35283Y36900
X35283Y35900
X36483Y35900
X36483Y36900
X36483Y37900
X36483Y38900
X36483Y39900
X36483Y40900
X45483Y40900
X45483Y39900
X45483Y38900
X45483Y37900
X45483Y36900
X45483Y35900
X45483Y30700
X45483Y29700
X45483Y28700
X45483Y27700
X45483Y26700
X45483Y25700
X45483Y20500
X45483Y19500
X45483Y18500
X45483Y17500
X45483Y16500
X45483Y15500
X36483Y15500
X36483Y16500
X36483Y17500
X36483Y18500
X36483Y19500
X36483Y20500
X35283Y20500
X35283Y19500
X35283Y18500
X35283Y17500
X35283Y16500
X35283Y15500
X26283Y15500
X26283Y16500
X26283Y17500
X26283Y18500
X26283Y19500
X25083Y19500
X25083Y18500
X25083Y17500
X25083Y16500
X25083Y15500
X25083Y20500
X26283Y20500
X26283Y25700
X26283Y26700
X26283Y27700
X26283Y28700
X26283Y29700
X26283Y30700
X25083Y30700
X25083Y29700
X25083Y28700
X25083Y27700
X25083Y26700
X25083Y25700
X35283Y25700
X35283Y26700
X35283Y27700
X35283Y28700
X35283Y29700
X35283Y30700
X36483Y30700
X36483Y29700
X36483Y28700
X36483Y27700
X36483Y26700
X36483Y25700
T04
X36983Y22500
X34783Y22500
X26783Y22500
X24583Y22500
X16583Y22500
X16583Y32700
X24583Y32700
X26783Y32700
X34783Y32700
X36983Y32700
X44983Y32700
X44983Y22500
X44983Y42900
X36983Y42900
X34783Y42900
X26783Y42900
X24583Y42900
X16583Y42900
M30
