G75*
%MOIN*%
%OFA0B0*%
%FSLAX25Y25*%
%IPPOS*%
%LPD*%
%AMOC8*
5,1,8,0,0,1.08239X$1,22.5*
%
%ADD10C,0.00800*%
%ADD11C,0.01000*%
%ADD12C,0.01100*%
%ADD13C,0.00000*%
D10*
X0155833Y0135000D02*
X0155833Y0235000D01*
X0255833Y0235000D01*
X0255833Y0135000D01*
X0155833Y0135000D01*
X0155833Y0237000D02*
X0155833Y0337000D01*
X0255833Y0337000D01*
X0255833Y0237000D01*
X0155833Y0237000D01*
X0257833Y0237000D02*
X0257833Y0337000D01*
X0357833Y0337000D01*
X0357833Y0237000D01*
X0257833Y0237000D01*
X0257833Y0235000D02*
X0357833Y0235000D01*
X0357833Y0135000D01*
X0257833Y0135000D01*
X0257833Y0235000D01*
X0359833Y0235000D02*
X0359833Y0135000D01*
X0459833Y0135000D01*
X0459833Y0235000D01*
X0359833Y0235000D01*
X0359833Y0237000D02*
X0359833Y0337000D01*
X0459833Y0337000D01*
X0459833Y0237000D01*
X0359833Y0237000D01*
X0359833Y0339000D02*
X0359833Y0439000D01*
X0459833Y0439000D01*
X0459833Y0339000D01*
X0359833Y0339000D01*
X0357833Y0339000D02*
X0357833Y0439000D01*
X0257833Y0439000D01*
X0257833Y0339000D01*
X0357833Y0339000D01*
X0255833Y0339000D02*
X0255833Y0439000D01*
X0155833Y0439000D01*
X0155833Y0339000D01*
X0255833Y0339000D01*
D11*
X0132833Y0236000D02*
X0488833Y0236000D01*
X0485833Y0338000D02*
X0129833Y0338000D01*
X0256833Y0464000D02*
X0256833Y0108000D01*
X0358833Y0108000D02*
X0358833Y0464000D01*
D12*
X0126473Y0338503D02*
X0126473Y0337518D01*
X0122537Y0337518D01*
X0122537Y0336534D02*
X0122537Y0338503D01*
X0123521Y0339487D01*
X0125489Y0339487D01*
X0126473Y0338503D01*
X0125489Y0335550D02*
X0123521Y0335550D01*
X0122537Y0336534D01*
X0120118Y0339487D02*
X0119134Y0339487D01*
X0117165Y0337518D01*
X0117165Y0335550D02*
X0117165Y0339487D01*
X0114657Y0338503D02*
X0113672Y0339487D01*
X0111704Y0339487D01*
X0110720Y0338503D01*
X0110720Y0336534D01*
X0111704Y0335550D01*
X0113672Y0335550D01*
X0114657Y0336534D01*
X0114657Y0338503D01*
X0108211Y0339487D02*
X0105258Y0339487D01*
X0104274Y0338503D01*
X0104274Y0336534D01*
X0105258Y0335550D01*
X0108211Y0335550D01*
X0101766Y0336534D02*
X0100781Y0337518D01*
X0098813Y0337518D01*
X0097829Y0338503D01*
X0098813Y0339487D01*
X0101766Y0339487D01*
X0101766Y0336534D02*
X0100781Y0335550D01*
X0097829Y0335550D01*
X0095320Y0337518D02*
X0095320Y0341455D01*
X0095320Y0337518D02*
X0093352Y0335550D01*
X0091383Y0337518D01*
X0091383Y0341455D01*
X0096383Y0241455D02*
X0096383Y0237518D01*
X0098352Y0235550D01*
X0100320Y0237518D01*
X0100320Y0241455D01*
X0102829Y0238503D02*
X0103813Y0239487D01*
X0106766Y0239487D01*
X0105781Y0237518D02*
X0103813Y0237518D01*
X0102829Y0238503D01*
X0102829Y0235550D02*
X0105781Y0235550D01*
X0106766Y0236534D01*
X0105781Y0237518D01*
X0109274Y0236534D02*
X0110258Y0235550D01*
X0113211Y0235550D01*
X0115720Y0236534D02*
X0116704Y0235550D01*
X0118672Y0235550D01*
X0119657Y0236534D01*
X0119657Y0238503D01*
X0118672Y0239487D01*
X0116704Y0239487D01*
X0115720Y0238503D01*
X0115720Y0236534D01*
X0113211Y0239487D02*
X0110258Y0239487D01*
X0109274Y0238503D01*
X0109274Y0236534D01*
X0122165Y0235550D02*
X0122165Y0239487D01*
X0122165Y0237518D02*
X0124134Y0239487D01*
X0125118Y0239487D01*
X0127537Y0238503D02*
X0127537Y0236534D01*
X0128521Y0235550D01*
X0130489Y0235550D01*
X0131473Y0237518D02*
X0127537Y0237518D01*
X0127537Y0238503D02*
X0128521Y0239487D01*
X0130489Y0239487D01*
X0131473Y0238503D01*
X0131473Y0237518D01*
X0257331Y0105640D02*
X0258315Y0105640D01*
X0258315Y0101703D01*
X0259299Y0101703D02*
X0257331Y0101703D01*
X0256347Y0102687D01*
X0256347Y0104656D01*
X0257331Y0105640D01*
X0260283Y0104656D02*
X0260283Y0102687D01*
X0259299Y0101703D01*
X0256347Y0099285D02*
X0256347Y0098300D01*
X0258315Y0096332D01*
X0260283Y0096332D02*
X0256347Y0096332D01*
X0257331Y0093823D02*
X0256347Y0092839D01*
X0256347Y0090871D01*
X0257331Y0089886D01*
X0259299Y0089886D01*
X0260283Y0090871D01*
X0260283Y0092839D01*
X0259299Y0093823D01*
X0257331Y0093823D01*
X0256347Y0087378D02*
X0256347Y0084425D01*
X0257331Y0083441D01*
X0259299Y0083441D01*
X0260283Y0084425D01*
X0260283Y0087378D01*
X0259299Y0080932D02*
X0258315Y0079948D01*
X0258315Y0077980D01*
X0257331Y0076995D01*
X0256347Y0077980D01*
X0256347Y0080932D01*
X0259299Y0080932D02*
X0260283Y0079948D01*
X0260283Y0076995D01*
X0258315Y0074487D02*
X0260283Y0072518D01*
X0258315Y0070550D01*
X0254378Y0070550D01*
X0254378Y0074487D02*
X0258315Y0074487D01*
X0354378Y0074487D02*
X0358315Y0074487D01*
X0360283Y0072518D01*
X0358315Y0070550D01*
X0354378Y0070550D01*
X0357331Y0076995D02*
X0356347Y0077980D01*
X0356347Y0080932D01*
X0358315Y0079948D02*
X0358315Y0077980D01*
X0357331Y0076995D01*
X0360283Y0076995D02*
X0360283Y0079948D01*
X0359299Y0080932D01*
X0358315Y0079948D01*
X0359299Y0083441D02*
X0360283Y0084425D01*
X0360283Y0087378D01*
X0359299Y0089886D02*
X0357331Y0089886D01*
X0356347Y0090871D01*
X0356347Y0092839D01*
X0357331Y0093823D01*
X0359299Y0093823D01*
X0360283Y0092839D01*
X0360283Y0090871D01*
X0359299Y0089886D01*
X0356347Y0087378D02*
X0356347Y0084425D01*
X0357331Y0083441D01*
X0359299Y0083441D01*
X0358315Y0096332D02*
X0356347Y0098300D01*
X0356347Y0099285D01*
X0357331Y0101703D02*
X0356347Y0102687D01*
X0356347Y0104656D01*
X0357331Y0105640D01*
X0358315Y0105640D01*
X0358315Y0101703D01*
X0359299Y0101703D02*
X0357331Y0101703D01*
X0359299Y0101703D02*
X0360283Y0102687D01*
X0360283Y0104656D01*
X0360283Y0096332D02*
X0356347Y0096332D01*
D13*
X0341333Y0225000D02*
X0341335Y0225161D01*
X0341341Y0225321D01*
X0341351Y0225482D01*
X0341365Y0225642D01*
X0341383Y0225802D01*
X0341404Y0225961D01*
X0341430Y0226120D01*
X0341460Y0226278D01*
X0341493Y0226435D01*
X0341531Y0226592D01*
X0341572Y0226747D01*
X0341617Y0226901D01*
X0341666Y0227054D01*
X0341719Y0227206D01*
X0341775Y0227357D01*
X0341836Y0227506D01*
X0341899Y0227654D01*
X0341967Y0227800D01*
X0342038Y0227944D01*
X0342112Y0228086D01*
X0342190Y0228227D01*
X0342272Y0228365D01*
X0342357Y0228502D01*
X0342445Y0228636D01*
X0342537Y0228768D01*
X0342632Y0228898D01*
X0342730Y0229026D01*
X0342831Y0229151D01*
X0342935Y0229273D01*
X0343042Y0229393D01*
X0343152Y0229510D01*
X0343265Y0229625D01*
X0343381Y0229736D01*
X0343500Y0229845D01*
X0343621Y0229950D01*
X0343745Y0230053D01*
X0343871Y0230153D01*
X0343999Y0230249D01*
X0344130Y0230342D01*
X0344264Y0230432D01*
X0344399Y0230519D01*
X0344537Y0230602D01*
X0344676Y0230682D01*
X0344818Y0230758D01*
X0344961Y0230831D01*
X0345106Y0230900D01*
X0345253Y0230966D01*
X0345401Y0231028D01*
X0345551Y0231086D01*
X0345702Y0231141D01*
X0345855Y0231192D01*
X0346009Y0231239D01*
X0346164Y0231282D01*
X0346320Y0231321D01*
X0346476Y0231357D01*
X0346634Y0231388D01*
X0346792Y0231416D01*
X0346951Y0231440D01*
X0347111Y0231460D01*
X0347271Y0231476D01*
X0347431Y0231488D01*
X0347592Y0231496D01*
X0347753Y0231500D01*
X0347913Y0231500D01*
X0348074Y0231496D01*
X0348235Y0231488D01*
X0348395Y0231476D01*
X0348555Y0231460D01*
X0348715Y0231440D01*
X0348874Y0231416D01*
X0349032Y0231388D01*
X0349190Y0231357D01*
X0349346Y0231321D01*
X0349502Y0231282D01*
X0349657Y0231239D01*
X0349811Y0231192D01*
X0349964Y0231141D01*
X0350115Y0231086D01*
X0350265Y0231028D01*
X0350413Y0230966D01*
X0350560Y0230900D01*
X0350705Y0230831D01*
X0350848Y0230758D01*
X0350990Y0230682D01*
X0351129Y0230602D01*
X0351267Y0230519D01*
X0351402Y0230432D01*
X0351536Y0230342D01*
X0351667Y0230249D01*
X0351795Y0230153D01*
X0351921Y0230053D01*
X0352045Y0229950D01*
X0352166Y0229845D01*
X0352285Y0229736D01*
X0352401Y0229625D01*
X0352514Y0229510D01*
X0352624Y0229393D01*
X0352731Y0229273D01*
X0352835Y0229151D01*
X0352936Y0229026D01*
X0353034Y0228898D01*
X0353129Y0228768D01*
X0353221Y0228636D01*
X0353309Y0228502D01*
X0353394Y0228365D01*
X0353476Y0228227D01*
X0353554Y0228086D01*
X0353628Y0227944D01*
X0353699Y0227800D01*
X0353767Y0227654D01*
X0353830Y0227506D01*
X0353891Y0227357D01*
X0353947Y0227206D01*
X0354000Y0227054D01*
X0354049Y0226901D01*
X0354094Y0226747D01*
X0354135Y0226592D01*
X0354173Y0226435D01*
X0354206Y0226278D01*
X0354236Y0226120D01*
X0354262Y0225961D01*
X0354283Y0225802D01*
X0354301Y0225642D01*
X0354315Y0225482D01*
X0354325Y0225321D01*
X0354331Y0225161D01*
X0354333Y0225000D01*
X0354331Y0224839D01*
X0354325Y0224679D01*
X0354315Y0224518D01*
X0354301Y0224358D01*
X0354283Y0224198D01*
X0354262Y0224039D01*
X0354236Y0223880D01*
X0354206Y0223722D01*
X0354173Y0223565D01*
X0354135Y0223408D01*
X0354094Y0223253D01*
X0354049Y0223099D01*
X0354000Y0222946D01*
X0353947Y0222794D01*
X0353891Y0222643D01*
X0353830Y0222494D01*
X0353767Y0222346D01*
X0353699Y0222200D01*
X0353628Y0222056D01*
X0353554Y0221914D01*
X0353476Y0221773D01*
X0353394Y0221635D01*
X0353309Y0221498D01*
X0353221Y0221364D01*
X0353129Y0221232D01*
X0353034Y0221102D01*
X0352936Y0220974D01*
X0352835Y0220849D01*
X0352731Y0220727D01*
X0352624Y0220607D01*
X0352514Y0220490D01*
X0352401Y0220375D01*
X0352285Y0220264D01*
X0352166Y0220155D01*
X0352045Y0220050D01*
X0351921Y0219947D01*
X0351795Y0219847D01*
X0351667Y0219751D01*
X0351536Y0219658D01*
X0351402Y0219568D01*
X0351267Y0219481D01*
X0351129Y0219398D01*
X0350990Y0219318D01*
X0350848Y0219242D01*
X0350705Y0219169D01*
X0350560Y0219100D01*
X0350413Y0219034D01*
X0350265Y0218972D01*
X0350115Y0218914D01*
X0349964Y0218859D01*
X0349811Y0218808D01*
X0349657Y0218761D01*
X0349502Y0218718D01*
X0349346Y0218679D01*
X0349190Y0218643D01*
X0349032Y0218612D01*
X0348874Y0218584D01*
X0348715Y0218560D01*
X0348555Y0218540D01*
X0348395Y0218524D01*
X0348235Y0218512D01*
X0348074Y0218504D01*
X0347913Y0218500D01*
X0347753Y0218500D01*
X0347592Y0218504D01*
X0347431Y0218512D01*
X0347271Y0218524D01*
X0347111Y0218540D01*
X0346951Y0218560D01*
X0346792Y0218584D01*
X0346634Y0218612D01*
X0346476Y0218643D01*
X0346320Y0218679D01*
X0346164Y0218718D01*
X0346009Y0218761D01*
X0345855Y0218808D01*
X0345702Y0218859D01*
X0345551Y0218914D01*
X0345401Y0218972D01*
X0345253Y0219034D01*
X0345106Y0219100D01*
X0344961Y0219169D01*
X0344818Y0219242D01*
X0344676Y0219318D01*
X0344537Y0219398D01*
X0344399Y0219481D01*
X0344264Y0219568D01*
X0344130Y0219658D01*
X0343999Y0219751D01*
X0343871Y0219847D01*
X0343745Y0219947D01*
X0343621Y0220050D01*
X0343500Y0220155D01*
X0343381Y0220264D01*
X0343265Y0220375D01*
X0343152Y0220490D01*
X0343042Y0220607D01*
X0342935Y0220727D01*
X0342831Y0220849D01*
X0342730Y0220974D01*
X0342632Y0221102D01*
X0342537Y0221232D01*
X0342445Y0221364D01*
X0342357Y0221498D01*
X0342272Y0221635D01*
X0342190Y0221773D01*
X0342112Y0221914D01*
X0342038Y0222056D01*
X0341967Y0222200D01*
X0341899Y0222346D01*
X0341836Y0222494D01*
X0341775Y0222643D01*
X0341719Y0222794D01*
X0341666Y0222946D01*
X0341617Y0223099D01*
X0341572Y0223253D01*
X0341531Y0223408D01*
X0341493Y0223565D01*
X0341460Y0223722D01*
X0341430Y0223880D01*
X0341404Y0224039D01*
X0341383Y0224198D01*
X0341365Y0224358D01*
X0341351Y0224518D01*
X0341341Y0224679D01*
X0341335Y0224839D01*
X0341333Y0225000D01*
X0363333Y0225000D02*
X0363335Y0225161D01*
X0363341Y0225321D01*
X0363351Y0225482D01*
X0363365Y0225642D01*
X0363383Y0225802D01*
X0363404Y0225961D01*
X0363430Y0226120D01*
X0363460Y0226278D01*
X0363493Y0226435D01*
X0363531Y0226592D01*
X0363572Y0226747D01*
X0363617Y0226901D01*
X0363666Y0227054D01*
X0363719Y0227206D01*
X0363775Y0227357D01*
X0363836Y0227506D01*
X0363899Y0227654D01*
X0363967Y0227800D01*
X0364038Y0227944D01*
X0364112Y0228086D01*
X0364190Y0228227D01*
X0364272Y0228365D01*
X0364357Y0228502D01*
X0364445Y0228636D01*
X0364537Y0228768D01*
X0364632Y0228898D01*
X0364730Y0229026D01*
X0364831Y0229151D01*
X0364935Y0229273D01*
X0365042Y0229393D01*
X0365152Y0229510D01*
X0365265Y0229625D01*
X0365381Y0229736D01*
X0365500Y0229845D01*
X0365621Y0229950D01*
X0365745Y0230053D01*
X0365871Y0230153D01*
X0365999Y0230249D01*
X0366130Y0230342D01*
X0366264Y0230432D01*
X0366399Y0230519D01*
X0366537Y0230602D01*
X0366676Y0230682D01*
X0366818Y0230758D01*
X0366961Y0230831D01*
X0367106Y0230900D01*
X0367253Y0230966D01*
X0367401Y0231028D01*
X0367551Y0231086D01*
X0367702Y0231141D01*
X0367855Y0231192D01*
X0368009Y0231239D01*
X0368164Y0231282D01*
X0368320Y0231321D01*
X0368476Y0231357D01*
X0368634Y0231388D01*
X0368792Y0231416D01*
X0368951Y0231440D01*
X0369111Y0231460D01*
X0369271Y0231476D01*
X0369431Y0231488D01*
X0369592Y0231496D01*
X0369753Y0231500D01*
X0369913Y0231500D01*
X0370074Y0231496D01*
X0370235Y0231488D01*
X0370395Y0231476D01*
X0370555Y0231460D01*
X0370715Y0231440D01*
X0370874Y0231416D01*
X0371032Y0231388D01*
X0371190Y0231357D01*
X0371346Y0231321D01*
X0371502Y0231282D01*
X0371657Y0231239D01*
X0371811Y0231192D01*
X0371964Y0231141D01*
X0372115Y0231086D01*
X0372265Y0231028D01*
X0372413Y0230966D01*
X0372560Y0230900D01*
X0372705Y0230831D01*
X0372848Y0230758D01*
X0372990Y0230682D01*
X0373129Y0230602D01*
X0373267Y0230519D01*
X0373402Y0230432D01*
X0373536Y0230342D01*
X0373667Y0230249D01*
X0373795Y0230153D01*
X0373921Y0230053D01*
X0374045Y0229950D01*
X0374166Y0229845D01*
X0374285Y0229736D01*
X0374401Y0229625D01*
X0374514Y0229510D01*
X0374624Y0229393D01*
X0374731Y0229273D01*
X0374835Y0229151D01*
X0374936Y0229026D01*
X0375034Y0228898D01*
X0375129Y0228768D01*
X0375221Y0228636D01*
X0375309Y0228502D01*
X0375394Y0228365D01*
X0375476Y0228227D01*
X0375554Y0228086D01*
X0375628Y0227944D01*
X0375699Y0227800D01*
X0375767Y0227654D01*
X0375830Y0227506D01*
X0375891Y0227357D01*
X0375947Y0227206D01*
X0376000Y0227054D01*
X0376049Y0226901D01*
X0376094Y0226747D01*
X0376135Y0226592D01*
X0376173Y0226435D01*
X0376206Y0226278D01*
X0376236Y0226120D01*
X0376262Y0225961D01*
X0376283Y0225802D01*
X0376301Y0225642D01*
X0376315Y0225482D01*
X0376325Y0225321D01*
X0376331Y0225161D01*
X0376333Y0225000D01*
X0376331Y0224839D01*
X0376325Y0224679D01*
X0376315Y0224518D01*
X0376301Y0224358D01*
X0376283Y0224198D01*
X0376262Y0224039D01*
X0376236Y0223880D01*
X0376206Y0223722D01*
X0376173Y0223565D01*
X0376135Y0223408D01*
X0376094Y0223253D01*
X0376049Y0223099D01*
X0376000Y0222946D01*
X0375947Y0222794D01*
X0375891Y0222643D01*
X0375830Y0222494D01*
X0375767Y0222346D01*
X0375699Y0222200D01*
X0375628Y0222056D01*
X0375554Y0221914D01*
X0375476Y0221773D01*
X0375394Y0221635D01*
X0375309Y0221498D01*
X0375221Y0221364D01*
X0375129Y0221232D01*
X0375034Y0221102D01*
X0374936Y0220974D01*
X0374835Y0220849D01*
X0374731Y0220727D01*
X0374624Y0220607D01*
X0374514Y0220490D01*
X0374401Y0220375D01*
X0374285Y0220264D01*
X0374166Y0220155D01*
X0374045Y0220050D01*
X0373921Y0219947D01*
X0373795Y0219847D01*
X0373667Y0219751D01*
X0373536Y0219658D01*
X0373402Y0219568D01*
X0373267Y0219481D01*
X0373129Y0219398D01*
X0372990Y0219318D01*
X0372848Y0219242D01*
X0372705Y0219169D01*
X0372560Y0219100D01*
X0372413Y0219034D01*
X0372265Y0218972D01*
X0372115Y0218914D01*
X0371964Y0218859D01*
X0371811Y0218808D01*
X0371657Y0218761D01*
X0371502Y0218718D01*
X0371346Y0218679D01*
X0371190Y0218643D01*
X0371032Y0218612D01*
X0370874Y0218584D01*
X0370715Y0218560D01*
X0370555Y0218540D01*
X0370395Y0218524D01*
X0370235Y0218512D01*
X0370074Y0218504D01*
X0369913Y0218500D01*
X0369753Y0218500D01*
X0369592Y0218504D01*
X0369431Y0218512D01*
X0369271Y0218524D01*
X0369111Y0218540D01*
X0368951Y0218560D01*
X0368792Y0218584D01*
X0368634Y0218612D01*
X0368476Y0218643D01*
X0368320Y0218679D01*
X0368164Y0218718D01*
X0368009Y0218761D01*
X0367855Y0218808D01*
X0367702Y0218859D01*
X0367551Y0218914D01*
X0367401Y0218972D01*
X0367253Y0219034D01*
X0367106Y0219100D01*
X0366961Y0219169D01*
X0366818Y0219242D01*
X0366676Y0219318D01*
X0366537Y0219398D01*
X0366399Y0219481D01*
X0366264Y0219568D01*
X0366130Y0219658D01*
X0365999Y0219751D01*
X0365871Y0219847D01*
X0365745Y0219947D01*
X0365621Y0220050D01*
X0365500Y0220155D01*
X0365381Y0220264D01*
X0365265Y0220375D01*
X0365152Y0220490D01*
X0365042Y0220607D01*
X0364935Y0220727D01*
X0364831Y0220849D01*
X0364730Y0220974D01*
X0364632Y0221102D01*
X0364537Y0221232D01*
X0364445Y0221364D01*
X0364357Y0221498D01*
X0364272Y0221635D01*
X0364190Y0221773D01*
X0364112Y0221914D01*
X0364038Y0222056D01*
X0363967Y0222200D01*
X0363899Y0222346D01*
X0363836Y0222494D01*
X0363775Y0222643D01*
X0363719Y0222794D01*
X0363666Y0222946D01*
X0363617Y0223099D01*
X0363572Y0223253D01*
X0363531Y0223408D01*
X0363493Y0223565D01*
X0363460Y0223722D01*
X0363430Y0223880D01*
X0363404Y0224039D01*
X0363383Y0224198D01*
X0363365Y0224358D01*
X0363351Y0224518D01*
X0363341Y0224679D01*
X0363335Y0224839D01*
X0363333Y0225000D01*
X0443333Y0225000D02*
X0443335Y0225161D01*
X0443341Y0225321D01*
X0443351Y0225482D01*
X0443365Y0225642D01*
X0443383Y0225802D01*
X0443404Y0225961D01*
X0443430Y0226120D01*
X0443460Y0226278D01*
X0443493Y0226435D01*
X0443531Y0226592D01*
X0443572Y0226747D01*
X0443617Y0226901D01*
X0443666Y0227054D01*
X0443719Y0227206D01*
X0443775Y0227357D01*
X0443836Y0227506D01*
X0443899Y0227654D01*
X0443967Y0227800D01*
X0444038Y0227944D01*
X0444112Y0228086D01*
X0444190Y0228227D01*
X0444272Y0228365D01*
X0444357Y0228502D01*
X0444445Y0228636D01*
X0444537Y0228768D01*
X0444632Y0228898D01*
X0444730Y0229026D01*
X0444831Y0229151D01*
X0444935Y0229273D01*
X0445042Y0229393D01*
X0445152Y0229510D01*
X0445265Y0229625D01*
X0445381Y0229736D01*
X0445500Y0229845D01*
X0445621Y0229950D01*
X0445745Y0230053D01*
X0445871Y0230153D01*
X0445999Y0230249D01*
X0446130Y0230342D01*
X0446264Y0230432D01*
X0446399Y0230519D01*
X0446537Y0230602D01*
X0446676Y0230682D01*
X0446818Y0230758D01*
X0446961Y0230831D01*
X0447106Y0230900D01*
X0447253Y0230966D01*
X0447401Y0231028D01*
X0447551Y0231086D01*
X0447702Y0231141D01*
X0447855Y0231192D01*
X0448009Y0231239D01*
X0448164Y0231282D01*
X0448320Y0231321D01*
X0448476Y0231357D01*
X0448634Y0231388D01*
X0448792Y0231416D01*
X0448951Y0231440D01*
X0449111Y0231460D01*
X0449271Y0231476D01*
X0449431Y0231488D01*
X0449592Y0231496D01*
X0449753Y0231500D01*
X0449913Y0231500D01*
X0450074Y0231496D01*
X0450235Y0231488D01*
X0450395Y0231476D01*
X0450555Y0231460D01*
X0450715Y0231440D01*
X0450874Y0231416D01*
X0451032Y0231388D01*
X0451190Y0231357D01*
X0451346Y0231321D01*
X0451502Y0231282D01*
X0451657Y0231239D01*
X0451811Y0231192D01*
X0451964Y0231141D01*
X0452115Y0231086D01*
X0452265Y0231028D01*
X0452413Y0230966D01*
X0452560Y0230900D01*
X0452705Y0230831D01*
X0452848Y0230758D01*
X0452990Y0230682D01*
X0453129Y0230602D01*
X0453267Y0230519D01*
X0453402Y0230432D01*
X0453536Y0230342D01*
X0453667Y0230249D01*
X0453795Y0230153D01*
X0453921Y0230053D01*
X0454045Y0229950D01*
X0454166Y0229845D01*
X0454285Y0229736D01*
X0454401Y0229625D01*
X0454514Y0229510D01*
X0454624Y0229393D01*
X0454731Y0229273D01*
X0454835Y0229151D01*
X0454936Y0229026D01*
X0455034Y0228898D01*
X0455129Y0228768D01*
X0455221Y0228636D01*
X0455309Y0228502D01*
X0455394Y0228365D01*
X0455476Y0228227D01*
X0455554Y0228086D01*
X0455628Y0227944D01*
X0455699Y0227800D01*
X0455767Y0227654D01*
X0455830Y0227506D01*
X0455891Y0227357D01*
X0455947Y0227206D01*
X0456000Y0227054D01*
X0456049Y0226901D01*
X0456094Y0226747D01*
X0456135Y0226592D01*
X0456173Y0226435D01*
X0456206Y0226278D01*
X0456236Y0226120D01*
X0456262Y0225961D01*
X0456283Y0225802D01*
X0456301Y0225642D01*
X0456315Y0225482D01*
X0456325Y0225321D01*
X0456331Y0225161D01*
X0456333Y0225000D01*
X0456331Y0224839D01*
X0456325Y0224679D01*
X0456315Y0224518D01*
X0456301Y0224358D01*
X0456283Y0224198D01*
X0456262Y0224039D01*
X0456236Y0223880D01*
X0456206Y0223722D01*
X0456173Y0223565D01*
X0456135Y0223408D01*
X0456094Y0223253D01*
X0456049Y0223099D01*
X0456000Y0222946D01*
X0455947Y0222794D01*
X0455891Y0222643D01*
X0455830Y0222494D01*
X0455767Y0222346D01*
X0455699Y0222200D01*
X0455628Y0222056D01*
X0455554Y0221914D01*
X0455476Y0221773D01*
X0455394Y0221635D01*
X0455309Y0221498D01*
X0455221Y0221364D01*
X0455129Y0221232D01*
X0455034Y0221102D01*
X0454936Y0220974D01*
X0454835Y0220849D01*
X0454731Y0220727D01*
X0454624Y0220607D01*
X0454514Y0220490D01*
X0454401Y0220375D01*
X0454285Y0220264D01*
X0454166Y0220155D01*
X0454045Y0220050D01*
X0453921Y0219947D01*
X0453795Y0219847D01*
X0453667Y0219751D01*
X0453536Y0219658D01*
X0453402Y0219568D01*
X0453267Y0219481D01*
X0453129Y0219398D01*
X0452990Y0219318D01*
X0452848Y0219242D01*
X0452705Y0219169D01*
X0452560Y0219100D01*
X0452413Y0219034D01*
X0452265Y0218972D01*
X0452115Y0218914D01*
X0451964Y0218859D01*
X0451811Y0218808D01*
X0451657Y0218761D01*
X0451502Y0218718D01*
X0451346Y0218679D01*
X0451190Y0218643D01*
X0451032Y0218612D01*
X0450874Y0218584D01*
X0450715Y0218560D01*
X0450555Y0218540D01*
X0450395Y0218524D01*
X0450235Y0218512D01*
X0450074Y0218504D01*
X0449913Y0218500D01*
X0449753Y0218500D01*
X0449592Y0218504D01*
X0449431Y0218512D01*
X0449271Y0218524D01*
X0449111Y0218540D01*
X0448951Y0218560D01*
X0448792Y0218584D01*
X0448634Y0218612D01*
X0448476Y0218643D01*
X0448320Y0218679D01*
X0448164Y0218718D01*
X0448009Y0218761D01*
X0447855Y0218808D01*
X0447702Y0218859D01*
X0447551Y0218914D01*
X0447401Y0218972D01*
X0447253Y0219034D01*
X0447106Y0219100D01*
X0446961Y0219169D01*
X0446818Y0219242D01*
X0446676Y0219318D01*
X0446537Y0219398D01*
X0446399Y0219481D01*
X0446264Y0219568D01*
X0446130Y0219658D01*
X0445999Y0219751D01*
X0445871Y0219847D01*
X0445745Y0219947D01*
X0445621Y0220050D01*
X0445500Y0220155D01*
X0445381Y0220264D01*
X0445265Y0220375D01*
X0445152Y0220490D01*
X0445042Y0220607D01*
X0444935Y0220727D01*
X0444831Y0220849D01*
X0444730Y0220974D01*
X0444632Y0221102D01*
X0444537Y0221232D01*
X0444445Y0221364D01*
X0444357Y0221498D01*
X0444272Y0221635D01*
X0444190Y0221773D01*
X0444112Y0221914D01*
X0444038Y0222056D01*
X0443967Y0222200D01*
X0443899Y0222346D01*
X0443836Y0222494D01*
X0443775Y0222643D01*
X0443719Y0222794D01*
X0443666Y0222946D01*
X0443617Y0223099D01*
X0443572Y0223253D01*
X0443531Y0223408D01*
X0443493Y0223565D01*
X0443460Y0223722D01*
X0443430Y0223880D01*
X0443404Y0224039D01*
X0443383Y0224198D01*
X0443365Y0224358D01*
X0443351Y0224518D01*
X0443341Y0224679D01*
X0443335Y0224839D01*
X0443333Y0225000D01*
X0443333Y0327000D02*
X0443335Y0327161D01*
X0443341Y0327321D01*
X0443351Y0327482D01*
X0443365Y0327642D01*
X0443383Y0327802D01*
X0443404Y0327961D01*
X0443430Y0328120D01*
X0443460Y0328278D01*
X0443493Y0328435D01*
X0443531Y0328592D01*
X0443572Y0328747D01*
X0443617Y0328901D01*
X0443666Y0329054D01*
X0443719Y0329206D01*
X0443775Y0329357D01*
X0443836Y0329506D01*
X0443899Y0329654D01*
X0443967Y0329800D01*
X0444038Y0329944D01*
X0444112Y0330086D01*
X0444190Y0330227D01*
X0444272Y0330365D01*
X0444357Y0330502D01*
X0444445Y0330636D01*
X0444537Y0330768D01*
X0444632Y0330898D01*
X0444730Y0331026D01*
X0444831Y0331151D01*
X0444935Y0331273D01*
X0445042Y0331393D01*
X0445152Y0331510D01*
X0445265Y0331625D01*
X0445381Y0331736D01*
X0445500Y0331845D01*
X0445621Y0331950D01*
X0445745Y0332053D01*
X0445871Y0332153D01*
X0445999Y0332249D01*
X0446130Y0332342D01*
X0446264Y0332432D01*
X0446399Y0332519D01*
X0446537Y0332602D01*
X0446676Y0332682D01*
X0446818Y0332758D01*
X0446961Y0332831D01*
X0447106Y0332900D01*
X0447253Y0332966D01*
X0447401Y0333028D01*
X0447551Y0333086D01*
X0447702Y0333141D01*
X0447855Y0333192D01*
X0448009Y0333239D01*
X0448164Y0333282D01*
X0448320Y0333321D01*
X0448476Y0333357D01*
X0448634Y0333388D01*
X0448792Y0333416D01*
X0448951Y0333440D01*
X0449111Y0333460D01*
X0449271Y0333476D01*
X0449431Y0333488D01*
X0449592Y0333496D01*
X0449753Y0333500D01*
X0449913Y0333500D01*
X0450074Y0333496D01*
X0450235Y0333488D01*
X0450395Y0333476D01*
X0450555Y0333460D01*
X0450715Y0333440D01*
X0450874Y0333416D01*
X0451032Y0333388D01*
X0451190Y0333357D01*
X0451346Y0333321D01*
X0451502Y0333282D01*
X0451657Y0333239D01*
X0451811Y0333192D01*
X0451964Y0333141D01*
X0452115Y0333086D01*
X0452265Y0333028D01*
X0452413Y0332966D01*
X0452560Y0332900D01*
X0452705Y0332831D01*
X0452848Y0332758D01*
X0452990Y0332682D01*
X0453129Y0332602D01*
X0453267Y0332519D01*
X0453402Y0332432D01*
X0453536Y0332342D01*
X0453667Y0332249D01*
X0453795Y0332153D01*
X0453921Y0332053D01*
X0454045Y0331950D01*
X0454166Y0331845D01*
X0454285Y0331736D01*
X0454401Y0331625D01*
X0454514Y0331510D01*
X0454624Y0331393D01*
X0454731Y0331273D01*
X0454835Y0331151D01*
X0454936Y0331026D01*
X0455034Y0330898D01*
X0455129Y0330768D01*
X0455221Y0330636D01*
X0455309Y0330502D01*
X0455394Y0330365D01*
X0455476Y0330227D01*
X0455554Y0330086D01*
X0455628Y0329944D01*
X0455699Y0329800D01*
X0455767Y0329654D01*
X0455830Y0329506D01*
X0455891Y0329357D01*
X0455947Y0329206D01*
X0456000Y0329054D01*
X0456049Y0328901D01*
X0456094Y0328747D01*
X0456135Y0328592D01*
X0456173Y0328435D01*
X0456206Y0328278D01*
X0456236Y0328120D01*
X0456262Y0327961D01*
X0456283Y0327802D01*
X0456301Y0327642D01*
X0456315Y0327482D01*
X0456325Y0327321D01*
X0456331Y0327161D01*
X0456333Y0327000D01*
X0456331Y0326839D01*
X0456325Y0326679D01*
X0456315Y0326518D01*
X0456301Y0326358D01*
X0456283Y0326198D01*
X0456262Y0326039D01*
X0456236Y0325880D01*
X0456206Y0325722D01*
X0456173Y0325565D01*
X0456135Y0325408D01*
X0456094Y0325253D01*
X0456049Y0325099D01*
X0456000Y0324946D01*
X0455947Y0324794D01*
X0455891Y0324643D01*
X0455830Y0324494D01*
X0455767Y0324346D01*
X0455699Y0324200D01*
X0455628Y0324056D01*
X0455554Y0323914D01*
X0455476Y0323773D01*
X0455394Y0323635D01*
X0455309Y0323498D01*
X0455221Y0323364D01*
X0455129Y0323232D01*
X0455034Y0323102D01*
X0454936Y0322974D01*
X0454835Y0322849D01*
X0454731Y0322727D01*
X0454624Y0322607D01*
X0454514Y0322490D01*
X0454401Y0322375D01*
X0454285Y0322264D01*
X0454166Y0322155D01*
X0454045Y0322050D01*
X0453921Y0321947D01*
X0453795Y0321847D01*
X0453667Y0321751D01*
X0453536Y0321658D01*
X0453402Y0321568D01*
X0453267Y0321481D01*
X0453129Y0321398D01*
X0452990Y0321318D01*
X0452848Y0321242D01*
X0452705Y0321169D01*
X0452560Y0321100D01*
X0452413Y0321034D01*
X0452265Y0320972D01*
X0452115Y0320914D01*
X0451964Y0320859D01*
X0451811Y0320808D01*
X0451657Y0320761D01*
X0451502Y0320718D01*
X0451346Y0320679D01*
X0451190Y0320643D01*
X0451032Y0320612D01*
X0450874Y0320584D01*
X0450715Y0320560D01*
X0450555Y0320540D01*
X0450395Y0320524D01*
X0450235Y0320512D01*
X0450074Y0320504D01*
X0449913Y0320500D01*
X0449753Y0320500D01*
X0449592Y0320504D01*
X0449431Y0320512D01*
X0449271Y0320524D01*
X0449111Y0320540D01*
X0448951Y0320560D01*
X0448792Y0320584D01*
X0448634Y0320612D01*
X0448476Y0320643D01*
X0448320Y0320679D01*
X0448164Y0320718D01*
X0448009Y0320761D01*
X0447855Y0320808D01*
X0447702Y0320859D01*
X0447551Y0320914D01*
X0447401Y0320972D01*
X0447253Y0321034D01*
X0447106Y0321100D01*
X0446961Y0321169D01*
X0446818Y0321242D01*
X0446676Y0321318D01*
X0446537Y0321398D01*
X0446399Y0321481D01*
X0446264Y0321568D01*
X0446130Y0321658D01*
X0445999Y0321751D01*
X0445871Y0321847D01*
X0445745Y0321947D01*
X0445621Y0322050D01*
X0445500Y0322155D01*
X0445381Y0322264D01*
X0445265Y0322375D01*
X0445152Y0322490D01*
X0445042Y0322607D01*
X0444935Y0322727D01*
X0444831Y0322849D01*
X0444730Y0322974D01*
X0444632Y0323102D01*
X0444537Y0323232D01*
X0444445Y0323364D01*
X0444357Y0323498D01*
X0444272Y0323635D01*
X0444190Y0323773D01*
X0444112Y0323914D01*
X0444038Y0324056D01*
X0443967Y0324200D01*
X0443899Y0324346D01*
X0443836Y0324494D01*
X0443775Y0324643D01*
X0443719Y0324794D01*
X0443666Y0324946D01*
X0443617Y0325099D01*
X0443572Y0325253D01*
X0443531Y0325408D01*
X0443493Y0325565D01*
X0443460Y0325722D01*
X0443430Y0325880D01*
X0443404Y0326039D01*
X0443383Y0326198D01*
X0443365Y0326358D01*
X0443351Y0326518D01*
X0443341Y0326679D01*
X0443335Y0326839D01*
X0443333Y0327000D01*
X0363333Y0327000D02*
X0363335Y0327161D01*
X0363341Y0327321D01*
X0363351Y0327482D01*
X0363365Y0327642D01*
X0363383Y0327802D01*
X0363404Y0327961D01*
X0363430Y0328120D01*
X0363460Y0328278D01*
X0363493Y0328435D01*
X0363531Y0328592D01*
X0363572Y0328747D01*
X0363617Y0328901D01*
X0363666Y0329054D01*
X0363719Y0329206D01*
X0363775Y0329357D01*
X0363836Y0329506D01*
X0363899Y0329654D01*
X0363967Y0329800D01*
X0364038Y0329944D01*
X0364112Y0330086D01*
X0364190Y0330227D01*
X0364272Y0330365D01*
X0364357Y0330502D01*
X0364445Y0330636D01*
X0364537Y0330768D01*
X0364632Y0330898D01*
X0364730Y0331026D01*
X0364831Y0331151D01*
X0364935Y0331273D01*
X0365042Y0331393D01*
X0365152Y0331510D01*
X0365265Y0331625D01*
X0365381Y0331736D01*
X0365500Y0331845D01*
X0365621Y0331950D01*
X0365745Y0332053D01*
X0365871Y0332153D01*
X0365999Y0332249D01*
X0366130Y0332342D01*
X0366264Y0332432D01*
X0366399Y0332519D01*
X0366537Y0332602D01*
X0366676Y0332682D01*
X0366818Y0332758D01*
X0366961Y0332831D01*
X0367106Y0332900D01*
X0367253Y0332966D01*
X0367401Y0333028D01*
X0367551Y0333086D01*
X0367702Y0333141D01*
X0367855Y0333192D01*
X0368009Y0333239D01*
X0368164Y0333282D01*
X0368320Y0333321D01*
X0368476Y0333357D01*
X0368634Y0333388D01*
X0368792Y0333416D01*
X0368951Y0333440D01*
X0369111Y0333460D01*
X0369271Y0333476D01*
X0369431Y0333488D01*
X0369592Y0333496D01*
X0369753Y0333500D01*
X0369913Y0333500D01*
X0370074Y0333496D01*
X0370235Y0333488D01*
X0370395Y0333476D01*
X0370555Y0333460D01*
X0370715Y0333440D01*
X0370874Y0333416D01*
X0371032Y0333388D01*
X0371190Y0333357D01*
X0371346Y0333321D01*
X0371502Y0333282D01*
X0371657Y0333239D01*
X0371811Y0333192D01*
X0371964Y0333141D01*
X0372115Y0333086D01*
X0372265Y0333028D01*
X0372413Y0332966D01*
X0372560Y0332900D01*
X0372705Y0332831D01*
X0372848Y0332758D01*
X0372990Y0332682D01*
X0373129Y0332602D01*
X0373267Y0332519D01*
X0373402Y0332432D01*
X0373536Y0332342D01*
X0373667Y0332249D01*
X0373795Y0332153D01*
X0373921Y0332053D01*
X0374045Y0331950D01*
X0374166Y0331845D01*
X0374285Y0331736D01*
X0374401Y0331625D01*
X0374514Y0331510D01*
X0374624Y0331393D01*
X0374731Y0331273D01*
X0374835Y0331151D01*
X0374936Y0331026D01*
X0375034Y0330898D01*
X0375129Y0330768D01*
X0375221Y0330636D01*
X0375309Y0330502D01*
X0375394Y0330365D01*
X0375476Y0330227D01*
X0375554Y0330086D01*
X0375628Y0329944D01*
X0375699Y0329800D01*
X0375767Y0329654D01*
X0375830Y0329506D01*
X0375891Y0329357D01*
X0375947Y0329206D01*
X0376000Y0329054D01*
X0376049Y0328901D01*
X0376094Y0328747D01*
X0376135Y0328592D01*
X0376173Y0328435D01*
X0376206Y0328278D01*
X0376236Y0328120D01*
X0376262Y0327961D01*
X0376283Y0327802D01*
X0376301Y0327642D01*
X0376315Y0327482D01*
X0376325Y0327321D01*
X0376331Y0327161D01*
X0376333Y0327000D01*
X0376331Y0326839D01*
X0376325Y0326679D01*
X0376315Y0326518D01*
X0376301Y0326358D01*
X0376283Y0326198D01*
X0376262Y0326039D01*
X0376236Y0325880D01*
X0376206Y0325722D01*
X0376173Y0325565D01*
X0376135Y0325408D01*
X0376094Y0325253D01*
X0376049Y0325099D01*
X0376000Y0324946D01*
X0375947Y0324794D01*
X0375891Y0324643D01*
X0375830Y0324494D01*
X0375767Y0324346D01*
X0375699Y0324200D01*
X0375628Y0324056D01*
X0375554Y0323914D01*
X0375476Y0323773D01*
X0375394Y0323635D01*
X0375309Y0323498D01*
X0375221Y0323364D01*
X0375129Y0323232D01*
X0375034Y0323102D01*
X0374936Y0322974D01*
X0374835Y0322849D01*
X0374731Y0322727D01*
X0374624Y0322607D01*
X0374514Y0322490D01*
X0374401Y0322375D01*
X0374285Y0322264D01*
X0374166Y0322155D01*
X0374045Y0322050D01*
X0373921Y0321947D01*
X0373795Y0321847D01*
X0373667Y0321751D01*
X0373536Y0321658D01*
X0373402Y0321568D01*
X0373267Y0321481D01*
X0373129Y0321398D01*
X0372990Y0321318D01*
X0372848Y0321242D01*
X0372705Y0321169D01*
X0372560Y0321100D01*
X0372413Y0321034D01*
X0372265Y0320972D01*
X0372115Y0320914D01*
X0371964Y0320859D01*
X0371811Y0320808D01*
X0371657Y0320761D01*
X0371502Y0320718D01*
X0371346Y0320679D01*
X0371190Y0320643D01*
X0371032Y0320612D01*
X0370874Y0320584D01*
X0370715Y0320560D01*
X0370555Y0320540D01*
X0370395Y0320524D01*
X0370235Y0320512D01*
X0370074Y0320504D01*
X0369913Y0320500D01*
X0369753Y0320500D01*
X0369592Y0320504D01*
X0369431Y0320512D01*
X0369271Y0320524D01*
X0369111Y0320540D01*
X0368951Y0320560D01*
X0368792Y0320584D01*
X0368634Y0320612D01*
X0368476Y0320643D01*
X0368320Y0320679D01*
X0368164Y0320718D01*
X0368009Y0320761D01*
X0367855Y0320808D01*
X0367702Y0320859D01*
X0367551Y0320914D01*
X0367401Y0320972D01*
X0367253Y0321034D01*
X0367106Y0321100D01*
X0366961Y0321169D01*
X0366818Y0321242D01*
X0366676Y0321318D01*
X0366537Y0321398D01*
X0366399Y0321481D01*
X0366264Y0321568D01*
X0366130Y0321658D01*
X0365999Y0321751D01*
X0365871Y0321847D01*
X0365745Y0321947D01*
X0365621Y0322050D01*
X0365500Y0322155D01*
X0365381Y0322264D01*
X0365265Y0322375D01*
X0365152Y0322490D01*
X0365042Y0322607D01*
X0364935Y0322727D01*
X0364831Y0322849D01*
X0364730Y0322974D01*
X0364632Y0323102D01*
X0364537Y0323232D01*
X0364445Y0323364D01*
X0364357Y0323498D01*
X0364272Y0323635D01*
X0364190Y0323773D01*
X0364112Y0323914D01*
X0364038Y0324056D01*
X0363967Y0324200D01*
X0363899Y0324346D01*
X0363836Y0324494D01*
X0363775Y0324643D01*
X0363719Y0324794D01*
X0363666Y0324946D01*
X0363617Y0325099D01*
X0363572Y0325253D01*
X0363531Y0325408D01*
X0363493Y0325565D01*
X0363460Y0325722D01*
X0363430Y0325880D01*
X0363404Y0326039D01*
X0363383Y0326198D01*
X0363365Y0326358D01*
X0363351Y0326518D01*
X0363341Y0326679D01*
X0363335Y0326839D01*
X0363333Y0327000D01*
X0341333Y0327000D02*
X0341335Y0327161D01*
X0341341Y0327321D01*
X0341351Y0327482D01*
X0341365Y0327642D01*
X0341383Y0327802D01*
X0341404Y0327961D01*
X0341430Y0328120D01*
X0341460Y0328278D01*
X0341493Y0328435D01*
X0341531Y0328592D01*
X0341572Y0328747D01*
X0341617Y0328901D01*
X0341666Y0329054D01*
X0341719Y0329206D01*
X0341775Y0329357D01*
X0341836Y0329506D01*
X0341899Y0329654D01*
X0341967Y0329800D01*
X0342038Y0329944D01*
X0342112Y0330086D01*
X0342190Y0330227D01*
X0342272Y0330365D01*
X0342357Y0330502D01*
X0342445Y0330636D01*
X0342537Y0330768D01*
X0342632Y0330898D01*
X0342730Y0331026D01*
X0342831Y0331151D01*
X0342935Y0331273D01*
X0343042Y0331393D01*
X0343152Y0331510D01*
X0343265Y0331625D01*
X0343381Y0331736D01*
X0343500Y0331845D01*
X0343621Y0331950D01*
X0343745Y0332053D01*
X0343871Y0332153D01*
X0343999Y0332249D01*
X0344130Y0332342D01*
X0344264Y0332432D01*
X0344399Y0332519D01*
X0344537Y0332602D01*
X0344676Y0332682D01*
X0344818Y0332758D01*
X0344961Y0332831D01*
X0345106Y0332900D01*
X0345253Y0332966D01*
X0345401Y0333028D01*
X0345551Y0333086D01*
X0345702Y0333141D01*
X0345855Y0333192D01*
X0346009Y0333239D01*
X0346164Y0333282D01*
X0346320Y0333321D01*
X0346476Y0333357D01*
X0346634Y0333388D01*
X0346792Y0333416D01*
X0346951Y0333440D01*
X0347111Y0333460D01*
X0347271Y0333476D01*
X0347431Y0333488D01*
X0347592Y0333496D01*
X0347753Y0333500D01*
X0347913Y0333500D01*
X0348074Y0333496D01*
X0348235Y0333488D01*
X0348395Y0333476D01*
X0348555Y0333460D01*
X0348715Y0333440D01*
X0348874Y0333416D01*
X0349032Y0333388D01*
X0349190Y0333357D01*
X0349346Y0333321D01*
X0349502Y0333282D01*
X0349657Y0333239D01*
X0349811Y0333192D01*
X0349964Y0333141D01*
X0350115Y0333086D01*
X0350265Y0333028D01*
X0350413Y0332966D01*
X0350560Y0332900D01*
X0350705Y0332831D01*
X0350848Y0332758D01*
X0350990Y0332682D01*
X0351129Y0332602D01*
X0351267Y0332519D01*
X0351402Y0332432D01*
X0351536Y0332342D01*
X0351667Y0332249D01*
X0351795Y0332153D01*
X0351921Y0332053D01*
X0352045Y0331950D01*
X0352166Y0331845D01*
X0352285Y0331736D01*
X0352401Y0331625D01*
X0352514Y0331510D01*
X0352624Y0331393D01*
X0352731Y0331273D01*
X0352835Y0331151D01*
X0352936Y0331026D01*
X0353034Y0330898D01*
X0353129Y0330768D01*
X0353221Y0330636D01*
X0353309Y0330502D01*
X0353394Y0330365D01*
X0353476Y0330227D01*
X0353554Y0330086D01*
X0353628Y0329944D01*
X0353699Y0329800D01*
X0353767Y0329654D01*
X0353830Y0329506D01*
X0353891Y0329357D01*
X0353947Y0329206D01*
X0354000Y0329054D01*
X0354049Y0328901D01*
X0354094Y0328747D01*
X0354135Y0328592D01*
X0354173Y0328435D01*
X0354206Y0328278D01*
X0354236Y0328120D01*
X0354262Y0327961D01*
X0354283Y0327802D01*
X0354301Y0327642D01*
X0354315Y0327482D01*
X0354325Y0327321D01*
X0354331Y0327161D01*
X0354333Y0327000D01*
X0354331Y0326839D01*
X0354325Y0326679D01*
X0354315Y0326518D01*
X0354301Y0326358D01*
X0354283Y0326198D01*
X0354262Y0326039D01*
X0354236Y0325880D01*
X0354206Y0325722D01*
X0354173Y0325565D01*
X0354135Y0325408D01*
X0354094Y0325253D01*
X0354049Y0325099D01*
X0354000Y0324946D01*
X0353947Y0324794D01*
X0353891Y0324643D01*
X0353830Y0324494D01*
X0353767Y0324346D01*
X0353699Y0324200D01*
X0353628Y0324056D01*
X0353554Y0323914D01*
X0353476Y0323773D01*
X0353394Y0323635D01*
X0353309Y0323498D01*
X0353221Y0323364D01*
X0353129Y0323232D01*
X0353034Y0323102D01*
X0352936Y0322974D01*
X0352835Y0322849D01*
X0352731Y0322727D01*
X0352624Y0322607D01*
X0352514Y0322490D01*
X0352401Y0322375D01*
X0352285Y0322264D01*
X0352166Y0322155D01*
X0352045Y0322050D01*
X0351921Y0321947D01*
X0351795Y0321847D01*
X0351667Y0321751D01*
X0351536Y0321658D01*
X0351402Y0321568D01*
X0351267Y0321481D01*
X0351129Y0321398D01*
X0350990Y0321318D01*
X0350848Y0321242D01*
X0350705Y0321169D01*
X0350560Y0321100D01*
X0350413Y0321034D01*
X0350265Y0320972D01*
X0350115Y0320914D01*
X0349964Y0320859D01*
X0349811Y0320808D01*
X0349657Y0320761D01*
X0349502Y0320718D01*
X0349346Y0320679D01*
X0349190Y0320643D01*
X0349032Y0320612D01*
X0348874Y0320584D01*
X0348715Y0320560D01*
X0348555Y0320540D01*
X0348395Y0320524D01*
X0348235Y0320512D01*
X0348074Y0320504D01*
X0347913Y0320500D01*
X0347753Y0320500D01*
X0347592Y0320504D01*
X0347431Y0320512D01*
X0347271Y0320524D01*
X0347111Y0320540D01*
X0346951Y0320560D01*
X0346792Y0320584D01*
X0346634Y0320612D01*
X0346476Y0320643D01*
X0346320Y0320679D01*
X0346164Y0320718D01*
X0346009Y0320761D01*
X0345855Y0320808D01*
X0345702Y0320859D01*
X0345551Y0320914D01*
X0345401Y0320972D01*
X0345253Y0321034D01*
X0345106Y0321100D01*
X0344961Y0321169D01*
X0344818Y0321242D01*
X0344676Y0321318D01*
X0344537Y0321398D01*
X0344399Y0321481D01*
X0344264Y0321568D01*
X0344130Y0321658D01*
X0343999Y0321751D01*
X0343871Y0321847D01*
X0343745Y0321947D01*
X0343621Y0322050D01*
X0343500Y0322155D01*
X0343381Y0322264D01*
X0343265Y0322375D01*
X0343152Y0322490D01*
X0343042Y0322607D01*
X0342935Y0322727D01*
X0342831Y0322849D01*
X0342730Y0322974D01*
X0342632Y0323102D01*
X0342537Y0323232D01*
X0342445Y0323364D01*
X0342357Y0323498D01*
X0342272Y0323635D01*
X0342190Y0323773D01*
X0342112Y0323914D01*
X0342038Y0324056D01*
X0341967Y0324200D01*
X0341899Y0324346D01*
X0341836Y0324494D01*
X0341775Y0324643D01*
X0341719Y0324794D01*
X0341666Y0324946D01*
X0341617Y0325099D01*
X0341572Y0325253D01*
X0341531Y0325408D01*
X0341493Y0325565D01*
X0341460Y0325722D01*
X0341430Y0325880D01*
X0341404Y0326039D01*
X0341383Y0326198D01*
X0341365Y0326358D01*
X0341351Y0326518D01*
X0341341Y0326679D01*
X0341335Y0326839D01*
X0341333Y0327000D01*
X0261333Y0327000D02*
X0261335Y0327161D01*
X0261341Y0327321D01*
X0261351Y0327482D01*
X0261365Y0327642D01*
X0261383Y0327802D01*
X0261404Y0327961D01*
X0261430Y0328120D01*
X0261460Y0328278D01*
X0261493Y0328435D01*
X0261531Y0328592D01*
X0261572Y0328747D01*
X0261617Y0328901D01*
X0261666Y0329054D01*
X0261719Y0329206D01*
X0261775Y0329357D01*
X0261836Y0329506D01*
X0261899Y0329654D01*
X0261967Y0329800D01*
X0262038Y0329944D01*
X0262112Y0330086D01*
X0262190Y0330227D01*
X0262272Y0330365D01*
X0262357Y0330502D01*
X0262445Y0330636D01*
X0262537Y0330768D01*
X0262632Y0330898D01*
X0262730Y0331026D01*
X0262831Y0331151D01*
X0262935Y0331273D01*
X0263042Y0331393D01*
X0263152Y0331510D01*
X0263265Y0331625D01*
X0263381Y0331736D01*
X0263500Y0331845D01*
X0263621Y0331950D01*
X0263745Y0332053D01*
X0263871Y0332153D01*
X0263999Y0332249D01*
X0264130Y0332342D01*
X0264264Y0332432D01*
X0264399Y0332519D01*
X0264537Y0332602D01*
X0264676Y0332682D01*
X0264818Y0332758D01*
X0264961Y0332831D01*
X0265106Y0332900D01*
X0265253Y0332966D01*
X0265401Y0333028D01*
X0265551Y0333086D01*
X0265702Y0333141D01*
X0265855Y0333192D01*
X0266009Y0333239D01*
X0266164Y0333282D01*
X0266320Y0333321D01*
X0266476Y0333357D01*
X0266634Y0333388D01*
X0266792Y0333416D01*
X0266951Y0333440D01*
X0267111Y0333460D01*
X0267271Y0333476D01*
X0267431Y0333488D01*
X0267592Y0333496D01*
X0267753Y0333500D01*
X0267913Y0333500D01*
X0268074Y0333496D01*
X0268235Y0333488D01*
X0268395Y0333476D01*
X0268555Y0333460D01*
X0268715Y0333440D01*
X0268874Y0333416D01*
X0269032Y0333388D01*
X0269190Y0333357D01*
X0269346Y0333321D01*
X0269502Y0333282D01*
X0269657Y0333239D01*
X0269811Y0333192D01*
X0269964Y0333141D01*
X0270115Y0333086D01*
X0270265Y0333028D01*
X0270413Y0332966D01*
X0270560Y0332900D01*
X0270705Y0332831D01*
X0270848Y0332758D01*
X0270990Y0332682D01*
X0271129Y0332602D01*
X0271267Y0332519D01*
X0271402Y0332432D01*
X0271536Y0332342D01*
X0271667Y0332249D01*
X0271795Y0332153D01*
X0271921Y0332053D01*
X0272045Y0331950D01*
X0272166Y0331845D01*
X0272285Y0331736D01*
X0272401Y0331625D01*
X0272514Y0331510D01*
X0272624Y0331393D01*
X0272731Y0331273D01*
X0272835Y0331151D01*
X0272936Y0331026D01*
X0273034Y0330898D01*
X0273129Y0330768D01*
X0273221Y0330636D01*
X0273309Y0330502D01*
X0273394Y0330365D01*
X0273476Y0330227D01*
X0273554Y0330086D01*
X0273628Y0329944D01*
X0273699Y0329800D01*
X0273767Y0329654D01*
X0273830Y0329506D01*
X0273891Y0329357D01*
X0273947Y0329206D01*
X0274000Y0329054D01*
X0274049Y0328901D01*
X0274094Y0328747D01*
X0274135Y0328592D01*
X0274173Y0328435D01*
X0274206Y0328278D01*
X0274236Y0328120D01*
X0274262Y0327961D01*
X0274283Y0327802D01*
X0274301Y0327642D01*
X0274315Y0327482D01*
X0274325Y0327321D01*
X0274331Y0327161D01*
X0274333Y0327000D01*
X0274331Y0326839D01*
X0274325Y0326679D01*
X0274315Y0326518D01*
X0274301Y0326358D01*
X0274283Y0326198D01*
X0274262Y0326039D01*
X0274236Y0325880D01*
X0274206Y0325722D01*
X0274173Y0325565D01*
X0274135Y0325408D01*
X0274094Y0325253D01*
X0274049Y0325099D01*
X0274000Y0324946D01*
X0273947Y0324794D01*
X0273891Y0324643D01*
X0273830Y0324494D01*
X0273767Y0324346D01*
X0273699Y0324200D01*
X0273628Y0324056D01*
X0273554Y0323914D01*
X0273476Y0323773D01*
X0273394Y0323635D01*
X0273309Y0323498D01*
X0273221Y0323364D01*
X0273129Y0323232D01*
X0273034Y0323102D01*
X0272936Y0322974D01*
X0272835Y0322849D01*
X0272731Y0322727D01*
X0272624Y0322607D01*
X0272514Y0322490D01*
X0272401Y0322375D01*
X0272285Y0322264D01*
X0272166Y0322155D01*
X0272045Y0322050D01*
X0271921Y0321947D01*
X0271795Y0321847D01*
X0271667Y0321751D01*
X0271536Y0321658D01*
X0271402Y0321568D01*
X0271267Y0321481D01*
X0271129Y0321398D01*
X0270990Y0321318D01*
X0270848Y0321242D01*
X0270705Y0321169D01*
X0270560Y0321100D01*
X0270413Y0321034D01*
X0270265Y0320972D01*
X0270115Y0320914D01*
X0269964Y0320859D01*
X0269811Y0320808D01*
X0269657Y0320761D01*
X0269502Y0320718D01*
X0269346Y0320679D01*
X0269190Y0320643D01*
X0269032Y0320612D01*
X0268874Y0320584D01*
X0268715Y0320560D01*
X0268555Y0320540D01*
X0268395Y0320524D01*
X0268235Y0320512D01*
X0268074Y0320504D01*
X0267913Y0320500D01*
X0267753Y0320500D01*
X0267592Y0320504D01*
X0267431Y0320512D01*
X0267271Y0320524D01*
X0267111Y0320540D01*
X0266951Y0320560D01*
X0266792Y0320584D01*
X0266634Y0320612D01*
X0266476Y0320643D01*
X0266320Y0320679D01*
X0266164Y0320718D01*
X0266009Y0320761D01*
X0265855Y0320808D01*
X0265702Y0320859D01*
X0265551Y0320914D01*
X0265401Y0320972D01*
X0265253Y0321034D01*
X0265106Y0321100D01*
X0264961Y0321169D01*
X0264818Y0321242D01*
X0264676Y0321318D01*
X0264537Y0321398D01*
X0264399Y0321481D01*
X0264264Y0321568D01*
X0264130Y0321658D01*
X0263999Y0321751D01*
X0263871Y0321847D01*
X0263745Y0321947D01*
X0263621Y0322050D01*
X0263500Y0322155D01*
X0263381Y0322264D01*
X0263265Y0322375D01*
X0263152Y0322490D01*
X0263042Y0322607D01*
X0262935Y0322727D01*
X0262831Y0322849D01*
X0262730Y0322974D01*
X0262632Y0323102D01*
X0262537Y0323232D01*
X0262445Y0323364D01*
X0262357Y0323498D01*
X0262272Y0323635D01*
X0262190Y0323773D01*
X0262112Y0323914D01*
X0262038Y0324056D01*
X0261967Y0324200D01*
X0261899Y0324346D01*
X0261836Y0324494D01*
X0261775Y0324643D01*
X0261719Y0324794D01*
X0261666Y0324946D01*
X0261617Y0325099D01*
X0261572Y0325253D01*
X0261531Y0325408D01*
X0261493Y0325565D01*
X0261460Y0325722D01*
X0261430Y0325880D01*
X0261404Y0326039D01*
X0261383Y0326198D01*
X0261365Y0326358D01*
X0261351Y0326518D01*
X0261341Y0326679D01*
X0261335Y0326839D01*
X0261333Y0327000D01*
X0239333Y0327000D02*
X0239335Y0327161D01*
X0239341Y0327321D01*
X0239351Y0327482D01*
X0239365Y0327642D01*
X0239383Y0327802D01*
X0239404Y0327961D01*
X0239430Y0328120D01*
X0239460Y0328278D01*
X0239493Y0328435D01*
X0239531Y0328592D01*
X0239572Y0328747D01*
X0239617Y0328901D01*
X0239666Y0329054D01*
X0239719Y0329206D01*
X0239775Y0329357D01*
X0239836Y0329506D01*
X0239899Y0329654D01*
X0239967Y0329800D01*
X0240038Y0329944D01*
X0240112Y0330086D01*
X0240190Y0330227D01*
X0240272Y0330365D01*
X0240357Y0330502D01*
X0240445Y0330636D01*
X0240537Y0330768D01*
X0240632Y0330898D01*
X0240730Y0331026D01*
X0240831Y0331151D01*
X0240935Y0331273D01*
X0241042Y0331393D01*
X0241152Y0331510D01*
X0241265Y0331625D01*
X0241381Y0331736D01*
X0241500Y0331845D01*
X0241621Y0331950D01*
X0241745Y0332053D01*
X0241871Y0332153D01*
X0241999Y0332249D01*
X0242130Y0332342D01*
X0242264Y0332432D01*
X0242399Y0332519D01*
X0242537Y0332602D01*
X0242676Y0332682D01*
X0242818Y0332758D01*
X0242961Y0332831D01*
X0243106Y0332900D01*
X0243253Y0332966D01*
X0243401Y0333028D01*
X0243551Y0333086D01*
X0243702Y0333141D01*
X0243855Y0333192D01*
X0244009Y0333239D01*
X0244164Y0333282D01*
X0244320Y0333321D01*
X0244476Y0333357D01*
X0244634Y0333388D01*
X0244792Y0333416D01*
X0244951Y0333440D01*
X0245111Y0333460D01*
X0245271Y0333476D01*
X0245431Y0333488D01*
X0245592Y0333496D01*
X0245753Y0333500D01*
X0245913Y0333500D01*
X0246074Y0333496D01*
X0246235Y0333488D01*
X0246395Y0333476D01*
X0246555Y0333460D01*
X0246715Y0333440D01*
X0246874Y0333416D01*
X0247032Y0333388D01*
X0247190Y0333357D01*
X0247346Y0333321D01*
X0247502Y0333282D01*
X0247657Y0333239D01*
X0247811Y0333192D01*
X0247964Y0333141D01*
X0248115Y0333086D01*
X0248265Y0333028D01*
X0248413Y0332966D01*
X0248560Y0332900D01*
X0248705Y0332831D01*
X0248848Y0332758D01*
X0248990Y0332682D01*
X0249129Y0332602D01*
X0249267Y0332519D01*
X0249402Y0332432D01*
X0249536Y0332342D01*
X0249667Y0332249D01*
X0249795Y0332153D01*
X0249921Y0332053D01*
X0250045Y0331950D01*
X0250166Y0331845D01*
X0250285Y0331736D01*
X0250401Y0331625D01*
X0250514Y0331510D01*
X0250624Y0331393D01*
X0250731Y0331273D01*
X0250835Y0331151D01*
X0250936Y0331026D01*
X0251034Y0330898D01*
X0251129Y0330768D01*
X0251221Y0330636D01*
X0251309Y0330502D01*
X0251394Y0330365D01*
X0251476Y0330227D01*
X0251554Y0330086D01*
X0251628Y0329944D01*
X0251699Y0329800D01*
X0251767Y0329654D01*
X0251830Y0329506D01*
X0251891Y0329357D01*
X0251947Y0329206D01*
X0252000Y0329054D01*
X0252049Y0328901D01*
X0252094Y0328747D01*
X0252135Y0328592D01*
X0252173Y0328435D01*
X0252206Y0328278D01*
X0252236Y0328120D01*
X0252262Y0327961D01*
X0252283Y0327802D01*
X0252301Y0327642D01*
X0252315Y0327482D01*
X0252325Y0327321D01*
X0252331Y0327161D01*
X0252333Y0327000D01*
X0252331Y0326839D01*
X0252325Y0326679D01*
X0252315Y0326518D01*
X0252301Y0326358D01*
X0252283Y0326198D01*
X0252262Y0326039D01*
X0252236Y0325880D01*
X0252206Y0325722D01*
X0252173Y0325565D01*
X0252135Y0325408D01*
X0252094Y0325253D01*
X0252049Y0325099D01*
X0252000Y0324946D01*
X0251947Y0324794D01*
X0251891Y0324643D01*
X0251830Y0324494D01*
X0251767Y0324346D01*
X0251699Y0324200D01*
X0251628Y0324056D01*
X0251554Y0323914D01*
X0251476Y0323773D01*
X0251394Y0323635D01*
X0251309Y0323498D01*
X0251221Y0323364D01*
X0251129Y0323232D01*
X0251034Y0323102D01*
X0250936Y0322974D01*
X0250835Y0322849D01*
X0250731Y0322727D01*
X0250624Y0322607D01*
X0250514Y0322490D01*
X0250401Y0322375D01*
X0250285Y0322264D01*
X0250166Y0322155D01*
X0250045Y0322050D01*
X0249921Y0321947D01*
X0249795Y0321847D01*
X0249667Y0321751D01*
X0249536Y0321658D01*
X0249402Y0321568D01*
X0249267Y0321481D01*
X0249129Y0321398D01*
X0248990Y0321318D01*
X0248848Y0321242D01*
X0248705Y0321169D01*
X0248560Y0321100D01*
X0248413Y0321034D01*
X0248265Y0320972D01*
X0248115Y0320914D01*
X0247964Y0320859D01*
X0247811Y0320808D01*
X0247657Y0320761D01*
X0247502Y0320718D01*
X0247346Y0320679D01*
X0247190Y0320643D01*
X0247032Y0320612D01*
X0246874Y0320584D01*
X0246715Y0320560D01*
X0246555Y0320540D01*
X0246395Y0320524D01*
X0246235Y0320512D01*
X0246074Y0320504D01*
X0245913Y0320500D01*
X0245753Y0320500D01*
X0245592Y0320504D01*
X0245431Y0320512D01*
X0245271Y0320524D01*
X0245111Y0320540D01*
X0244951Y0320560D01*
X0244792Y0320584D01*
X0244634Y0320612D01*
X0244476Y0320643D01*
X0244320Y0320679D01*
X0244164Y0320718D01*
X0244009Y0320761D01*
X0243855Y0320808D01*
X0243702Y0320859D01*
X0243551Y0320914D01*
X0243401Y0320972D01*
X0243253Y0321034D01*
X0243106Y0321100D01*
X0242961Y0321169D01*
X0242818Y0321242D01*
X0242676Y0321318D01*
X0242537Y0321398D01*
X0242399Y0321481D01*
X0242264Y0321568D01*
X0242130Y0321658D01*
X0241999Y0321751D01*
X0241871Y0321847D01*
X0241745Y0321947D01*
X0241621Y0322050D01*
X0241500Y0322155D01*
X0241381Y0322264D01*
X0241265Y0322375D01*
X0241152Y0322490D01*
X0241042Y0322607D01*
X0240935Y0322727D01*
X0240831Y0322849D01*
X0240730Y0322974D01*
X0240632Y0323102D01*
X0240537Y0323232D01*
X0240445Y0323364D01*
X0240357Y0323498D01*
X0240272Y0323635D01*
X0240190Y0323773D01*
X0240112Y0323914D01*
X0240038Y0324056D01*
X0239967Y0324200D01*
X0239899Y0324346D01*
X0239836Y0324494D01*
X0239775Y0324643D01*
X0239719Y0324794D01*
X0239666Y0324946D01*
X0239617Y0325099D01*
X0239572Y0325253D01*
X0239531Y0325408D01*
X0239493Y0325565D01*
X0239460Y0325722D01*
X0239430Y0325880D01*
X0239404Y0326039D01*
X0239383Y0326198D01*
X0239365Y0326358D01*
X0239351Y0326518D01*
X0239341Y0326679D01*
X0239335Y0326839D01*
X0239333Y0327000D01*
X0159333Y0327000D02*
X0159335Y0327161D01*
X0159341Y0327321D01*
X0159351Y0327482D01*
X0159365Y0327642D01*
X0159383Y0327802D01*
X0159404Y0327961D01*
X0159430Y0328120D01*
X0159460Y0328278D01*
X0159493Y0328435D01*
X0159531Y0328592D01*
X0159572Y0328747D01*
X0159617Y0328901D01*
X0159666Y0329054D01*
X0159719Y0329206D01*
X0159775Y0329357D01*
X0159836Y0329506D01*
X0159899Y0329654D01*
X0159967Y0329800D01*
X0160038Y0329944D01*
X0160112Y0330086D01*
X0160190Y0330227D01*
X0160272Y0330365D01*
X0160357Y0330502D01*
X0160445Y0330636D01*
X0160537Y0330768D01*
X0160632Y0330898D01*
X0160730Y0331026D01*
X0160831Y0331151D01*
X0160935Y0331273D01*
X0161042Y0331393D01*
X0161152Y0331510D01*
X0161265Y0331625D01*
X0161381Y0331736D01*
X0161500Y0331845D01*
X0161621Y0331950D01*
X0161745Y0332053D01*
X0161871Y0332153D01*
X0161999Y0332249D01*
X0162130Y0332342D01*
X0162264Y0332432D01*
X0162399Y0332519D01*
X0162537Y0332602D01*
X0162676Y0332682D01*
X0162818Y0332758D01*
X0162961Y0332831D01*
X0163106Y0332900D01*
X0163253Y0332966D01*
X0163401Y0333028D01*
X0163551Y0333086D01*
X0163702Y0333141D01*
X0163855Y0333192D01*
X0164009Y0333239D01*
X0164164Y0333282D01*
X0164320Y0333321D01*
X0164476Y0333357D01*
X0164634Y0333388D01*
X0164792Y0333416D01*
X0164951Y0333440D01*
X0165111Y0333460D01*
X0165271Y0333476D01*
X0165431Y0333488D01*
X0165592Y0333496D01*
X0165753Y0333500D01*
X0165913Y0333500D01*
X0166074Y0333496D01*
X0166235Y0333488D01*
X0166395Y0333476D01*
X0166555Y0333460D01*
X0166715Y0333440D01*
X0166874Y0333416D01*
X0167032Y0333388D01*
X0167190Y0333357D01*
X0167346Y0333321D01*
X0167502Y0333282D01*
X0167657Y0333239D01*
X0167811Y0333192D01*
X0167964Y0333141D01*
X0168115Y0333086D01*
X0168265Y0333028D01*
X0168413Y0332966D01*
X0168560Y0332900D01*
X0168705Y0332831D01*
X0168848Y0332758D01*
X0168990Y0332682D01*
X0169129Y0332602D01*
X0169267Y0332519D01*
X0169402Y0332432D01*
X0169536Y0332342D01*
X0169667Y0332249D01*
X0169795Y0332153D01*
X0169921Y0332053D01*
X0170045Y0331950D01*
X0170166Y0331845D01*
X0170285Y0331736D01*
X0170401Y0331625D01*
X0170514Y0331510D01*
X0170624Y0331393D01*
X0170731Y0331273D01*
X0170835Y0331151D01*
X0170936Y0331026D01*
X0171034Y0330898D01*
X0171129Y0330768D01*
X0171221Y0330636D01*
X0171309Y0330502D01*
X0171394Y0330365D01*
X0171476Y0330227D01*
X0171554Y0330086D01*
X0171628Y0329944D01*
X0171699Y0329800D01*
X0171767Y0329654D01*
X0171830Y0329506D01*
X0171891Y0329357D01*
X0171947Y0329206D01*
X0172000Y0329054D01*
X0172049Y0328901D01*
X0172094Y0328747D01*
X0172135Y0328592D01*
X0172173Y0328435D01*
X0172206Y0328278D01*
X0172236Y0328120D01*
X0172262Y0327961D01*
X0172283Y0327802D01*
X0172301Y0327642D01*
X0172315Y0327482D01*
X0172325Y0327321D01*
X0172331Y0327161D01*
X0172333Y0327000D01*
X0172331Y0326839D01*
X0172325Y0326679D01*
X0172315Y0326518D01*
X0172301Y0326358D01*
X0172283Y0326198D01*
X0172262Y0326039D01*
X0172236Y0325880D01*
X0172206Y0325722D01*
X0172173Y0325565D01*
X0172135Y0325408D01*
X0172094Y0325253D01*
X0172049Y0325099D01*
X0172000Y0324946D01*
X0171947Y0324794D01*
X0171891Y0324643D01*
X0171830Y0324494D01*
X0171767Y0324346D01*
X0171699Y0324200D01*
X0171628Y0324056D01*
X0171554Y0323914D01*
X0171476Y0323773D01*
X0171394Y0323635D01*
X0171309Y0323498D01*
X0171221Y0323364D01*
X0171129Y0323232D01*
X0171034Y0323102D01*
X0170936Y0322974D01*
X0170835Y0322849D01*
X0170731Y0322727D01*
X0170624Y0322607D01*
X0170514Y0322490D01*
X0170401Y0322375D01*
X0170285Y0322264D01*
X0170166Y0322155D01*
X0170045Y0322050D01*
X0169921Y0321947D01*
X0169795Y0321847D01*
X0169667Y0321751D01*
X0169536Y0321658D01*
X0169402Y0321568D01*
X0169267Y0321481D01*
X0169129Y0321398D01*
X0168990Y0321318D01*
X0168848Y0321242D01*
X0168705Y0321169D01*
X0168560Y0321100D01*
X0168413Y0321034D01*
X0168265Y0320972D01*
X0168115Y0320914D01*
X0167964Y0320859D01*
X0167811Y0320808D01*
X0167657Y0320761D01*
X0167502Y0320718D01*
X0167346Y0320679D01*
X0167190Y0320643D01*
X0167032Y0320612D01*
X0166874Y0320584D01*
X0166715Y0320560D01*
X0166555Y0320540D01*
X0166395Y0320524D01*
X0166235Y0320512D01*
X0166074Y0320504D01*
X0165913Y0320500D01*
X0165753Y0320500D01*
X0165592Y0320504D01*
X0165431Y0320512D01*
X0165271Y0320524D01*
X0165111Y0320540D01*
X0164951Y0320560D01*
X0164792Y0320584D01*
X0164634Y0320612D01*
X0164476Y0320643D01*
X0164320Y0320679D01*
X0164164Y0320718D01*
X0164009Y0320761D01*
X0163855Y0320808D01*
X0163702Y0320859D01*
X0163551Y0320914D01*
X0163401Y0320972D01*
X0163253Y0321034D01*
X0163106Y0321100D01*
X0162961Y0321169D01*
X0162818Y0321242D01*
X0162676Y0321318D01*
X0162537Y0321398D01*
X0162399Y0321481D01*
X0162264Y0321568D01*
X0162130Y0321658D01*
X0161999Y0321751D01*
X0161871Y0321847D01*
X0161745Y0321947D01*
X0161621Y0322050D01*
X0161500Y0322155D01*
X0161381Y0322264D01*
X0161265Y0322375D01*
X0161152Y0322490D01*
X0161042Y0322607D01*
X0160935Y0322727D01*
X0160831Y0322849D01*
X0160730Y0322974D01*
X0160632Y0323102D01*
X0160537Y0323232D01*
X0160445Y0323364D01*
X0160357Y0323498D01*
X0160272Y0323635D01*
X0160190Y0323773D01*
X0160112Y0323914D01*
X0160038Y0324056D01*
X0159967Y0324200D01*
X0159899Y0324346D01*
X0159836Y0324494D01*
X0159775Y0324643D01*
X0159719Y0324794D01*
X0159666Y0324946D01*
X0159617Y0325099D01*
X0159572Y0325253D01*
X0159531Y0325408D01*
X0159493Y0325565D01*
X0159460Y0325722D01*
X0159430Y0325880D01*
X0159404Y0326039D01*
X0159383Y0326198D01*
X0159365Y0326358D01*
X0159351Y0326518D01*
X0159341Y0326679D01*
X0159335Y0326839D01*
X0159333Y0327000D01*
X0159333Y0225000D02*
X0159335Y0225161D01*
X0159341Y0225321D01*
X0159351Y0225482D01*
X0159365Y0225642D01*
X0159383Y0225802D01*
X0159404Y0225961D01*
X0159430Y0226120D01*
X0159460Y0226278D01*
X0159493Y0226435D01*
X0159531Y0226592D01*
X0159572Y0226747D01*
X0159617Y0226901D01*
X0159666Y0227054D01*
X0159719Y0227206D01*
X0159775Y0227357D01*
X0159836Y0227506D01*
X0159899Y0227654D01*
X0159967Y0227800D01*
X0160038Y0227944D01*
X0160112Y0228086D01*
X0160190Y0228227D01*
X0160272Y0228365D01*
X0160357Y0228502D01*
X0160445Y0228636D01*
X0160537Y0228768D01*
X0160632Y0228898D01*
X0160730Y0229026D01*
X0160831Y0229151D01*
X0160935Y0229273D01*
X0161042Y0229393D01*
X0161152Y0229510D01*
X0161265Y0229625D01*
X0161381Y0229736D01*
X0161500Y0229845D01*
X0161621Y0229950D01*
X0161745Y0230053D01*
X0161871Y0230153D01*
X0161999Y0230249D01*
X0162130Y0230342D01*
X0162264Y0230432D01*
X0162399Y0230519D01*
X0162537Y0230602D01*
X0162676Y0230682D01*
X0162818Y0230758D01*
X0162961Y0230831D01*
X0163106Y0230900D01*
X0163253Y0230966D01*
X0163401Y0231028D01*
X0163551Y0231086D01*
X0163702Y0231141D01*
X0163855Y0231192D01*
X0164009Y0231239D01*
X0164164Y0231282D01*
X0164320Y0231321D01*
X0164476Y0231357D01*
X0164634Y0231388D01*
X0164792Y0231416D01*
X0164951Y0231440D01*
X0165111Y0231460D01*
X0165271Y0231476D01*
X0165431Y0231488D01*
X0165592Y0231496D01*
X0165753Y0231500D01*
X0165913Y0231500D01*
X0166074Y0231496D01*
X0166235Y0231488D01*
X0166395Y0231476D01*
X0166555Y0231460D01*
X0166715Y0231440D01*
X0166874Y0231416D01*
X0167032Y0231388D01*
X0167190Y0231357D01*
X0167346Y0231321D01*
X0167502Y0231282D01*
X0167657Y0231239D01*
X0167811Y0231192D01*
X0167964Y0231141D01*
X0168115Y0231086D01*
X0168265Y0231028D01*
X0168413Y0230966D01*
X0168560Y0230900D01*
X0168705Y0230831D01*
X0168848Y0230758D01*
X0168990Y0230682D01*
X0169129Y0230602D01*
X0169267Y0230519D01*
X0169402Y0230432D01*
X0169536Y0230342D01*
X0169667Y0230249D01*
X0169795Y0230153D01*
X0169921Y0230053D01*
X0170045Y0229950D01*
X0170166Y0229845D01*
X0170285Y0229736D01*
X0170401Y0229625D01*
X0170514Y0229510D01*
X0170624Y0229393D01*
X0170731Y0229273D01*
X0170835Y0229151D01*
X0170936Y0229026D01*
X0171034Y0228898D01*
X0171129Y0228768D01*
X0171221Y0228636D01*
X0171309Y0228502D01*
X0171394Y0228365D01*
X0171476Y0228227D01*
X0171554Y0228086D01*
X0171628Y0227944D01*
X0171699Y0227800D01*
X0171767Y0227654D01*
X0171830Y0227506D01*
X0171891Y0227357D01*
X0171947Y0227206D01*
X0172000Y0227054D01*
X0172049Y0226901D01*
X0172094Y0226747D01*
X0172135Y0226592D01*
X0172173Y0226435D01*
X0172206Y0226278D01*
X0172236Y0226120D01*
X0172262Y0225961D01*
X0172283Y0225802D01*
X0172301Y0225642D01*
X0172315Y0225482D01*
X0172325Y0225321D01*
X0172331Y0225161D01*
X0172333Y0225000D01*
X0172331Y0224839D01*
X0172325Y0224679D01*
X0172315Y0224518D01*
X0172301Y0224358D01*
X0172283Y0224198D01*
X0172262Y0224039D01*
X0172236Y0223880D01*
X0172206Y0223722D01*
X0172173Y0223565D01*
X0172135Y0223408D01*
X0172094Y0223253D01*
X0172049Y0223099D01*
X0172000Y0222946D01*
X0171947Y0222794D01*
X0171891Y0222643D01*
X0171830Y0222494D01*
X0171767Y0222346D01*
X0171699Y0222200D01*
X0171628Y0222056D01*
X0171554Y0221914D01*
X0171476Y0221773D01*
X0171394Y0221635D01*
X0171309Y0221498D01*
X0171221Y0221364D01*
X0171129Y0221232D01*
X0171034Y0221102D01*
X0170936Y0220974D01*
X0170835Y0220849D01*
X0170731Y0220727D01*
X0170624Y0220607D01*
X0170514Y0220490D01*
X0170401Y0220375D01*
X0170285Y0220264D01*
X0170166Y0220155D01*
X0170045Y0220050D01*
X0169921Y0219947D01*
X0169795Y0219847D01*
X0169667Y0219751D01*
X0169536Y0219658D01*
X0169402Y0219568D01*
X0169267Y0219481D01*
X0169129Y0219398D01*
X0168990Y0219318D01*
X0168848Y0219242D01*
X0168705Y0219169D01*
X0168560Y0219100D01*
X0168413Y0219034D01*
X0168265Y0218972D01*
X0168115Y0218914D01*
X0167964Y0218859D01*
X0167811Y0218808D01*
X0167657Y0218761D01*
X0167502Y0218718D01*
X0167346Y0218679D01*
X0167190Y0218643D01*
X0167032Y0218612D01*
X0166874Y0218584D01*
X0166715Y0218560D01*
X0166555Y0218540D01*
X0166395Y0218524D01*
X0166235Y0218512D01*
X0166074Y0218504D01*
X0165913Y0218500D01*
X0165753Y0218500D01*
X0165592Y0218504D01*
X0165431Y0218512D01*
X0165271Y0218524D01*
X0165111Y0218540D01*
X0164951Y0218560D01*
X0164792Y0218584D01*
X0164634Y0218612D01*
X0164476Y0218643D01*
X0164320Y0218679D01*
X0164164Y0218718D01*
X0164009Y0218761D01*
X0163855Y0218808D01*
X0163702Y0218859D01*
X0163551Y0218914D01*
X0163401Y0218972D01*
X0163253Y0219034D01*
X0163106Y0219100D01*
X0162961Y0219169D01*
X0162818Y0219242D01*
X0162676Y0219318D01*
X0162537Y0219398D01*
X0162399Y0219481D01*
X0162264Y0219568D01*
X0162130Y0219658D01*
X0161999Y0219751D01*
X0161871Y0219847D01*
X0161745Y0219947D01*
X0161621Y0220050D01*
X0161500Y0220155D01*
X0161381Y0220264D01*
X0161265Y0220375D01*
X0161152Y0220490D01*
X0161042Y0220607D01*
X0160935Y0220727D01*
X0160831Y0220849D01*
X0160730Y0220974D01*
X0160632Y0221102D01*
X0160537Y0221232D01*
X0160445Y0221364D01*
X0160357Y0221498D01*
X0160272Y0221635D01*
X0160190Y0221773D01*
X0160112Y0221914D01*
X0160038Y0222056D01*
X0159967Y0222200D01*
X0159899Y0222346D01*
X0159836Y0222494D01*
X0159775Y0222643D01*
X0159719Y0222794D01*
X0159666Y0222946D01*
X0159617Y0223099D01*
X0159572Y0223253D01*
X0159531Y0223408D01*
X0159493Y0223565D01*
X0159460Y0223722D01*
X0159430Y0223880D01*
X0159404Y0224039D01*
X0159383Y0224198D01*
X0159365Y0224358D01*
X0159351Y0224518D01*
X0159341Y0224679D01*
X0159335Y0224839D01*
X0159333Y0225000D01*
X0239333Y0225000D02*
X0239335Y0225161D01*
X0239341Y0225321D01*
X0239351Y0225482D01*
X0239365Y0225642D01*
X0239383Y0225802D01*
X0239404Y0225961D01*
X0239430Y0226120D01*
X0239460Y0226278D01*
X0239493Y0226435D01*
X0239531Y0226592D01*
X0239572Y0226747D01*
X0239617Y0226901D01*
X0239666Y0227054D01*
X0239719Y0227206D01*
X0239775Y0227357D01*
X0239836Y0227506D01*
X0239899Y0227654D01*
X0239967Y0227800D01*
X0240038Y0227944D01*
X0240112Y0228086D01*
X0240190Y0228227D01*
X0240272Y0228365D01*
X0240357Y0228502D01*
X0240445Y0228636D01*
X0240537Y0228768D01*
X0240632Y0228898D01*
X0240730Y0229026D01*
X0240831Y0229151D01*
X0240935Y0229273D01*
X0241042Y0229393D01*
X0241152Y0229510D01*
X0241265Y0229625D01*
X0241381Y0229736D01*
X0241500Y0229845D01*
X0241621Y0229950D01*
X0241745Y0230053D01*
X0241871Y0230153D01*
X0241999Y0230249D01*
X0242130Y0230342D01*
X0242264Y0230432D01*
X0242399Y0230519D01*
X0242537Y0230602D01*
X0242676Y0230682D01*
X0242818Y0230758D01*
X0242961Y0230831D01*
X0243106Y0230900D01*
X0243253Y0230966D01*
X0243401Y0231028D01*
X0243551Y0231086D01*
X0243702Y0231141D01*
X0243855Y0231192D01*
X0244009Y0231239D01*
X0244164Y0231282D01*
X0244320Y0231321D01*
X0244476Y0231357D01*
X0244634Y0231388D01*
X0244792Y0231416D01*
X0244951Y0231440D01*
X0245111Y0231460D01*
X0245271Y0231476D01*
X0245431Y0231488D01*
X0245592Y0231496D01*
X0245753Y0231500D01*
X0245913Y0231500D01*
X0246074Y0231496D01*
X0246235Y0231488D01*
X0246395Y0231476D01*
X0246555Y0231460D01*
X0246715Y0231440D01*
X0246874Y0231416D01*
X0247032Y0231388D01*
X0247190Y0231357D01*
X0247346Y0231321D01*
X0247502Y0231282D01*
X0247657Y0231239D01*
X0247811Y0231192D01*
X0247964Y0231141D01*
X0248115Y0231086D01*
X0248265Y0231028D01*
X0248413Y0230966D01*
X0248560Y0230900D01*
X0248705Y0230831D01*
X0248848Y0230758D01*
X0248990Y0230682D01*
X0249129Y0230602D01*
X0249267Y0230519D01*
X0249402Y0230432D01*
X0249536Y0230342D01*
X0249667Y0230249D01*
X0249795Y0230153D01*
X0249921Y0230053D01*
X0250045Y0229950D01*
X0250166Y0229845D01*
X0250285Y0229736D01*
X0250401Y0229625D01*
X0250514Y0229510D01*
X0250624Y0229393D01*
X0250731Y0229273D01*
X0250835Y0229151D01*
X0250936Y0229026D01*
X0251034Y0228898D01*
X0251129Y0228768D01*
X0251221Y0228636D01*
X0251309Y0228502D01*
X0251394Y0228365D01*
X0251476Y0228227D01*
X0251554Y0228086D01*
X0251628Y0227944D01*
X0251699Y0227800D01*
X0251767Y0227654D01*
X0251830Y0227506D01*
X0251891Y0227357D01*
X0251947Y0227206D01*
X0252000Y0227054D01*
X0252049Y0226901D01*
X0252094Y0226747D01*
X0252135Y0226592D01*
X0252173Y0226435D01*
X0252206Y0226278D01*
X0252236Y0226120D01*
X0252262Y0225961D01*
X0252283Y0225802D01*
X0252301Y0225642D01*
X0252315Y0225482D01*
X0252325Y0225321D01*
X0252331Y0225161D01*
X0252333Y0225000D01*
X0252331Y0224839D01*
X0252325Y0224679D01*
X0252315Y0224518D01*
X0252301Y0224358D01*
X0252283Y0224198D01*
X0252262Y0224039D01*
X0252236Y0223880D01*
X0252206Y0223722D01*
X0252173Y0223565D01*
X0252135Y0223408D01*
X0252094Y0223253D01*
X0252049Y0223099D01*
X0252000Y0222946D01*
X0251947Y0222794D01*
X0251891Y0222643D01*
X0251830Y0222494D01*
X0251767Y0222346D01*
X0251699Y0222200D01*
X0251628Y0222056D01*
X0251554Y0221914D01*
X0251476Y0221773D01*
X0251394Y0221635D01*
X0251309Y0221498D01*
X0251221Y0221364D01*
X0251129Y0221232D01*
X0251034Y0221102D01*
X0250936Y0220974D01*
X0250835Y0220849D01*
X0250731Y0220727D01*
X0250624Y0220607D01*
X0250514Y0220490D01*
X0250401Y0220375D01*
X0250285Y0220264D01*
X0250166Y0220155D01*
X0250045Y0220050D01*
X0249921Y0219947D01*
X0249795Y0219847D01*
X0249667Y0219751D01*
X0249536Y0219658D01*
X0249402Y0219568D01*
X0249267Y0219481D01*
X0249129Y0219398D01*
X0248990Y0219318D01*
X0248848Y0219242D01*
X0248705Y0219169D01*
X0248560Y0219100D01*
X0248413Y0219034D01*
X0248265Y0218972D01*
X0248115Y0218914D01*
X0247964Y0218859D01*
X0247811Y0218808D01*
X0247657Y0218761D01*
X0247502Y0218718D01*
X0247346Y0218679D01*
X0247190Y0218643D01*
X0247032Y0218612D01*
X0246874Y0218584D01*
X0246715Y0218560D01*
X0246555Y0218540D01*
X0246395Y0218524D01*
X0246235Y0218512D01*
X0246074Y0218504D01*
X0245913Y0218500D01*
X0245753Y0218500D01*
X0245592Y0218504D01*
X0245431Y0218512D01*
X0245271Y0218524D01*
X0245111Y0218540D01*
X0244951Y0218560D01*
X0244792Y0218584D01*
X0244634Y0218612D01*
X0244476Y0218643D01*
X0244320Y0218679D01*
X0244164Y0218718D01*
X0244009Y0218761D01*
X0243855Y0218808D01*
X0243702Y0218859D01*
X0243551Y0218914D01*
X0243401Y0218972D01*
X0243253Y0219034D01*
X0243106Y0219100D01*
X0242961Y0219169D01*
X0242818Y0219242D01*
X0242676Y0219318D01*
X0242537Y0219398D01*
X0242399Y0219481D01*
X0242264Y0219568D01*
X0242130Y0219658D01*
X0241999Y0219751D01*
X0241871Y0219847D01*
X0241745Y0219947D01*
X0241621Y0220050D01*
X0241500Y0220155D01*
X0241381Y0220264D01*
X0241265Y0220375D01*
X0241152Y0220490D01*
X0241042Y0220607D01*
X0240935Y0220727D01*
X0240831Y0220849D01*
X0240730Y0220974D01*
X0240632Y0221102D01*
X0240537Y0221232D01*
X0240445Y0221364D01*
X0240357Y0221498D01*
X0240272Y0221635D01*
X0240190Y0221773D01*
X0240112Y0221914D01*
X0240038Y0222056D01*
X0239967Y0222200D01*
X0239899Y0222346D01*
X0239836Y0222494D01*
X0239775Y0222643D01*
X0239719Y0222794D01*
X0239666Y0222946D01*
X0239617Y0223099D01*
X0239572Y0223253D01*
X0239531Y0223408D01*
X0239493Y0223565D01*
X0239460Y0223722D01*
X0239430Y0223880D01*
X0239404Y0224039D01*
X0239383Y0224198D01*
X0239365Y0224358D01*
X0239351Y0224518D01*
X0239341Y0224679D01*
X0239335Y0224839D01*
X0239333Y0225000D01*
X0261333Y0225000D02*
X0261335Y0225161D01*
X0261341Y0225321D01*
X0261351Y0225482D01*
X0261365Y0225642D01*
X0261383Y0225802D01*
X0261404Y0225961D01*
X0261430Y0226120D01*
X0261460Y0226278D01*
X0261493Y0226435D01*
X0261531Y0226592D01*
X0261572Y0226747D01*
X0261617Y0226901D01*
X0261666Y0227054D01*
X0261719Y0227206D01*
X0261775Y0227357D01*
X0261836Y0227506D01*
X0261899Y0227654D01*
X0261967Y0227800D01*
X0262038Y0227944D01*
X0262112Y0228086D01*
X0262190Y0228227D01*
X0262272Y0228365D01*
X0262357Y0228502D01*
X0262445Y0228636D01*
X0262537Y0228768D01*
X0262632Y0228898D01*
X0262730Y0229026D01*
X0262831Y0229151D01*
X0262935Y0229273D01*
X0263042Y0229393D01*
X0263152Y0229510D01*
X0263265Y0229625D01*
X0263381Y0229736D01*
X0263500Y0229845D01*
X0263621Y0229950D01*
X0263745Y0230053D01*
X0263871Y0230153D01*
X0263999Y0230249D01*
X0264130Y0230342D01*
X0264264Y0230432D01*
X0264399Y0230519D01*
X0264537Y0230602D01*
X0264676Y0230682D01*
X0264818Y0230758D01*
X0264961Y0230831D01*
X0265106Y0230900D01*
X0265253Y0230966D01*
X0265401Y0231028D01*
X0265551Y0231086D01*
X0265702Y0231141D01*
X0265855Y0231192D01*
X0266009Y0231239D01*
X0266164Y0231282D01*
X0266320Y0231321D01*
X0266476Y0231357D01*
X0266634Y0231388D01*
X0266792Y0231416D01*
X0266951Y0231440D01*
X0267111Y0231460D01*
X0267271Y0231476D01*
X0267431Y0231488D01*
X0267592Y0231496D01*
X0267753Y0231500D01*
X0267913Y0231500D01*
X0268074Y0231496D01*
X0268235Y0231488D01*
X0268395Y0231476D01*
X0268555Y0231460D01*
X0268715Y0231440D01*
X0268874Y0231416D01*
X0269032Y0231388D01*
X0269190Y0231357D01*
X0269346Y0231321D01*
X0269502Y0231282D01*
X0269657Y0231239D01*
X0269811Y0231192D01*
X0269964Y0231141D01*
X0270115Y0231086D01*
X0270265Y0231028D01*
X0270413Y0230966D01*
X0270560Y0230900D01*
X0270705Y0230831D01*
X0270848Y0230758D01*
X0270990Y0230682D01*
X0271129Y0230602D01*
X0271267Y0230519D01*
X0271402Y0230432D01*
X0271536Y0230342D01*
X0271667Y0230249D01*
X0271795Y0230153D01*
X0271921Y0230053D01*
X0272045Y0229950D01*
X0272166Y0229845D01*
X0272285Y0229736D01*
X0272401Y0229625D01*
X0272514Y0229510D01*
X0272624Y0229393D01*
X0272731Y0229273D01*
X0272835Y0229151D01*
X0272936Y0229026D01*
X0273034Y0228898D01*
X0273129Y0228768D01*
X0273221Y0228636D01*
X0273309Y0228502D01*
X0273394Y0228365D01*
X0273476Y0228227D01*
X0273554Y0228086D01*
X0273628Y0227944D01*
X0273699Y0227800D01*
X0273767Y0227654D01*
X0273830Y0227506D01*
X0273891Y0227357D01*
X0273947Y0227206D01*
X0274000Y0227054D01*
X0274049Y0226901D01*
X0274094Y0226747D01*
X0274135Y0226592D01*
X0274173Y0226435D01*
X0274206Y0226278D01*
X0274236Y0226120D01*
X0274262Y0225961D01*
X0274283Y0225802D01*
X0274301Y0225642D01*
X0274315Y0225482D01*
X0274325Y0225321D01*
X0274331Y0225161D01*
X0274333Y0225000D01*
X0274331Y0224839D01*
X0274325Y0224679D01*
X0274315Y0224518D01*
X0274301Y0224358D01*
X0274283Y0224198D01*
X0274262Y0224039D01*
X0274236Y0223880D01*
X0274206Y0223722D01*
X0274173Y0223565D01*
X0274135Y0223408D01*
X0274094Y0223253D01*
X0274049Y0223099D01*
X0274000Y0222946D01*
X0273947Y0222794D01*
X0273891Y0222643D01*
X0273830Y0222494D01*
X0273767Y0222346D01*
X0273699Y0222200D01*
X0273628Y0222056D01*
X0273554Y0221914D01*
X0273476Y0221773D01*
X0273394Y0221635D01*
X0273309Y0221498D01*
X0273221Y0221364D01*
X0273129Y0221232D01*
X0273034Y0221102D01*
X0272936Y0220974D01*
X0272835Y0220849D01*
X0272731Y0220727D01*
X0272624Y0220607D01*
X0272514Y0220490D01*
X0272401Y0220375D01*
X0272285Y0220264D01*
X0272166Y0220155D01*
X0272045Y0220050D01*
X0271921Y0219947D01*
X0271795Y0219847D01*
X0271667Y0219751D01*
X0271536Y0219658D01*
X0271402Y0219568D01*
X0271267Y0219481D01*
X0271129Y0219398D01*
X0270990Y0219318D01*
X0270848Y0219242D01*
X0270705Y0219169D01*
X0270560Y0219100D01*
X0270413Y0219034D01*
X0270265Y0218972D01*
X0270115Y0218914D01*
X0269964Y0218859D01*
X0269811Y0218808D01*
X0269657Y0218761D01*
X0269502Y0218718D01*
X0269346Y0218679D01*
X0269190Y0218643D01*
X0269032Y0218612D01*
X0268874Y0218584D01*
X0268715Y0218560D01*
X0268555Y0218540D01*
X0268395Y0218524D01*
X0268235Y0218512D01*
X0268074Y0218504D01*
X0267913Y0218500D01*
X0267753Y0218500D01*
X0267592Y0218504D01*
X0267431Y0218512D01*
X0267271Y0218524D01*
X0267111Y0218540D01*
X0266951Y0218560D01*
X0266792Y0218584D01*
X0266634Y0218612D01*
X0266476Y0218643D01*
X0266320Y0218679D01*
X0266164Y0218718D01*
X0266009Y0218761D01*
X0265855Y0218808D01*
X0265702Y0218859D01*
X0265551Y0218914D01*
X0265401Y0218972D01*
X0265253Y0219034D01*
X0265106Y0219100D01*
X0264961Y0219169D01*
X0264818Y0219242D01*
X0264676Y0219318D01*
X0264537Y0219398D01*
X0264399Y0219481D01*
X0264264Y0219568D01*
X0264130Y0219658D01*
X0263999Y0219751D01*
X0263871Y0219847D01*
X0263745Y0219947D01*
X0263621Y0220050D01*
X0263500Y0220155D01*
X0263381Y0220264D01*
X0263265Y0220375D01*
X0263152Y0220490D01*
X0263042Y0220607D01*
X0262935Y0220727D01*
X0262831Y0220849D01*
X0262730Y0220974D01*
X0262632Y0221102D01*
X0262537Y0221232D01*
X0262445Y0221364D01*
X0262357Y0221498D01*
X0262272Y0221635D01*
X0262190Y0221773D01*
X0262112Y0221914D01*
X0262038Y0222056D01*
X0261967Y0222200D01*
X0261899Y0222346D01*
X0261836Y0222494D01*
X0261775Y0222643D01*
X0261719Y0222794D01*
X0261666Y0222946D01*
X0261617Y0223099D01*
X0261572Y0223253D01*
X0261531Y0223408D01*
X0261493Y0223565D01*
X0261460Y0223722D01*
X0261430Y0223880D01*
X0261404Y0224039D01*
X0261383Y0224198D01*
X0261365Y0224358D01*
X0261351Y0224518D01*
X0261341Y0224679D01*
X0261335Y0224839D01*
X0261333Y0225000D01*
X0261333Y0429000D02*
X0261335Y0429161D01*
X0261341Y0429321D01*
X0261351Y0429482D01*
X0261365Y0429642D01*
X0261383Y0429802D01*
X0261404Y0429961D01*
X0261430Y0430120D01*
X0261460Y0430278D01*
X0261493Y0430435D01*
X0261531Y0430592D01*
X0261572Y0430747D01*
X0261617Y0430901D01*
X0261666Y0431054D01*
X0261719Y0431206D01*
X0261775Y0431357D01*
X0261836Y0431506D01*
X0261899Y0431654D01*
X0261967Y0431800D01*
X0262038Y0431944D01*
X0262112Y0432086D01*
X0262190Y0432227D01*
X0262272Y0432365D01*
X0262357Y0432502D01*
X0262445Y0432636D01*
X0262537Y0432768D01*
X0262632Y0432898D01*
X0262730Y0433026D01*
X0262831Y0433151D01*
X0262935Y0433273D01*
X0263042Y0433393D01*
X0263152Y0433510D01*
X0263265Y0433625D01*
X0263381Y0433736D01*
X0263500Y0433845D01*
X0263621Y0433950D01*
X0263745Y0434053D01*
X0263871Y0434153D01*
X0263999Y0434249D01*
X0264130Y0434342D01*
X0264264Y0434432D01*
X0264399Y0434519D01*
X0264537Y0434602D01*
X0264676Y0434682D01*
X0264818Y0434758D01*
X0264961Y0434831D01*
X0265106Y0434900D01*
X0265253Y0434966D01*
X0265401Y0435028D01*
X0265551Y0435086D01*
X0265702Y0435141D01*
X0265855Y0435192D01*
X0266009Y0435239D01*
X0266164Y0435282D01*
X0266320Y0435321D01*
X0266476Y0435357D01*
X0266634Y0435388D01*
X0266792Y0435416D01*
X0266951Y0435440D01*
X0267111Y0435460D01*
X0267271Y0435476D01*
X0267431Y0435488D01*
X0267592Y0435496D01*
X0267753Y0435500D01*
X0267913Y0435500D01*
X0268074Y0435496D01*
X0268235Y0435488D01*
X0268395Y0435476D01*
X0268555Y0435460D01*
X0268715Y0435440D01*
X0268874Y0435416D01*
X0269032Y0435388D01*
X0269190Y0435357D01*
X0269346Y0435321D01*
X0269502Y0435282D01*
X0269657Y0435239D01*
X0269811Y0435192D01*
X0269964Y0435141D01*
X0270115Y0435086D01*
X0270265Y0435028D01*
X0270413Y0434966D01*
X0270560Y0434900D01*
X0270705Y0434831D01*
X0270848Y0434758D01*
X0270990Y0434682D01*
X0271129Y0434602D01*
X0271267Y0434519D01*
X0271402Y0434432D01*
X0271536Y0434342D01*
X0271667Y0434249D01*
X0271795Y0434153D01*
X0271921Y0434053D01*
X0272045Y0433950D01*
X0272166Y0433845D01*
X0272285Y0433736D01*
X0272401Y0433625D01*
X0272514Y0433510D01*
X0272624Y0433393D01*
X0272731Y0433273D01*
X0272835Y0433151D01*
X0272936Y0433026D01*
X0273034Y0432898D01*
X0273129Y0432768D01*
X0273221Y0432636D01*
X0273309Y0432502D01*
X0273394Y0432365D01*
X0273476Y0432227D01*
X0273554Y0432086D01*
X0273628Y0431944D01*
X0273699Y0431800D01*
X0273767Y0431654D01*
X0273830Y0431506D01*
X0273891Y0431357D01*
X0273947Y0431206D01*
X0274000Y0431054D01*
X0274049Y0430901D01*
X0274094Y0430747D01*
X0274135Y0430592D01*
X0274173Y0430435D01*
X0274206Y0430278D01*
X0274236Y0430120D01*
X0274262Y0429961D01*
X0274283Y0429802D01*
X0274301Y0429642D01*
X0274315Y0429482D01*
X0274325Y0429321D01*
X0274331Y0429161D01*
X0274333Y0429000D01*
X0274331Y0428839D01*
X0274325Y0428679D01*
X0274315Y0428518D01*
X0274301Y0428358D01*
X0274283Y0428198D01*
X0274262Y0428039D01*
X0274236Y0427880D01*
X0274206Y0427722D01*
X0274173Y0427565D01*
X0274135Y0427408D01*
X0274094Y0427253D01*
X0274049Y0427099D01*
X0274000Y0426946D01*
X0273947Y0426794D01*
X0273891Y0426643D01*
X0273830Y0426494D01*
X0273767Y0426346D01*
X0273699Y0426200D01*
X0273628Y0426056D01*
X0273554Y0425914D01*
X0273476Y0425773D01*
X0273394Y0425635D01*
X0273309Y0425498D01*
X0273221Y0425364D01*
X0273129Y0425232D01*
X0273034Y0425102D01*
X0272936Y0424974D01*
X0272835Y0424849D01*
X0272731Y0424727D01*
X0272624Y0424607D01*
X0272514Y0424490D01*
X0272401Y0424375D01*
X0272285Y0424264D01*
X0272166Y0424155D01*
X0272045Y0424050D01*
X0271921Y0423947D01*
X0271795Y0423847D01*
X0271667Y0423751D01*
X0271536Y0423658D01*
X0271402Y0423568D01*
X0271267Y0423481D01*
X0271129Y0423398D01*
X0270990Y0423318D01*
X0270848Y0423242D01*
X0270705Y0423169D01*
X0270560Y0423100D01*
X0270413Y0423034D01*
X0270265Y0422972D01*
X0270115Y0422914D01*
X0269964Y0422859D01*
X0269811Y0422808D01*
X0269657Y0422761D01*
X0269502Y0422718D01*
X0269346Y0422679D01*
X0269190Y0422643D01*
X0269032Y0422612D01*
X0268874Y0422584D01*
X0268715Y0422560D01*
X0268555Y0422540D01*
X0268395Y0422524D01*
X0268235Y0422512D01*
X0268074Y0422504D01*
X0267913Y0422500D01*
X0267753Y0422500D01*
X0267592Y0422504D01*
X0267431Y0422512D01*
X0267271Y0422524D01*
X0267111Y0422540D01*
X0266951Y0422560D01*
X0266792Y0422584D01*
X0266634Y0422612D01*
X0266476Y0422643D01*
X0266320Y0422679D01*
X0266164Y0422718D01*
X0266009Y0422761D01*
X0265855Y0422808D01*
X0265702Y0422859D01*
X0265551Y0422914D01*
X0265401Y0422972D01*
X0265253Y0423034D01*
X0265106Y0423100D01*
X0264961Y0423169D01*
X0264818Y0423242D01*
X0264676Y0423318D01*
X0264537Y0423398D01*
X0264399Y0423481D01*
X0264264Y0423568D01*
X0264130Y0423658D01*
X0263999Y0423751D01*
X0263871Y0423847D01*
X0263745Y0423947D01*
X0263621Y0424050D01*
X0263500Y0424155D01*
X0263381Y0424264D01*
X0263265Y0424375D01*
X0263152Y0424490D01*
X0263042Y0424607D01*
X0262935Y0424727D01*
X0262831Y0424849D01*
X0262730Y0424974D01*
X0262632Y0425102D01*
X0262537Y0425232D01*
X0262445Y0425364D01*
X0262357Y0425498D01*
X0262272Y0425635D01*
X0262190Y0425773D01*
X0262112Y0425914D01*
X0262038Y0426056D01*
X0261967Y0426200D01*
X0261899Y0426346D01*
X0261836Y0426494D01*
X0261775Y0426643D01*
X0261719Y0426794D01*
X0261666Y0426946D01*
X0261617Y0427099D01*
X0261572Y0427253D01*
X0261531Y0427408D01*
X0261493Y0427565D01*
X0261460Y0427722D01*
X0261430Y0427880D01*
X0261404Y0428039D01*
X0261383Y0428198D01*
X0261365Y0428358D01*
X0261351Y0428518D01*
X0261341Y0428679D01*
X0261335Y0428839D01*
X0261333Y0429000D01*
X0239333Y0429000D02*
X0239335Y0429161D01*
X0239341Y0429321D01*
X0239351Y0429482D01*
X0239365Y0429642D01*
X0239383Y0429802D01*
X0239404Y0429961D01*
X0239430Y0430120D01*
X0239460Y0430278D01*
X0239493Y0430435D01*
X0239531Y0430592D01*
X0239572Y0430747D01*
X0239617Y0430901D01*
X0239666Y0431054D01*
X0239719Y0431206D01*
X0239775Y0431357D01*
X0239836Y0431506D01*
X0239899Y0431654D01*
X0239967Y0431800D01*
X0240038Y0431944D01*
X0240112Y0432086D01*
X0240190Y0432227D01*
X0240272Y0432365D01*
X0240357Y0432502D01*
X0240445Y0432636D01*
X0240537Y0432768D01*
X0240632Y0432898D01*
X0240730Y0433026D01*
X0240831Y0433151D01*
X0240935Y0433273D01*
X0241042Y0433393D01*
X0241152Y0433510D01*
X0241265Y0433625D01*
X0241381Y0433736D01*
X0241500Y0433845D01*
X0241621Y0433950D01*
X0241745Y0434053D01*
X0241871Y0434153D01*
X0241999Y0434249D01*
X0242130Y0434342D01*
X0242264Y0434432D01*
X0242399Y0434519D01*
X0242537Y0434602D01*
X0242676Y0434682D01*
X0242818Y0434758D01*
X0242961Y0434831D01*
X0243106Y0434900D01*
X0243253Y0434966D01*
X0243401Y0435028D01*
X0243551Y0435086D01*
X0243702Y0435141D01*
X0243855Y0435192D01*
X0244009Y0435239D01*
X0244164Y0435282D01*
X0244320Y0435321D01*
X0244476Y0435357D01*
X0244634Y0435388D01*
X0244792Y0435416D01*
X0244951Y0435440D01*
X0245111Y0435460D01*
X0245271Y0435476D01*
X0245431Y0435488D01*
X0245592Y0435496D01*
X0245753Y0435500D01*
X0245913Y0435500D01*
X0246074Y0435496D01*
X0246235Y0435488D01*
X0246395Y0435476D01*
X0246555Y0435460D01*
X0246715Y0435440D01*
X0246874Y0435416D01*
X0247032Y0435388D01*
X0247190Y0435357D01*
X0247346Y0435321D01*
X0247502Y0435282D01*
X0247657Y0435239D01*
X0247811Y0435192D01*
X0247964Y0435141D01*
X0248115Y0435086D01*
X0248265Y0435028D01*
X0248413Y0434966D01*
X0248560Y0434900D01*
X0248705Y0434831D01*
X0248848Y0434758D01*
X0248990Y0434682D01*
X0249129Y0434602D01*
X0249267Y0434519D01*
X0249402Y0434432D01*
X0249536Y0434342D01*
X0249667Y0434249D01*
X0249795Y0434153D01*
X0249921Y0434053D01*
X0250045Y0433950D01*
X0250166Y0433845D01*
X0250285Y0433736D01*
X0250401Y0433625D01*
X0250514Y0433510D01*
X0250624Y0433393D01*
X0250731Y0433273D01*
X0250835Y0433151D01*
X0250936Y0433026D01*
X0251034Y0432898D01*
X0251129Y0432768D01*
X0251221Y0432636D01*
X0251309Y0432502D01*
X0251394Y0432365D01*
X0251476Y0432227D01*
X0251554Y0432086D01*
X0251628Y0431944D01*
X0251699Y0431800D01*
X0251767Y0431654D01*
X0251830Y0431506D01*
X0251891Y0431357D01*
X0251947Y0431206D01*
X0252000Y0431054D01*
X0252049Y0430901D01*
X0252094Y0430747D01*
X0252135Y0430592D01*
X0252173Y0430435D01*
X0252206Y0430278D01*
X0252236Y0430120D01*
X0252262Y0429961D01*
X0252283Y0429802D01*
X0252301Y0429642D01*
X0252315Y0429482D01*
X0252325Y0429321D01*
X0252331Y0429161D01*
X0252333Y0429000D01*
X0252331Y0428839D01*
X0252325Y0428679D01*
X0252315Y0428518D01*
X0252301Y0428358D01*
X0252283Y0428198D01*
X0252262Y0428039D01*
X0252236Y0427880D01*
X0252206Y0427722D01*
X0252173Y0427565D01*
X0252135Y0427408D01*
X0252094Y0427253D01*
X0252049Y0427099D01*
X0252000Y0426946D01*
X0251947Y0426794D01*
X0251891Y0426643D01*
X0251830Y0426494D01*
X0251767Y0426346D01*
X0251699Y0426200D01*
X0251628Y0426056D01*
X0251554Y0425914D01*
X0251476Y0425773D01*
X0251394Y0425635D01*
X0251309Y0425498D01*
X0251221Y0425364D01*
X0251129Y0425232D01*
X0251034Y0425102D01*
X0250936Y0424974D01*
X0250835Y0424849D01*
X0250731Y0424727D01*
X0250624Y0424607D01*
X0250514Y0424490D01*
X0250401Y0424375D01*
X0250285Y0424264D01*
X0250166Y0424155D01*
X0250045Y0424050D01*
X0249921Y0423947D01*
X0249795Y0423847D01*
X0249667Y0423751D01*
X0249536Y0423658D01*
X0249402Y0423568D01*
X0249267Y0423481D01*
X0249129Y0423398D01*
X0248990Y0423318D01*
X0248848Y0423242D01*
X0248705Y0423169D01*
X0248560Y0423100D01*
X0248413Y0423034D01*
X0248265Y0422972D01*
X0248115Y0422914D01*
X0247964Y0422859D01*
X0247811Y0422808D01*
X0247657Y0422761D01*
X0247502Y0422718D01*
X0247346Y0422679D01*
X0247190Y0422643D01*
X0247032Y0422612D01*
X0246874Y0422584D01*
X0246715Y0422560D01*
X0246555Y0422540D01*
X0246395Y0422524D01*
X0246235Y0422512D01*
X0246074Y0422504D01*
X0245913Y0422500D01*
X0245753Y0422500D01*
X0245592Y0422504D01*
X0245431Y0422512D01*
X0245271Y0422524D01*
X0245111Y0422540D01*
X0244951Y0422560D01*
X0244792Y0422584D01*
X0244634Y0422612D01*
X0244476Y0422643D01*
X0244320Y0422679D01*
X0244164Y0422718D01*
X0244009Y0422761D01*
X0243855Y0422808D01*
X0243702Y0422859D01*
X0243551Y0422914D01*
X0243401Y0422972D01*
X0243253Y0423034D01*
X0243106Y0423100D01*
X0242961Y0423169D01*
X0242818Y0423242D01*
X0242676Y0423318D01*
X0242537Y0423398D01*
X0242399Y0423481D01*
X0242264Y0423568D01*
X0242130Y0423658D01*
X0241999Y0423751D01*
X0241871Y0423847D01*
X0241745Y0423947D01*
X0241621Y0424050D01*
X0241500Y0424155D01*
X0241381Y0424264D01*
X0241265Y0424375D01*
X0241152Y0424490D01*
X0241042Y0424607D01*
X0240935Y0424727D01*
X0240831Y0424849D01*
X0240730Y0424974D01*
X0240632Y0425102D01*
X0240537Y0425232D01*
X0240445Y0425364D01*
X0240357Y0425498D01*
X0240272Y0425635D01*
X0240190Y0425773D01*
X0240112Y0425914D01*
X0240038Y0426056D01*
X0239967Y0426200D01*
X0239899Y0426346D01*
X0239836Y0426494D01*
X0239775Y0426643D01*
X0239719Y0426794D01*
X0239666Y0426946D01*
X0239617Y0427099D01*
X0239572Y0427253D01*
X0239531Y0427408D01*
X0239493Y0427565D01*
X0239460Y0427722D01*
X0239430Y0427880D01*
X0239404Y0428039D01*
X0239383Y0428198D01*
X0239365Y0428358D01*
X0239351Y0428518D01*
X0239341Y0428679D01*
X0239335Y0428839D01*
X0239333Y0429000D01*
X0159333Y0429000D02*
X0159335Y0429161D01*
X0159341Y0429321D01*
X0159351Y0429482D01*
X0159365Y0429642D01*
X0159383Y0429802D01*
X0159404Y0429961D01*
X0159430Y0430120D01*
X0159460Y0430278D01*
X0159493Y0430435D01*
X0159531Y0430592D01*
X0159572Y0430747D01*
X0159617Y0430901D01*
X0159666Y0431054D01*
X0159719Y0431206D01*
X0159775Y0431357D01*
X0159836Y0431506D01*
X0159899Y0431654D01*
X0159967Y0431800D01*
X0160038Y0431944D01*
X0160112Y0432086D01*
X0160190Y0432227D01*
X0160272Y0432365D01*
X0160357Y0432502D01*
X0160445Y0432636D01*
X0160537Y0432768D01*
X0160632Y0432898D01*
X0160730Y0433026D01*
X0160831Y0433151D01*
X0160935Y0433273D01*
X0161042Y0433393D01*
X0161152Y0433510D01*
X0161265Y0433625D01*
X0161381Y0433736D01*
X0161500Y0433845D01*
X0161621Y0433950D01*
X0161745Y0434053D01*
X0161871Y0434153D01*
X0161999Y0434249D01*
X0162130Y0434342D01*
X0162264Y0434432D01*
X0162399Y0434519D01*
X0162537Y0434602D01*
X0162676Y0434682D01*
X0162818Y0434758D01*
X0162961Y0434831D01*
X0163106Y0434900D01*
X0163253Y0434966D01*
X0163401Y0435028D01*
X0163551Y0435086D01*
X0163702Y0435141D01*
X0163855Y0435192D01*
X0164009Y0435239D01*
X0164164Y0435282D01*
X0164320Y0435321D01*
X0164476Y0435357D01*
X0164634Y0435388D01*
X0164792Y0435416D01*
X0164951Y0435440D01*
X0165111Y0435460D01*
X0165271Y0435476D01*
X0165431Y0435488D01*
X0165592Y0435496D01*
X0165753Y0435500D01*
X0165913Y0435500D01*
X0166074Y0435496D01*
X0166235Y0435488D01*
X0166395Y0435476D01*
X0166555Y0435460D01*
X0166715Y0435440D01*
X0166874Y0435416D01*
X0167032Y0435388D01*
X0167190Y0435357D01*
X0167346Y0435321D01*
X0167502Y0435282D01*
X0167657Y0435239D01*
X0167811Y0435192D01*
X0167964Y0435141D01*
X0168115Y0435086D01*
X0168265Y0435028D01*
X0168413Y0434966D01*
X0168560Y0434900D01*
X0168705Y0434831D01*
X0168848Y0434758D01*
X0168990Y0434682D01*
X0169129Y0434602D01*
X0169267Y0434519D01*
X0169402Y0434432D01*
X0169536Y0434342D01*
X0169667Y0434249D01*
X0169795Y0434153D01*
X0169921Y0434053D01*
X0170045Y0433950D01*
X0170166Y0433845D01*
X0170285Y0433736D01*
X0170401Y0433625D01*
X0170514Y0433510D01*
X0170624Y0433393D01*
X0170731Y0433273D01*
X0170835Y0433151D01*
X0170936Y0433026D01*
X0171034Y0432898D01*
X0171129Y0432768D01*
X0171221Y0432636D01*
X0171309Y0432502D01*
X0171394Y0432365D01*
X0171476Y0432227D01*
X0171554Y0432086D01*
X0171628Y0431944D01*
X0171699Y0431800D01*
X0171767Y0431654D01*
X0171830Y0431506D01*
X0171891Y0431357D01*
X0171947Y0431206D01*
X0172000Y0431054D01*
X0172049Y0430901D01*
X0172094Y0430747D01*
X0172135Y0430592D01*
X0172173Y0430435D01*
X0172206Y0430278D01*
X0172236Y0430120D01*
X0172262Y0429961D01*
X0172283Y0429802D01*
X0172301Y0429642D01*
X0172315Y0429482D01*
X0172325Y0429321D01*
X0172331Y0429161D01*
X0172333Y0429000D01*
X0172331Y0428839D01*
X0172325Y0428679D01*
X0172315Y0428518D01*
X0172301Y0428358D01*
X0172283Y0428198D01*
X0172262Y0428039D01*
X0172236Y0427880D01*
X0172206Y0427722D01*
X0172173Y0427565D01*
X0172135Y0427408D01*
X0172094Y0427253D01*
X0172049Y0427099D01*
X0172000Y0426946D01*
X0171947Y0426794D01*
X0171891Y0426643D01*
X0171830Y0426494D01*
X0171767Y0426346D01*
X0171699Y0426200D01*
X0171628Y0426056D01*
X0171554Y0425914D01*
X0171476Y0425773D01*
X0171394Y0425635D01*
X0171309Y0425498D01*
X0171221Y0425364D01*
X0171129Y0425232D01*
X0171034Y0425102D01*
X0170936Y0424974D01*
X0170835Y0424849D01*
X0170731Y0424727D01*
X0170624Y0424607D01*
X0170514Y0424490D01*
X0170401Y0424375D01*
X0170285Y0424264D01*
X0170166Y0424155D01*
X0170045Y0424050D01*
X0169921Y0423947D01*
X0169795Y0423847D01*
X0169667Y0423751D01*
X0169536Y0423658D01*
X0169402Y0423568D01*
X0169267Y0423481D01*
X0169129Y0423398D01*
X0168990Y0423318D01*
X0168848Y0423242D01*
X0168705Y0423169D01*
X0168560Y0423100D01*
X0168413Y0423034D01*
X0168265Y0422972D01*
X0168115Y0422914D01*
X0167964Y0422859D01*
X0167811Y0422808D01*
X0167657Y0422761D01*
X0167502Y0422718D01*
X0167346Y0422679D01*
X0167190Y0422643D01*
X0167032Y0422612D01*
X0166874Y0422584D01*
X0166715Y0422560D01*
X0166555Y0422540D01*
X0166395Y0422524D01*
X0166235Y0422512D01*
X0166074Y0422504D01*
X0165913Y0422500D01*
X0165753Y0422500D01*
X0165592Y0422504D01*
X0165431Y0422512D01*
X0165271Y0422524D01*
X0165111Y0422540D01*
X0164951Y0422560D01*
X0164792Y0422584D01*
X0164634Y0422612D01*
X0164476Y0422643D01*
X0164320Y0422679D01*
X0164164Y0422718D01*
X0164009Y0422761D01*
X0163855Y0422808D01*
X0163702Y0422859D01*
X0163551Y0422914D01*
X0163401Y0422972D01*
X0163253Y0423034D01*
X0163106Y0423100D01*
X0162961Y0423169D01*
X0162818Y0423242D01*
X0162676Y0423318D01*
X0162537Y0423398D01*
X0162399Y0423481D01*
X0162264Y0423568D01*
X0162130Y0423658D01*
X0161999Y0423751D01*
X0161871Y0423847D01*
X0161745Y0423947D01*
X0161621Y0424050D01*
X0161500Y0424155D01*
X0161381Y0424264D01*
X0161265Y0424375D01*
X0161152Y0424490D01*
X0161042Y0424607D01*
X0160935Y0424727D01*
X0160831Y0424849D01*
X0160730Y0424974D01*
X0160632Y0425102D01*
X0160537Y0425232D01*
X0160445Y0425364D01*
X0160357Y0425498D01*
X0160272Y0425635D01*
X0160190Y0425773D01*
X0160112Y0425914D01*
X0160038Y0426056D01*
X0159967Y0426200D01*
X0159899Y0426346D01*
X0159836Y0426494D01*
X0159775Y0426643D01*
X0159719Y0426794D01*
X0159666Y0426946D01*
X0159617Y0427099D01*
X0159572Y0427253D01*
X0159531Y0427408D01*
X0159493Y0427565D01*
X0159460Y0427722D01*
X0159430Y0427880D01*
X0159404Y0428039D01*
X0159383Y0428198D01*
X0159365Y0428358D01*
X0159351Y0428518D01*
X0159341Y0428679D01*
X0159335Y0428839D01*
X0159333Y0429000D01*
X0341333Y0429000D02*
X0341335Y0429161D01*
X0341341Y0429321D01*
X0341351Y0429482D01*
X0341365Y0429642D01*
X0341383Y0429802D01*
X0341404Y0429961D01*
X0341430Y0430120D01*
X0341460Y0430278D01*
X0341493Y0430435D01*
X0341531Y0430592D01*
X0341572Y0430747D01*
X0341617Y0430901D01*
X0341666Y0431054D01*
X0341719Y0431206D01*
X0341775Y0431357D01*
X0341836Y0431506D01*
X0341899Y0431654D01*
X0341967Y0431800D01*
X0342038Y0431944D01*
X0342112Y0432086D01*
X0342190Y0432227D01*
X0342272Y0432365D01*
X0342357Y0432502D01*
X0342445Y0432636D01*
X0342537Y0432768D01*
X0342632Y0432898D01*
X0342730Y0433026D01*
X0342831Y0433151D01*
X0342935Y0433273D01*
X0343042Y0433393D01*
X0343152Y0433510D01*
X0343265Y0433625D01*
X0343381Y0433736D01*
X0343500Y0433845D01*
X0343621Y0433950D01*
X0343745Y0434053D01*
X0343871Y0434153D01*
X0343999Y0434249D01*
X0344130Y0434342D01*
X0344264Y0434432D01*
X0344399Y0434519D01*
X0344537Y0434602D01*
X0344676Y0434682D01*
X0344818Y0434758D01*
X0344961Y0434831D01*
X0345106Y0434900D01*
X0345253Y0434966D01*
X0345401Y0435028D01*
X0345551Y0435086D01*
X0345702Y0435141D01*
X0345855Y0435192D01*
X0346009Y0435239D01*
X0346164Y0435282D01*
X0346320Y0435321D01*
X0346476Y0435357D01*
X0346634Y0435388D01*
X0346792Y0435416D01*
X0346951Y0435440D01*
X0347111Y0435460D01*
X0347271Y0435476D01*
X0347431Y0435488D01*
X0347592Y0435496D01*
X0347753Y0435500D01*
X0347913Y0435500D01*
X0348074Y0435496D01*
X0348235Y0435488D01*
X0348395Y0435476D01*
X0348555Y0435460D01*
X0348715Y0435440D01*
X0348874Y0435416D01*
X0349032Y0435388D01*
X0349190Y0435357D01*
X0349346Y0435321D01*
X0349502Y0435282D01*
X0349657Y0435239D01*
X0349811Y0435192D01*
X0349964Y0435141D01*
X0350115Y0435086D01*
X0350265Y0435028D01*
X0350413Y0434966D01*
X0350560Y0434900D01*
X0350705Y0434831D01*
X0350848Y0434758D01*
X0350990Y0434682D01*
X0351129Y0434602D01*
X0351267Y0434519D01*
X0351402Y0434432D01*
X0351536Y0434342D01*
X0351667Y0434249D01*
X0351795Y0434153D01*
X0351921Y0434053D01*
X0352045Y0433950D01*
X0352166Y0433845D01*
X0352285Y0433736D01*
X0352401Y0433625D01*
X0352514Y0433510D01*
X0352624Y0433393D01*
X0352731Y0433273D01*
X0352835Y0433151D01*
X0352936Y0433026D01*
X0353034Y0432898D01*
X0353129Y0432768D01*
X0353221Y0432636D01*
X0353309Y0432502D01*
X0353394Y0432365D01*
X0353476Y0432227D01*
X0353554Y0432086D01*
X0353628Y0431944D01*
X0353699Y0431800D01*
X0353767Y0431654D01*
X0353830Y0431506D01*
X0353891Y0431357D01*
X0353947Y0431206D01*
X0354000Y0431054D01*
X0354049Y0430901D01*
X0354094Y0430747D01*
X0354135Y0430592D01*
X0354173Y0430435D01*
X0354206Y0430278D01*
X0354236Y0430120D01*
X0354262Y0429961D01*
X0354283Y0429802D01*
X0354301Y0429642D01*
X0354315Y0429482D01*
X0354325Y0429321D01*
X0354331Y0429161D01*
X0354333Y0429000D01*
X0354331Y0428839D01*
X0354325Y0428679D01*
X0354315Y0428518D01*
X0354301Y0428358D01*
X0354283Y0428198D01*
X0354262Y0428039D01*
X0354236Y0427880D01*
X0354206Y0427722D01*
X0354173Y0427565D01*
X0354135Y0427408D01*
X0354094Y0427253D01*
X0354049Y0427099D01*
X0354000Y0426946D01*
X0353947Y0426794D01*
X0353891Y0426643D01*
X0353830Y0426494D01*
X0353767Y0426346D01*
X0353699Y0426200D01*
X0353628Y0426056D01*
X0353554Y0425914D01*
X0353476Y0425773D01*
X0353394Y0425635D01*
X0353309Y0425498D01*
X0353221Y0425364D01*
X0353129Y0425232D01*
X0353034Y0425102D01*
X0352936Y0424974D01*
X0352835Y0424849D01*
X0352731Y0424727D01*
X0352624Y0424607D01*
X0352514Y0424490D01*
X0352401Y0424375D01*
X0352285Y0424264D01*
X0352166Y0424155D01*
X0352045Y0424050D01*
X0351921Y0423947D01*
X0351795Y0423847D01*
X0351667Y0423751D01*
X0351536Y0423658D01*
X0351402Y0423568D01*
X0351267Y0423481D01*
X0351129Y0423398D01*
X0350990Y0423318D01*
X0350848Y0423242D01*
X0350705Y0423169D01*
X0350560Y0423100D01*
X0350413Y0423034D01*
X0350265Y0422972D01*
X0350115Y0422914D01*
X0349964Y0422859D01*
X0349811Y0422808D01*
X0349657Y0422761D01*
X0349502Y0422718D01*
X0349346Y0422679D01*
X0349190Y0422643D01*
X0349032Y0422612D01*
X0348874Y0422584D01*
X0348715Y0422560D01*
X0348555Y0422540D01*
X0348395Y0422524D01*
X0348235Y0422512D01*
X0348074Y0422504D01*
X0347913Y0422500D01*
X0347753Y0422500D01*
X0347592Y0422504D01*
X0347431Y0422512D01*
X0347271Y0422524D01*
X0347111Y0422540D01*
X0346951Y0422560D01*
X0346792Y0422584D01*
X0346634Y0422612D01*
X0346476Y0422643D01*
X0346320Y0422679D01*
X0346164Y0422718D01*
X0346009Y0422761D01*
X0345855Y0422808D01*
X0345702Y0422859D01*
X0345551Y0422914D01*
X0345401Y0422972D01*
X0345253Y0423034D01*
X0345106Y0423100D01*
X0344961Y0423169D01*
X0344818Y0423242D01*
X0344676Y0423318D01*
X0344537Y0423398D01*
X0344399Y0423481D01*
X0344264Y0423568D01*
X0344130Y0423658D01*
X0343999Y0423751D01*
X0343871Y0423847D01*
X0343745Y0423947D01*
X0343621Y0424050D01*
X0343500Y0424155D01*
X0343381Y0424264D01*
X0343265Y0424375D01*
X0343152Y0424490D01*
X0343042Y0424607D01*
X0342935Y0424727D01*
X0342831Y0424849D01*
X0342730Y0424974D01*
X0342632Y0425102D01*
X0342537Y0425232D01*
X0342445Y0425364D01*
X0342357Y0425498D01*
X0342272Y0425635D01*
X0342190Y0425773D01*
X0342112Y0425914D01*
X0342038Y0426056D01*
X0341967Y0426200D01*
X0341899Y0426346D01*
X0341836Y0426494D01*
X0341775Y0426643D01*
X0341719Y0426794D01*
X0341666Y0426946D01*
X0341617Y0427099D01*
X0341572Y0427253D01*
X0341531Y0427408D01*
X0341493Y0427565D01*
X0341460Y0427722D01*
X0341430Y0427880D01*
X0341404Y0428039D01*
X0341383Y0428198D01*
X0341365Y0428358D01*
X0341351Y0428518D01*
X0341341Y0428679D01*
X0341335Y0428839D01*
X0341333Y0429000D01*
X0363333Y0429000D02*
X0363335Y0429161D01*
X0363341Y0429321D01*
X0363351Y0429482D01*
X0363365Y0429642D01*
X0363383Y0429802D01*
X0363404Y0429961D01*
X0363430Y0430120D01*
X0363460Y0430278D01*
X0363493Y0430435D01*
X0363531Y0430592D01*
X0363572Y0430747D01*
X0363617Y0430901D01*
X0363666Y0431054D01*
X0363719Y0431206D01*
X0363775Y0431357D01*
X0363836Y0431506D01*
X0363899Y0431654D01*
X0363967Y0431800D01*
X0364038Y0431944D01*
X0364112Y0432086D01*
X0364190Y0432227D01*
X0364272Y0432365D01*
X0364357Y0432502D01*
X0364445Y0432636D01*
X0364537Y0432768D01*
X0364632Y0432898D01*
X0364730Y0433026D01*
X0364831Y0433151D01*
X0364935Y0433273D01*
X0365042Y0433393D01*
X0365152Y0433510D01*
X0365265Y0433625D01*
X0365381Y0433736D01*
X0365500Y0433845D01*
X0365621Y0433950D01*
X0365745Y0434053D01*
X0365871Y0434153D01*
X0365999Y0434249D01*
X0366130Y0434342D01*
X0366264Y0434432D01*
X0366399Y0434519D01*
X0366537Y0434602D01*
X0366676Y0434682D01*
X0366818Y0434758D01*
X0366961Y0434831D01*
X0367106Y0434900D01*
X0367253Y0434966D01*
X0367401Y0435028D01*
X0367551Y0435086D01*
X0367702Y0435141D01*
X0367855Y0435192D01*
X0368009Y0435239D01*
X0368164Y0435282D01*
X0368320Y0435321D01*
X0368476Y0435357D01*
X0368634Y0435388D01*
X0368792Y0435416D01*
X0368951Y0435440D01*
X0369111Y0435460D01*
X0369271Y0435476D01*
X0369431Y0435488D01*
X0369592Y0435496D01*
X0369753Y0435500D01*
X0369913Y0435500D01*
X0370074Y0435496D01*
X0370235Y0435488D01*
X0370395Y0435476D01*
X0370555Y0435460D01*
X0370715Y0435440D01*
X0370874Y0435416D01*
X0371032Y0435388D01*
X0371190Y0435357D01*
X0371346Y0435321D01*
X0371502Y0435282D01*
X0371657Y0435239D01*
X0371811Y0435192D01*
X0371964Y0435141D01*
X0372115Y0435086D01*
X0372265Y0435028D01*
X0372413Y0434966D01*
X0372560Y0434900D01*
X0372705Y0434831D01*
X0372848Y0434758D01*
X0372990Y0434682D01*
X0373129Y0434602D01*
X0373267Y0434519D01*
X0373402Y0434432D01*
X0373536Y0434342D01*
X0373667Y0434249D01*
X0373795Y0434153D01*
X0373921Y0434053D01*
X0374045Y0433950D01*
X0374166Y0433845D01*
X0374285Y0433736D01*
X0374401Y0433625D01*
X0374514Y0433510D01*
X0374624Y0433393D01*
X0374731Y0433273D01*
X0374835Y0433151D01*
X0374936Y0433026D01*
X0375034Y0432898D01*
X0375129Y0432768D01*
X0375221Y0432636D01*
X0375309Y0432502D01*
X0375394Y0432365D01*
X0375476Y0432227D01*
X0375554Y0432086D01*
X0375628Y0431944D01*
X0375699Y0431800D01*
X0375767Y0431654D01*
X0375830Y0431506D01*
X0375891Y0431357D01*
X0375947Y0431206D01*
X0376000Y0431054D01*
X0376049Y0430901D01*
X0376094Y0430747D01*
X0376135Y0430592D01*
X0376173Y0430435D01*
X0376206Y0430278D01*
X0376236Y0430120D01*
X0376262Y0429961D01*
X0376283Y0429802D01*
X0376301Y0429642D01*
X0376315Y0429482D01*
X0376325Y0429321D01*
X0376331Y0429161D01*
X0376333Y0429000D01*
X0376331Y0428839D01*
X0376325Y0428679D01*
X0376315Y0428518D01*
X0376301Y0428358D01*
X0376283Y0428198D01*
X0376262Y0428039D01*
X0376236Y0427880D01*
X0376206Y0427722D01*
X0376173Y0427565D01*
X0376135Y0427408D01*
X0376094Y0427253D01*
X0376049Y0427099D01*
X0376000Y0426946D01*
X0375947Y0426794D01*
X0375891Y0426643D01*
X0375830Y0426494D01*
X0375767Y0426346D01*
X0375699Y0426200D01*
X0375628Y0426056D01*
X0375554Y0425914D01*
X0375476Y0425773D01*
X0375394Y0425635D01*
X0375309Y0425498D01*
X0375221Y0425364D01*
X0375129Y0425232D01*
X0375034Y0425102D01*
X0374936Y0424974D01*
X0374835Y0424849D01*
X0374731Y0424727D01*
X0374624Y0424607D01*
X0374514Y0424490D01*
X0374401Y0424375D01*
X0374285Y0424264D01*
X0374166Y0424155D01*
X0374045Y0424050D01*
X0373921Y0423947D01*
X0373795Y0423847D01*
X0373667Y0423751D01*
X0373536Y0423658D01*
X0373402Y0423568D01*
X0373267Y0423481D01*
X0373129Y0423398D01*
X0372990Y0423318D01*
X0372848Y0423242D01*
X0372705Y0423169D01*
X0372560Y0423100D01*
X0372413Y0423034D01*
X0372265Y0422972D01*
X0372115Y0422914D01*
X0371964Y0422859D01*
X0371811Y0422808D01*
X0371657Y0422761D01*
X0371502Y0422718D01*
X0371346Y0422679D01*
X0371190Y0422643D01*
X0371032Y0422612D01*
X0370874Y0422584D01*
X0370715Y0422560D01*
X0370555Y0422540D01*
X0370395Y0422524D01*
X0370235Y0422512D01*
X0370074Y0422504D01*
X0369913Y0422500D01*
X0369753Y0422500D01*
X0369592Y0422504D01*
X0369431Y0422512D01*
X0369271Y0422524D01*
X0369111Y0422540D01*
X0368951Y0422560D01*
X0368792Y0422584D01*
X0368634Y0422612D01*
X0368476Y0422643D01*
X0368320Y0422679D01*
X0368164Y0422718D01*
X0368009Y0422761D01*
X0367855Y0422808D01*
X0367702Y0422859D01*
X0367551Y0422914D01*
X0367401Y0422972D01*
X0367253Y0423034D01*
X0367106Y0423100D01*
X0366961Y0423169D01*
X0366818Y0423242D01*
X0366676Y0423318D01*
X0366537Y0423398D01*
X0366399Y0423481D01*
X0366264Y0423568D01*
X0366130Y0423658D01*
X0365999Y0423751D01*
X0365871Y0423847D01*
X0365745Y0423947D01*
X0365621Y0424050D01*
X0365500Y0424155D01*
X0365381Y0424264D01*
X0365265Y0424375D01*
X0365152Y0424490D01*
X0365042Y0424607D01*
X0364935Y0424727D01*
X0364831Y0424849D01*
X0364730Y0424974D01*
X0364632Y0425102D01*
X0364537Y0425232D01*
X0364445Y0425364D01*
X0364357Y0425498D01*
X0364272Y0425635D01*
X0364190Y0425773D01*
X0364112Y0425914D01*
X0364038Y0426056D01*
X0363967Y0426200D01*
X0363899Y0426346D01*
X0363836Y0426494D01*
X0363775Y0426643D01*
X0363719Y0426794D01*
X0363666Y0426946D01*
X0363617Y0427099D01*
X0363572Y0427253D01*
X0363531Y0427408D01*
X0363493Y0427565D01*
X0363460Y0427722D01*
X0363430Y0427880D01*
X0363404Y0428039D01*
X0363383Y0428198D01*
X0363365Y0428358D01*
X0363351Y0428518D01*
X0363341Y0428679D01*
X0363335Y0428839D01*
X0363333Y0429000D01*
X0443333Y0429000D02*
X0443335Y0429161D01*
X0443341Y0429321D01*
X0443351Y0429482D01*
X0443365Y0429642D01*
X0443383Y0429802D01*
X0443404Y0429961D01*
X0443430Y0430120D01*
X0443460Y0430278D01*
X0443493Y0430435D01*
X0443531Y0430592D01*
X0443572Y0430747D01*
X0443617Y0430901D01*
X0443666Y0431054D01*
X0443719Y0431206D01*
X0443775Y0431357D01*
X0443836Y0431506D01*
X0443899Y0431654D01*
X0443967Y0431800D01*
X0444038Y0431944D01*
X0444112Y0432086D01*
X0444190Y0432227D01*
X0444272Y0432365D01*
X0444357Y0432502D01*
X0444445Y0432636D01*
X0444537Y0432768D01*
X0444632Y0432898D01*
X0444730Y0433026D01*
X0444831Y0433151D01*
X0444935Y0433273D01*
X0445042Y0433393D01*
X0445152Y0433510D01*
X0445265Y0433625D01*
X0445381Y0433736D01*
X0445500Y0433845D01*
X0445621Y0433950D01*
X0445745Y0434053D01*
X0445871Y0434153D01*
X0445999Y0434249D01*
X0446130Y0434342D01*
X0446264Y0434432D01*
X0446399Y0434519D01*
X0446537Y0434602D01*
X0446676Y0434682D01*
X0446818Y0434758D01*
X0446961Y0434831D01*
X0447106Y0434900D01*
X0447253Y0434966D01*
X0447401Y0435028D01*
X0447551Y0435086D01*
X0447702Y0435141D01*
X0447855Y0435192D01*
X0448009Y0435239D01*
X0448164Y0435282D01*
X0448320Y0435321D01*
X0448476Y0435357D01*
X0448634Y0435388D01*
X0448792Y0435416D01*
X0448951Y0435440D01*
X0449111Y0435460D01*
X0449271Y0435476D01*
X0449431Y0435488D01*
X0449592Y0435496D01*
X0449753Y0435500D01*
X0449913Y0435500D01*
X0450074Y0435496D01*
X0450235Y0435488D01*
X0450395Y0435476D01*
X0450555Y0435460D01*
X0450715Y0435440D01*
X0450874Y0435416D01*
X0451032Y0435388D01*
X0451190Y0435357D01*
X0451346Y0435321D01*
X0451502Y0435282D01*
X0451657Y0435239D01*
X0451811Y0435192D01*
X0451964Y0435141D01*
X0452115Y0435086D01*
X0452265Y0435028D01*
X0452413Y0434966D01*
X0452560Y0434900D01*
X0452705Y0434831D01*
X0452848Y0434758D01*
X0452990Y0434682D01*
X0453129Y0434602D01*
X0453267Y0434519D01*
X0453402Y0434432D01*
X0453536Y0434342D01*
X0453667Y0434249D01*
X0453795Y0434153D01*
X0453921Y0434053D01*
X0454045Y0433950D01*
X0454166Y0433845D01*
X0454285Y0433736D01*
X0454401Y0433625D01*
X0454514Y0433510D01*
X0454624Y0433393D01*
X0454731Y0433273D01*
X0454835Y0433151D01*
X0454936Y0433026D01*
X0455034Y0432898D01*
X0455129Y0432768D01*
X0455221Y0432636D01*
X0455309Y0432502D01*
X0455394Y0432365D01*
X0455476Y0432227D01*
X0455554Y0432086D01*
X0455628Y0431944D01*
X0455699Y0431800D01*
X0455767Y0431654D01*
X0455830Y0431506D01*
X0455891Y0431357D01*
X0455947Y0431206D01*
X0456000Y0431054D01*
X0456049Y0430901D01*
X0456094Y0430747D01*
X0456135Y0430592D01*
X0456173Y0430435D01*
X0456206Y0430278D01*
X0456236Y0430120D01*
X0456262Y0429961D01*
X0456283Y0429802D01*
X0456301Y0429642D01*
X0456315Y0429482D01*
X0456325Y0429321D01*
X0456331Y0429161D01*
X0456333Y0429000D01*
X0456331Y0428839D01*
X0456325Y0428679D01*
X0456315Y0428518D01*
X0456301Y0428358D01*
X0456283Y0428198D01*
X0456262Y0428039D01*
X0456236Y0427880D01*
X0456206Y0427722D01*
X0456173Y0427565D01*
X0456135Y0427408D01*
X0456094Y0427253D01*
X0456049Y0427099D01*
X0456000Y0426946D01*
X0455947Y0426794D01*
X0455891Y0426643D01*
X0455830Y0426494D01*
X0455767Y0426346D01*
X0455699Y0426200D01*
X0455628Y0426056D01*
X0455554Y0425914D01*
X0455476Y0425773D01*
X0455394Y0425635D01*
X0455309Y0425498D01*
X0455221Y0425364D01*
X0455129Y0425232D01*
X0455034Y0425102D01*
X0454936Y0424974D01*
X0454835Y0424849D01*
X0454731Y0424727D01*
X0454624Y0424607D01*
X0454514Y0424490D01*
X0454401Y0424375D01*
X0454285Y0424264D01*
X0454166Y0424155D01*
X0454045Y0424050D01*
X0453921Y0423947D01*
X0453795Y0423847D01*
X0453667Y0423751D01*
X0453536Y0423658D01*
X0453402Y0423568D01*
X0453267Y0423481D01*
X0453129Y0423398D01*
X0452990Y0423318D01*
X0452848Y0423242D01*
X0452705Y0423169D01*
X0452560Y0423100D01*
X0452413Y0423034D01*
X0452265Y0422972D01*
X0452115Y0422914D01*
X0451964Y0422859D01*
X0451811Y0422808D01*
X0451657Y0422761D01*
X0451502Y0422718D01*
X0451346Y0422679D01*
X0451190Y0422643D01*
X0451032Y0422612D01*
X0450874Y0422584D01*
X0450715Y0422560D01*
X0450555Y0422540D01*
X0450395Y0422524D01*
X0450235Y0422512D01*
X0450074Y0422504D01*
X0449913Y0422500D01*
X0449753Y0422500D01*
X0449592Y0422504D01*
X0449431Y0422512D01*
X0449271Y0422524D01*
X0449111Y0422540D01*
X0448951Y0422560D01*
X0448792Y0422584D01*
X0448634Y0422612D01*
X0448476Y0422643D01*
X0448320Y0422679D01*
X0448164Y0422718D01*
X0448009Y0422761D01*
X0447855Y0422808D01*
X0447702Y0422859D01*
X0447551Y0422914D01*
X0447401Y0422972D01*
X0447253Y0423034D01*
X0447106Y0423100D01*
X0446961Y0423169D01*
X0446818Y0423242D01*
X0446676Y0423318D01*
X0446537Y0423398D01*
X0446399Y0423481D01*
X0446264Y0423568D01*
X0446130Y0423658D01*
X0445999Y0423751D01*
X0445871Y0423847D01*
X0445745Y0423947D01*
X0445621Y0424050D01*
X0445500Y0424155D01*
X0445381Y0424264D01*
X0445265Y0424375D01*
X0445152Y0424490D01*
X0445042Y0424607D01*
X0444935Y0424727D01*
X0444831Y0424849D01*
X0444730Y0424974D01*
X0444632Y0425102D01*
X0444537Y0425232D01*
X0444445Y0425364D01*
X0444357Y0425498D01*
X0444272Y0425635D01*
X0444190Y0425773D01*
X0444112Y0425914D01*
X0444038Y0426056D01*
X0443967Y0426200D01*
X0443899Y0426346D01*
X0443836Y0426494D01*
X0443775Y0426643D01*
X0443719Y0426794D01*
X0443666Y0426946D01*
X0443617Y0427099D01*
X0443572Y0427253D01*
X0443531Y0427408D01*
X0443493Y0427565D01*
X0443460Y0427722D01*
X0443430Y0427880D01*
X0443404Y0428039D01*
X0443383Y0428198D01*
X0443365Y0428358D01*
X0443351Y0428518D01*
X0443341Y0428679D01*
X0443335Y0428839D01*
X0443333Y0429000D01*
M02*
